<svg width="28" height="32" viewBox="0 0 28 32" fill="none" xmlns="http://www.w3.org/2000/svg">
    <path fill-rule="evenodd" clip-rule="evenodd" d="M0.5 4C0.5 2.067 2.067 0.5 4 0.5H17C18.933 0.5 20.5 2.067 20.5 4V5C20.5 5.82843 19.8284 6.5 19 6.5C18.1716 6.5 17.5 5.82843 17.5 5V4C17.5 3.72386 17.2761 3.5 17 3.5H4C3.72386 3.5 3.5 3.72386 3.5 4V28C3.5 28.2761 3.72386 28.5 4 28.5H17C17.2761 28.5 17.5 28.2761 17.5 28V22C17.5 21.1716 18.1716 20.5 19 20.5C19.8284 20.5 20.5 21.1716 20.5 22V28C20.5 29.933 18.933 31.5 17 31.5H4C2.067 31.5 0.5 29.933 0.5 28V4ZM11.75 24.5C11.75 25.1912 11.1896 25.75 10.5 25.75C9.81036 25.75 9.25 25.1912 9.25 24.5C9.25 23.8088 9.81036 23.25 10.5 23.25C11.1896 23.25 11.75 23.8088 11.75 24.5ZM9.5 8.75C9.5 8.47386 9.72386 8.25 10 8.25H13.25C13.5261 8.25 13.75 8.47386 13.75 8.75V9.25C13.75 9.52614 13.5261 9.75 13.25 9.75H10C9.72386 9.75 9.5 9.52614 9.5 9.25V8.75ZM23 8.75C23 8.47386 23.2239 8.25 23.5 8.25H26.75C27.0261 8.25 27.25 8.47386 27.25 8.75V9.25C27.25 9.52614 27.0261 9.75 26.75 9.75H23.5C23.2239 9.75 23 9.52614 23 9.25V8.75ZM23.5 11.25C23.2239 11.25 23 11.4739 23 11.75V12.25C23 12.5261 23.2239 12.75 23.5 12.75H26.75C27.0261 12.75 27.25 12.5261 27.25 12.25V11.75C27.25 11.4739 27.0261 11.25 26.75 11.25H23.5ZM16.25 11.75C16.25 11.4739 16.4739 11.25 16.75 11.25H20C20.2761 11.25 20.5 11.4739 20.5 11.75V12.25C20.5 12.5261 20.2761 12.75 20 12.75H16.75C16.4739 12.75 16.25 12.5261 16.25 12.25V11.75ZM16.75 14.25C16.4739 14.25 16.25 14.4739 16.25 14.75V15.25C16.25 15.5261 16.4739 15.75 16.75 15.75H20C20.2761 15.75 20.5 15.5261 20.5 15.25V14.75C20.5 14.4739 20.2761 14.25 20 14.25H16.75ZM9.5 14.75C9.5 14.4739 9.72386 14.25 10 14.25H13.25C13.5261 14.25 13.75 14.4739 13.75 14.75V15.25C13.75 15.5261 13.5261 15.75 13.25 15.75H10C9.72386 15.75 9.5 15.5261 9.5 15.25V14.75ZM10 17.25C9.72386 17.25 9.5 17.4739 9.5 17.75V18.25C9.5 18.5261 9.72386 18.75 10 18.75H13.25C13.5261 18.75 13.75 18.5261 13.75 18.25V17.75C13.75 17.4739 13.5261 17.25 13.25 17.25H10ZM23 17.75C23 17.4739 23.2239 17.25 23.5 17.25H26.75C27.0261 17.25 27.25 17.4739 27.25 17.75V18.25C27.25 18.5261 27.0261 18.75 26.75 18.75H23.5C23.2239 18.75 23 18.5261 23 18.25V17.75Z" fill="#008484"/>
</svg>
