<svg width="31" height="32" viewBox="0 0 31 32" fill="none" xmlns="http://www.w3.org/2000/svg">
    <path fill-rule="evenodd" clip-rule="evenodd" d="M8.09835 4.59835C8.75413 3.94257 9.93285 3.5 11 3.5C12.0672 3.5 13.2459 3.94257 13.9017 4.59835C14.6049 5.30161 15 6.25544 15 7.25V9.5H7V7.25C7 6.25544 7.39509 5.30161 8.09835 4.59835ZM4 9.5V7.25C4 5.45979 4.71116 3.7429 5.97703 2.47703C7.29038 1.16368 9.28238 0.5 11 0.5C12.7176 0.5 14.7096 1.16368 16.023 2.47703C17.2888 3.7429 18 5.45979 18 7.25V9.5H19C20.6569 9.5 22 10.8431 22 12.5V17.5C22 18.3284 21.3284 19 20.5 19C19.6716 19 19 18.3284 19 17.5V12.5H3.5V26.5H4.5C5.32843 26.5 6 27.1716 6 28C6 28.8284 5.32843 29.5 4.5 29.5H3.5C1.84315 29.5 0.5 28.1569 0.5 26.5V12.5C0.5 10.8431 1.84315 9.5 3.5 9.5H4ZM11.5 16.25C11.9142 16.25 12.25 16.5858 12.25 17V19C12.25 19.4142 11.9142 19.75 11.5 19.75C11.0858 19.75 10.75 19.4142 10.75 19V17C10.75 16.5858 11.0858 16.25 11.5 16.25ZM7.25 22C7.25 21.0335 8.0335 20.25 9 20.25H29C29.9665 20.25 30.75 21.0335 30.75 22V30C30.75 30.9665 29.9665 31.75 29 31.75H9C8.0335 31.75 7.25 30.9665 7.25 30V22ZM9 21.75C8.86193 21.75 8.75 21.8619 8.75 22V30C8.75 30.1381 8.86193 30.25 9 30.25H29C29.1381 30.25 29.25 30.1381 29.25 30V22C29.25 21.8619 29.1381 21.75 29 21.75H9ZM22.25 28C22.25 27.5858 22.5858 27.25 23 27.25H27C27.4142 27.25 27.75 27.5858 27.75 28C27.75 28.4142 27.4142 28.75 27 28.75H23C22.5858 28.75 22.25 28.4142 22.25 28ZM15.5303 23.4697C15.8232 23.7626 15.8232 24.2374 15.5303 24.5303L14.0607 26L15.5303 27.4697C15.8232 27.7626 15.8232 28.2374 15.5303 28.5303C15.2374 28.8232 14.7626 28.8232 14.4697 28.5303L13 27.0607L11.5303 28.5303C11.2374 28.8232 10.7626 28.8232 10.4697 28.5303C10.1768 28.2374 10.1768 27.7626 10.4697 27.4697L11.9393 26L10.4697 24.5303C10.1768 24.2374 10.1768 23.7626 10.4697 23.4697C10.7626 23.1768 11.2374 23.1768 11.5303 23.4697L13 24.9393L14.4697 23.4697C14.7626 23.1768 15.2374 23.1768 15.5303 23.4697ZM21.5303 24.5303C21.8232 24.2374 21.8232 23.7626 21.5303 23.4697C21.2374 23.1768 20.7626 23.1768 20.4697 23.4697L19 24.9393L17.5303 23.4697C17.2374 23.1768 16.7626 23.1768 16.4697 23.4697C16.1768 23.7626 16.1768 24.2374 16.4697 24.5303L17.9393 26L16.4697 27.4697C16.1768 27.7626 16.1768 28.2374 16.4697 28.5303C16.7626 28.8232 17.2374 28.8232 17.5303 28.5303L19 27.0607L20.4697 28.5303C20.7626 28.8232 21.2374 28.8232 21.5303 28.5303C21.8232 28.2374 21.8232 27.7626 21.5303 27.4697L20.0607 26L21.5303 24.5303Z" fill="#008484"/>
</svg>
