<svg width="26" height="26" viewBox="0 0 26 26" fill="none" xmlns="http://www.w3.org/2000/svg">
    <path fill-rule="evenodd" clip-rule="evenodd" d="M24.2182 10.7821C24.3374 11.3892 24.4071 11.9998 24.4278 12.6099C24.4333 12.7713 24.5686 12.8977 24.73 12.8922C24.8914 12.8867 25.0177 12.7514 25.0123 12.59C24.9897 11.928 24.9124 11.2655 24.7797 10.6073C24.7755 10.5865 24.7692 10.5666 24.761 10.5479C23.4213 4.07167 17.099 -0.111543 10.6087 1.19714C10.4504 1.22906 10.348 1.38325 10.3799 1.54153C10.4118 1.69982 10.566 1.80227 10.7243 1.77035C16.9182 0.521426 22.9513 4.52992 24.2002 10.7241C24.2043 10.7444 24.2104 10.7638 24.2182 10.7821ZM8.86435 1.6864C9.01611 1.63125 9.18385 1.70958 9.23899 1.86135C9.29413 2.01311 9.21581 2.18084 9.06404 2.23599C3.79953 4.14882 0.670275 9.64093 1.75859 15.1875C1.76648 15.2058 1.7726 15.2252 1.77671 15.2455C1.81011 15.4109 1.84658 15.5736 1.88619 15.7338C1.92494 15.8906 1.82928 16.0491 1.67253 16.0878C1.51578 16.1266 1.35729 16.0309 1.31853 15.8742C1.28175 15.7254 1.24757 15.5747 1.21595 15.4219C1.20774 15.4032 1.20139 15.3832 1.19718 15.3623C0.0173972 9.51108 3.31015 3.70449 8.86435 1.6864ZM9.76328 24.5418C9.88458 24.6484 10.0693 24.6365 10.1759 24.5152C10.6387 23.9884 11.0602 23.4263 11.4363 22.8344C11.5229 22.6981 11.4826 22.5174 11.3463 22.4308C11.21 22.3442 11.0293 22.3845 10.9427 22.5208C10.5828 23.0872 10.1795 23.6251 9.73662 24.1292C9.63004 24.2505 9.64198 24.4352 9.76328 24.5418ZM11.9626 21.9309C11.8868 22.0735 11.7097 22.1275 11.5672 22.0517C11.4246 21.9758 11.3706 21.7988 11.4464 21.6562C12.8413 19.0349 13.3011 16.0145 12.7018 13.0426C12.6699 12.8843 12.7724 12.7301 12.9307 12.6982C13.0889 12.6663 13.2431 12.7688 13.275 12.927C13.9013 16.0329 13.4206 19.1911 11.9626 21.9309ZM11.4188 24.8687C11.546 24.9681 11.7298 24.9456 11.8292 24.8184C13.0784 23.2198 13.9941 21.3824 14.5141 19.4215C14.5555 19.2655 14.4625 19.1054 14.3065 19.064C14.1504 19.0226 13.9903 19.1156 13.9489 19.2716C13.4492 21.1559 12.5691 22.9219 11.3684 24.4583C11.269 24.5855 11.2916 24.7693 11.4188 24.8687ZM14.8036 18.0849C14.7767 18.2441 14.6259 18.3514 14.4666 18.3245C14.3074 18.2976 14.2001 18.1467 14.227 17.9875C14.5175 16.2673 14.492 14.5002 14.1393 12.7511C14.0142 12.1115 13.3921 11.697 12.7518 11.8261C12.1119 11.9552 11.6978 12.5786 11.8267 13.2179C12.6327 17.162 11.4105 21.1746 8.64879 24.0067C8.53606 24.1223 8.35095 24.1246 8.23535 24.0119C8.11974 23.8992 8.11741 23.7141 8.23014 23.5985C10.8581 20.9036 12.0205 17.0871 11.2536 13.3342C11.0607 12.3776 11.6797 11.4459 12.6362 11.2529C13.594 11.0598 14.5257 11.6806 14.7129 12.6372C15.0795 14.4551 15.106 16.2944 14.8036 18.0849ZM13.1951 24.9544C13.3283 25.0456 13.5103 25.0115 13.6015 24.8782C14.1261 24.1115 14.5855 23.3017 14.974 22.458C15.0416 22.3113 14.9774 22.1377 14.8308 22.0701C14.6841 22.0026 14.5105 22.0667 14.4429 22.2134C14.0681 23.0272 13.625 23.8083 13.1189 24.548C13.0277 24.6812 13.0618 24.8632 13.1951 24.9544ZM15.3592 21.5512C15.3006 21.7016 15.1311 21.776 14.9806 21.7174C14.8302 21.6587 14.7558 21.4892 14.8144 21.3388C15.9073 18.5359 16.1851 15.4767 15.5773 12.4623C15.2915 11.0286 13.896 10.1004 12.4622 10.3896C12.3039 10.4215 12.1497 10.3191 12.1178 10.1608C12.0859 10.0025 12.1883 9.84833 12.3466 9.81641C14.0973 9.46331 15.8017 10.5969 16.1507 12.3473C16.7807 15.4718 16.4925 18.6448 15.3592 21.5512ZM11.6392 10.3541C11.5518 10.2183 11.3708 10.1792 11.2351 10.2666C10.1259 10.9813 9.55169 12.3086 9.81697 13.6239C10.3117 16.0326 9.89717 18.4843 8.69208 20.5758C8.61146 20.7157 8.65953 20.8945 8.79944 20.9751C8.93935 21.0557 9.11812 21.0077 9.19874 20.8677C10.4744 18.6537 10.9136 16.0565 10.39 13.5073C10.1729 12.4308 10.6432 11.3436 11.5518 10.7582C11.6875 10.6708 11.7267 10.4898 11.6392 10.3541ZM8.20137 21.3446C8.29434 21.2126 8.47673 21.1809 8.60876 21.2739C8.74078 21.3668 8.77244 21.5492 8.67948 21.6812C8.26133 22.2751 7.78328 22.8247 7.25298 23.3209C7.13507 23.4312 6.95005 23.425 6.83973 23.3071C6.72942 23.1892 6.73558 23.0042 6.85349 22.8939C7.35452 22.4251 7.80624 21.9057 8.20137 21.3446ZM15.083 24.7527C15.2223 24.8344 15.4015 24.7878 15.4832 24.6485C17.6554 20.9454 18.4419 16.5898 17.638 12.2918L17.5906 12.0565C17.0777 9.51303 14.6003 7.86698 12.057 8.37986C9.51346 8.89275 7.86745 11.3702 8.38041 13.9136L8.4401 14.1921C8.93445 17.1444 7.84438 20.105 5.60948 22.0406C5.48742 22.1463 5.47417 22.3309 5.57988 22.453C5.6856 22.575 5.87024 22.5883 5.9923 22.4826C8.45555 20.3492 9.61749 17.0494 8.96169 13.7967L8.90989 13.5397C8.61729 11.4057 10.0318 9.38473 12.1726 8.95306C14.3544 8.51309 16.4808 9.8878 16.9881 12.0383L17.0153 12.173C17.8683 16.4032 17.1188 20.7045 14.9788 24.3526C14.8971 24.4919 14.9438 24.671 15.083 24.7527ZM17.4577 24.0661C17.387 24.2112 17.212 24.2716 17.0669 24.2009C16.9217 24.1302 16.8613 23.9551 16.9321 23.81C18.7229 20.1339 19.2782 15.9754 18.4531 11.8831C17.8449 8.86229 14.9033 6.90746 11.883 7.51649C8.86255 8.12557 6.90792 11.0675 7.51675 14.0871C8.08841 16.8863 7.04571 19.7265 4.87221 21.5068C4.74729 21.6091 4.56308 21.5908 4.46076 21.4659C4.35844 21.3409 4.37676 21.1567 4.50168 21.0544C6.50905 19.4102 7.47159 16.7883 6.94369 14.2034C6.27088 10.8665 8.4304 7.6162 11.7674 6.94328C15.1044 6.27041 18.3544 8.43021 19.0263 11.7676C19.877 15.9867 19.3043 20.2757 17.4577 24.0661ZM3.48691 20.363C3.58804 20.4888 3.77206 20.5089 3.89795 20.4078C5.51682 19.1073 6.38817 17.069 6.17753 14.9827C6.16131 14.822 6.01792 14.7049 5.85727 14.7211C5.69661 14.7374 5.57952 14.8808 5.59574 15.0414C5.78634 16.9292 4.9975 18.7744 3.53173 19.9519C3.40585 20.053 3.38578 20.2371 3.48691 20.363ZM5.97804 13.7086C5.99482 13.8692 5.87823 14.013 5.71764 14.0298C5.55704 14.0466 5.41324 13.93 5.39646 13.7694C4.98977 9.8767 7.61422 6.2858 11.4776 5.50677C13.7988 5.03871 16.1597 5.67061 17.9296 7.1748C18.0526 7.27937 18.0676 7.46389 17.963 7.58693C17.8584 7.70997 17.6739 7.72494 17.5509 7.62037C15.9161 6.23098 13.7369 5.64771 11.5932 6.07998C8.02602 6.79927 5.6026 10.1151 5.97804 13.7086ZM18.3819 8.00482C18.259 8.10963 18.2444 8.29417 18.3492 8.41701C19.1191 9.31933 19.6507 10.4036 19.8905 11.5929C20.2485 13.3674 20.3672 15.1577 20.2511 16.9301C20.2405 17.0912 20.3626 17.2304 20.5237 17.241C20.6849 17.2515 20.824 17.1295 20.8346 16.9683C20.9541 15.1446 20.8319 13.3025 20.4637 11.4773C20.2041 10.1899 19.6281 9.01496 18.7941 8.03747C18.6893 7.91463 18.5047 7.90001 18.3819 8.00482ZM20.166 17.8819C20.1842 17.7215 20.329 17.6062 20.4894 17.6244C20.6499 17.6426 20.7652 17.7874 20.747 17.9479C20.5496 19.687 20.1325 21.3909 19.5085 23.0221C19.4508 23.173 19.2818 23.2484 19.131 23.1908C18.9802 23.1331 18.9047 22.964 18.9624 22.8132C19.5688 21.2279 19.9742 19.572 20.166 17.8819ZM21.2389 21.5328C21.3949 21.5744 21.5551 21.4817 21.5967 21.3256C22.2356 18.9294 22.4711 16.4388 22.2825 13.9405C22.2703 13.7795 22.1299 13.6588 21.9689 13.671C21.8079 13.6831 21.6872 13.8235 21.6994 13.9845C21.883 16.417 21.6538 18.8418 21.0317 21.175C20.9901 21.331 21.0829 21.4912 21.2389 21.5328ZM22.1401 12.5971C22.1619 12.7571 22.05 12.9045 21.89 12.9264C21.73 12.9482 21.5826 12.8363 21.5607 12.6763C21.4981 12.2178 21.4208 11.76 21.3288 11.3035C20.3982 6.69594 15.9105 3.71456 11.3036 4.64341C11.1453 4.67533 10.9911 4.57288 10.9592 4.41459C10.9273 4.2563 11.0297 4.10211 11.188 4.0702C16.1115 3.07753 20.9074 6.26373 21.902 11.1879C21.9965 11.6565 22.0758 12.1265 22.1401 12.5971ZM10.0863 4.66808C10.0283 4.51739 9.85911 4.44224 9.70841 4.50024C5.59951 6.08174 3.19069 10.4197 4.07042 14.7829C4.37425 16.2685 3.83519 17.776 2.69752 18.74C2.57432 18.8443 2.55907 19.0288 2.66346 19.152C2.76785 19.2752 2.95234 19.2905 3.07553 19.1861C4.37442 18.0855 4.99041 16.3629 4.64347 14.6665C3.82048 10.5848 6.07457 6.52546 9.91846 5.04596C10.0692 4.98796 10.1443 4.81878 10.0863 4.66808ZM23.6317 18.5365C23.6117 18.6967 23.4657 18.8104 23.3054 18.7905C23.1452 18.7705 23.0315 18.6245 23.0514 18.4642C23.1894 17.3554 23.247 16.2361 23.2224 15.1131C23.2189 14.9517 23.3469 14.818 23.5084 14.8145C23.6698 14.8109 23.8035 14.939 23.807 15.1004C23.8322 16.2518 23.7732 17.3995 23.6317 18.5365ZM23.4561 13.8598C23.6169 13.8457 23.7359 13.7038 23.7218 13.543C23.6442 12.6592 23.5169 11.7766 23.3398 10.8979C23.0592 9.51027 22.5132 8.21555 21.7363 7.0682C21.6457 6.9345 21.4639 6.89951 21.3302 6.99005C21.1965 7.08059 21.1616 7.26238 21.2521 7.39608C21.9858 8.47962 22.5015 9.70234 22.7666 11.0137C22.9394 11.8708 23.0636 12.7319 23.1392 13.5941C23.1534 13.755 23.2952 13.8739 23.4561 13.8598ZM20.7373 5.8114C20.8471 5.92979 20.8401 6.11478 20.7217 6.22459C20.6033 6.33439 20.4183 6.32744 20.3085 6.20905C17.9603 3.6773 14.4611 2.51184 11.0139 3.2069C7.77124 3.86074 5.11748 6.04988 3.82731 9.02885C3.76314 9.17702 3.591 9.24512 3.44282 9.18094C3.29465 9.11677 3.22655 8.94463 3.29073 8.79646C4.6562 5.64363 7.46599 3.32578 10.8984 2.63369C14.5473 1.89796 18.2519 3.13186 20.7373 5.8114ZM3.10696 10.1622C2.95053 10.1221 2.79126 10.2165 2.75121 10.3729C2.3609 11.8976 2.31585 13.4958 2.63378 15.0726C2.80733 15.9177 2.55744 16.7768 1.98044 17.3993C1.87067 17.5177 1.87769 17.7027 1.99612 17.8125C2.11454 17.9223 2.29953 17.9152 2.4093 17.7968C3.11306 17.0376 3.41856 15.9873 3.20679 14.956C2.90655 13.467 2.94909 11.9578 3.31769 10.5179C3.35774 10.3615 3.26339 10.2022 3.10696 10.1622Z" fill="#008484"/>
</svg>
