<svg width="32" height="11" viewBox="0 0 32 11" fill="none" xmlns="http://www.w3.org/2000/svg">
    <path fill-rule="evenodd" clip-rule="evenodd" d="M16.5496 3.51698C16.5311 5.04891 17.8324 5.90438 18.8122 6.4124C19.8196 6.93407 20.1578 7.26889 20.154 7.73498C20.1463 8.44929 19.3507 8.76433 18.606 8.77661C17.3068 8.79775 16.5516 8.40326 15.951 8.10424L15.483 10.4357C16.0855 10.731 17.2011 10.9891 18.3581 11C21.0736 11 22.8503 9.57343 22.8599 7.36061C22.8701 4.55282 19.2113 4.39768 19.2363 3.14227C19.245 2.76176 19.5858 2.35602 20.3334 2.25271C20.7036 2.20054 21.7251 2.16031 22.8826 2.72835L23.3371 0.472567C22.7148 0.231168 21.9144 0.000339508 20.9179 0.000339508C18.3619 0.000339508 16.5641 1.44669 16.5496 3.51698ZM27.7048 0.194686C27.2089 0.194686 26.7909 0.50223 26.6045 0.97514L22.7254 10.8346H25.439L25.9787 9.24611H29.2951L29.6083 10.8346H31.9997L29.9129 0.194686H27.7048ZM28.0843 3.06897L28.8675 7.06397H26.7227L28.0843 3.06897ZM13.2595 0.194686L11.1205 10.8346H13.7063L15.8443 0.194686H13.2595ZM9.43415 0.194686L6.74266 7.4363L5.65363 1.27893C5.52615 0.591561 5.02168 0.194686 4.46147 0.194686H0.0611775L0 0.503253C0.902929 0.71192 1.92917 1.04879 2.5512 1.4085C2.9314 1.62876 3.0403 1.82072 3.16522 2.34375L5.22699 10.8346H7.96012L12.1497 0.194686H9.43415Z" fill="#1A1F71"/>
</svg>
