<svg width="32" height="32" viewBox="0 0 32 32" fill="none" xmlns="http://www.w3.org/2000/svg">
<path d="M16 32C24.8366 32 32 24.8366 32 16C32 7.16344 24.8366 0 16 0C7.16344 0 0 7.16344 0 16C0 24.8366 7.16344 32 16 32Z" fill="#009B3A"/>
<mask id="mask0" mask-type="alpha" maskUnits="userSpaceOnUse" x="0" y="0" width="32" height="32">
<path d="M16 32C24.8366 32 32 24.8366 32 16C32 7.16344 24.8366 0 16 0C7.16344 0 0 7.16344 0 16C0 24.8366 7.16344 32 16 32Z" fill="white"/>
</mask>
<g mask="url(#mask0)">
<path fill-rule="evenodd" clip-rule="evenodd" d="M2.27181 16.446C1.94714 16.2373 1.94714 15.7627 2.27181 15.554L15.7133 6.91305C15.8879 6.80076 16.1121 6.80076 16.2867 6.91304L29.7282 15.554C30.0529 15.7627 30.0529 16.2373 29.7282 16.446L16.2867 25.087C16.1121 25.1992 15.8879 25.1992 15.7133 25.087L2.27181 16.446Z" fill="#FEDF00"/>
</g>
<path fill-rule="evenodd" clip-rule="evenodd" d="M16.0667 22.1333C19.4172 22.1333 22.1333 19.4172 22.1333 16.0667C22.1333 12.7161 19.4172 10 16.0667 10C12.7161 10 10 12.7161 10 16.0667C10 19.4172 12.7161 22.1333 16.0667 22.1333Z" fill="#002776"/>
<mask id="mask1" mask-type="alpha" maskUnits="userSpaceOnUse" x="10" y="10" width="13" height="13">
<path fill-rule="evenodd" clip-rule="evenodd" d="M16.0667 22.1333C19.4172 22.1333 22.1333 19.4172 22.1333 16.0667C22.1333 12.7161 19.4172 10 16.0667 10C12.7161 10 10 12.7161 10 16.0667C10 19.4172 12.7161 22.1333 16.0667 22.1333Z" fill="white"/>
</mask>
<g mask="url(#mask1)">
<path d="M9.28065 14.481C10.2332 13.7097 13.3068 14.4404 16.176 15.2057C19.0452 15.9711 22.0376 17.5753 22.7996 18.5162" stroke="white" stroke-width="1.06044" stroke-linecap="square"/>
</g>
</svg>
