<svg width="32" height="32" viewBox="0 0 32 32" fill="none" xmlns="http://www.w3.org/2000/svg">
<mask id="path-1-inside-1" fill="white">
<path d="M16 32C24.8366 32 32 24.8366 32 16C32 7.16344 24.8366 0 16 0C7.16344 0 0 7.16344 0 16C0 24.8366 7.16344 32 16 32Z"/>
</mask>
<path d="M16 32C24.8366 32 32 24.8366 32 16C32 7.16344 24.8366 0 16 0C7.16344 0 0 7.16344 0 16C0 24.8366 7.16344 32 16 32Z" fill="white" stroke="#F8F8F8" mask="url(#path-1-inside-1)"/>
<mask id="mask0" mask-type="alpha" maskUnits="userSpaceOnUse" x="0" y="0" width="32" height="32">
<mask id="path-2-inside-2" mask-type="luminance" fill="white">
<path d="M16 32C24.8366 32 32 24.8366 32 16C32 7.16344 24.8366 0 16 0C7.16344 0 0 7.16344 0 16C0 24.8366 7.16344 32 16 32Z"/>
</mask>
<path d="M16 32C24.8366 32 32 24.8366 32 16C32 7.16344 24.8366 0 16 0C7.16344 0 0 7.16344 0 16C0 24.8366 7.16344 32 16 32Z" fill="white" stroke="white" mask="url(#path-2-inside-2)"/>
</mask>
<g mask="url(#mask0)">
<path fill-rule="evenodd" clip-rule="evenodd" d="M0 11H32V0H0V11Z" fill="#CE1126"/>
<path fill-rule="evenodd" clip-rule="evenodd" d="M0 32H32V21H0V32Z" fill="black"/>
<path fill-rule="evenodd" clip-rule="evenodd" d="M12.0667 13.4667C12.0667 13.0985 12.3651 12.8 12.7333 12.8H13.5756C13.7113 12.8 13.8334 12.8822 13.8844 13.0079L14.6667 14.9333C14.6667 14.9333 15.6188 12.8 16.4 12.8C17.2667 12.8 18.1333 14.9333 18.1333 14.9333L18.9155 13.0079C18.9666 12.8822 19.0887 12.8 19.2244 12.8H20.0667C20.4348 12.8 20.7333 13.0985 20.7333 13.4667V17.7906C20.7333 18.3535 20.0789 18.663 19.6438 18.306L18.1333 17.0667H17.2667V18.5333C17.2667 18.9015 16.9682 19.2 16.6 19.2H16.2C15.8318 19.2 15.5333 18.9015 15.5333 18.5333V17.0667H14.6667L13.1562 18.306C12.7211 18.663 12.0667 18.3535 12.0667 17.7906V13.4667Z" fill="#C09300"/>
</g>
</svg>
