<svg width="32" height="32" viewBox="0 0 32 32" fill="none" xmlns="http://www.w3.org/2000/svg">
<path d="M16 32C24.8366 32 32 24.8366 32 16C32 7.16344 24.8366 0 16 0C7.16344 0 0 7.16344 0 16C0 24.8366 7.16344 32 16 32Z" fill="white"/>
<mask id="mask0" mask-type="alpha" maskUnits="userSpaceOnUse" x="0" y="0" width="32" height="32">
<path d="M16 32C24.8366 32 32 24.8366 32 16C32 7.16344 24.8366 0 16 0C7.16344 0 0 7.16344 0 16C0 24.8366 7.16344 32 16 32Z" fill="white"/>
</mask>
<g mask="url(#mask0)">
<path d="M16 32C24.8366 32 32 24.8366 32 16C32 7.16344 24.8366 0 16 0C7.16344 0 0 7.16344 0 16C0 24.8366 7.16344 32 16 32Z" fill="white"/>
<path fill-rule="evenodd" clip-rule="evenodd" d="M0 8H32V24H0V8ZM19 10.1381C18.602 10.0476 18.1887 10 17.7647 10C14.5809 10 12 12.6863 12 16C12 19.3137 14.5809 22 17.7647 22C18.1887 22 18.602 21.9524 19 21.8619C16.4099 21.2733 14.4706 18.8724 14.4706 16C14.4706 13.1276 16.4099 10.7267 19 10.1381Z" fill="#15A04F"/>
<path d="M32 24H0V32H32V24Z" fill="#D21034"/>
<path d="M32 0H0V8H32V0Z" fill="#D21034"/>
</g>
</svg>
