<svg width="32" height="32" viewBox="0 0 32 32" fill="none" xmlns="http://www.w3.org/2000/svg">
<path d="M16 32C24.8366 32 32 24.8366 32 16C32 7.16344 24.8366 0 16 0C7.16344 0 0 7.16344 0 16C0 24.8366 7.16344 32 16 32Z" fill="#00247D"/>
<mask id="mask0" mask-type="alpha" maskUnits="userSpaceOnUse" x="0" y="0" width="32" height="32">
<path d="M16 32C24.8366 32 32 24.8366 32 16C32 7.16344 24.8366 0 16 0C7.16344 0 0 7.16344 0 16C0 24.8366 7.16344 32 16 32Z" fill="white"/>
</mask>
<g mask="url(#mask0)">
<mask id="path-3-outside-1" maskUnits="userSpaceOnUse" x="-5" y="-2" width="22" height="19" fill="black">
<rect fill="white" x="-5" y="-2" width="22" height="19"/>
<path fill-rule="evenodd" clip-rule="evenodd" d="M4.46667 6.4L-3 0H-1.93333L5.53333 5.33333H7.66667L16.2 0V0.895127C16.2 1.00278 16.148 1.1038 16.0604 1.16637L8.73333 6.4V8.53333L15.5158 14.3469C15.7508 14.5483 15.6084 14.9333 15.2989 14.9333H15.2402C15.1707 14.9333 15.1029 14.9116 15.0464 14.8712L7.66667 9.6H5.53333L-3 14.9333V13.8667L4.46667 8.53333V6.4Z"/>
</mask>
<path fill-rule="evenodd" clip-rule="evenodd" d="M4.46667 6.4L-3 0H-1.93333L5.53333 5.33333H7.66667L16.2 0V0.895127C16.2 1.00278 16.148 1.1038 16.0604 1.16637L8.73333 6.4V8.53333L15.5158 14.3469C15.7508 14.5483 15.6084 14.9333 15.2989 14.9333H15.2402C15.1707 14.9333 15.1029 14.9116 15.0464 14.8712L7.66667 9.6H5.53333L-3 14.9333V13.8667L4.46667 8.53333V6.4Z" fill="#CC142B"/>
<path fill-rule="evenodd" clip-rule="evenodd" d="M4.46667 6.4L-3 0H-1.93333L5.53333 5.33333H7.66667L16.2 0V0.895127C16.2 1.00278 16.148 1.1038 16.0604 1.16637L8.73333 6.4V8.53333L15.5158 14.3469C15.7508 14.5483 15.6084 14.9333 15.2989 14.9333H15.2402C15.1707 14.9333 15.1029 14.9116 15.0464 14.8712L7.66667 9.6H5.53333L-3 14.9333V13.8667L4.46667 8.53333V6.4Z" stroke="white" stroke-width="1.33333" mask="url(#path-3-outside-1)"/>
<path fill-rule="evenodd" clip-rule="evenodd" d="M-3 5.33333V9.6H4.46667V15.3333C4.46667 15.7015 4.76514 16 5.13333 16H8.06667C8.43486 16 8.73333 15.7015 8.73333 15.3333V9.6H16.6C16.9682 9.6 17.2667 9.30152 17.2667 8.93333V6C17.2667 5.63181 16.9682 5.33333 16.6 5.33333H8.73333V0H4.46667V5.33333H-3Z" fill="white"/>
<path fill-rule="evenodd" clip-rule="evenodd" d="M-3 6.4H5.53333V5.33333V0H7.66667V5.33333V6.4H16.2V8.53333H7.66667V9.6V14.9333H5.53333V9.6V8.53333H-3V6.4Z" fill="#CC142B"/>
<path fill-rule="evenodd" clip-rule="evenodd" d="M26.1333 22.2L24.6248 22.6418L25.0667 21.1333L24.6248 19.6248L26.1333 20.0667L27.6418 19.6248L27.2 21.1333L27.6418 22.6418L26.1333 22.2Z" fill="#CC142B"/>
<path fill-rule="evenodd" clip-rule="evenodd" d="M20.1333 16.2L18.6248 16.6418L19.0667 15.1333L18.6248 13.6248L20.1333 14.0667L21.6418 13.6248L21.2 15.1333L21.6418 16.6418L20.1333 16.2Z" fill="#CC142B"/>
<path fill-rule="evenodd" clip-rule="evenodd" d="M28.1333 14.2L26.6248 14.6418L27.0667 13.1333L26.6248 11.6248L28.1333 12.0667L29.6418 11.6248L29.2 13.1333L29.6418 14.6418L28.1333 14.2Z" fill="#CC142B"/>
<path fill-rule="evenodd" clip-rule="evenodd" d="M23.1333 8.2L21.6248 8.64183L22.0667 7.13333L21.6248 5.62484L23.1333 6.06667L24.6418 5.62484L24.2 7.13333L24.6418 8.64183L23.1333 8.2Z" fill="#CC142B"/>
</g>
</svg>
