<svg width="32" height="32" viewBox="0 0 32 32" fill="none" xmlns="http://www.w3.org/2000/svg">
<mask id="path-1-inside-1" fill="white">
<path d="M16 32C24.8366 32 32 24.8366 32 16C32 7.16344 24.8366 0 16 0C7.16344 0 0 7.16344 0 16C0 24.8366 7.16344 32 16 32Z"/>
</mask>
<path d="M16 32C24.8366 32 32 24.8366 32 16C32 7.16344 24.8366 0 16 0C7.16344 0 0 7.16344 0 16C0 24.8366 7.16344 32 16 32Z" fill="white" stroke="#F8F8F8" mask="url(#path-1-inside-1)"/>
<mask id="mask0" mask-type="alpha" maskUnits="userSpaceOnUse" x="0" y="0" width="32" height="32">
<mask id="path-2-inside-2" mask-type="luminance" fill="white">
<path d="M16 32C24.8366 32 32 24.8366 32 16C32 7.16344 24.8366 0 16 0C7.16344 0 0 7.16344 0 16C0 24.8366 7.16344 32 16 32Z"/>
</mask>
<path d="M16 32C24.8366 32 32 24.8366 32 16C32 7.16344 24.8366 0 16 0C7.16344 0 0 7.16344 0 16C0 24.8366 7.16344 32 16 32Z" fill="white" stroke="white" mask="url(#path-2-inside-2)"/>
</mask>
<g mask="url(#mask0)">
<rect x="8" width="24" height="32" fill="#076745"/>
<path fill-rule="evenodd" clip-rule="evenodd" d="M28.2191 16.6453C28.0488 18.4057 27.308 20.0937 25.9888 21.4129C22.8444 24.5573 17.6044 24.4154 14.2849 21.0959C10.9655 17.7765 10.8236 12.5365 13.968 9.39206C15.2872 8.07287 16.9752 7.3321 18.7355 7.16173C18.1826 7.48543 17.6599 7.88579 17.1832 8.36242C14.3247 11.221 14.2091 15.74 16.925 18.4559C19.6409 21.1718 24.1599 21.0562 27.0184 18.1976C27.4951 17.721 27.8954 17.1982 28.2191 16.6453ZM24.2095 12.8281L23.8265 15.5042L22.507 13.056L19.822 13.3904L21.6826 11.4942L20.4063 9.02485L22.8756 10.3012L24.7718 8.44061L24.4374 11.1256L26.8856 12.445L24.2095 12.8281Z" fill="white"/>
</g>
</svg>
