<svg width="32" height="32" viewBox="0 0 32 32" fill="none" xmlns="http://www.w3.org/2000/svg">
<mask id="path-1-inside-1" fill="white">
<path d="M16 32C24.8366 32 32 24.8366 32 16C32 7.16344 24.8366 0 16 0C7.16344 0 0 7.16344 0 16C0 24.8366 7.16344 32 16 32Z"/>
</mask>
<path d="M16 32C24.8366 32 32 24.8366 32 16C32 7.16344 24.8366 0 16 0C7.16344 0 0 7.16344 0 16C0 24.8366 7.16344 32 16 32Z" fill="white" stroke="#F8F8F8" mask="url(#path-1-inside-1)"/>
<mask id="mask0" mask-type="alpha" maskUnits="userSpaceOnUse" x="0" y="0" width="32" height="32">
<mask id="path-2-inside-2" mask-type="luminance" fill="white">
<path d="M16 32C24.8366 32 32 24.8366 32 16C32 7.16344 24.8366 0 16 0C7.16344 0 0 7.16344 0 16C0 24.8366 7.16344 32 16 32Z"/>
</mask>
<path d="M16 32C24.8366 32 32 24.8366 32 16C32 7.16344 24.8366 0 16 0C7.16344 0 0 7.16344 0 16C0 24.8366 7.16344 32 16 32Z" fill="white" stroke="white" mask="url(#path-2-inside-2)"/>
</mask>
<g mask="url(#mask0)">
<path fill-rule="evenodd" clip-rule="evenodd" d="M0 21.3333H32V10.6667H0V21.3333Z" fill="#0C4070"/>
<mask id="path-4-inside-3" fill="white">
<path fill-rule="evenodd" clip-rule="evenodd" d="M0 10.6667H32V0H0V10.6667Z"/>
</mask>
<path fill-rule="evenodd" clip-rule="evenodd" d="M0 10.6667H32V0H0V10.6667Z" fill="#CE1126" stroke="#DF0019" stroke-width="2.66667" mask="url(#path-4-inside-3)"/>
</g>
<mask id="path-5-inside-4" fill="white">
<path fill-rule="evenodd" clip-rule="evenodd" d="M3.59998 16C3.59998 14.8766 4.25148 12.2516 4.53615 11.1582C4.61184 10.8675 4.87493 10.6667 5.17531 10.6667H10.5592C10.859 10.6667 11.1217 10.8668 11.1978 11.1568C11.4828 12.2438 12.1333 14.8506 12.1333 16C12.1333 17.2324 11.2776 20.5355 11.0991 21.2115C11.0774 21.2934 11.0412 21.3675 10.988 21.4335C10.6477 21.8554 9.25716 23.4667 7.86664 23.4667C6.47552 23.4667 5.08439 21.854 4.74489 21.4329C4.692 21.3673 4.65585 21.2937 4.63417 21.2123C4.45547 20.5413 3.59998 17.2629 3.59998 16Z"/>
</mask>
<path fill-rule="evenodd" clip-rule="evenodd" d="M3.59998 16C3.59998 14.8766 4.25148 12.2516 4.53615 11.1582C4.61184 10.8675 4.87493 10.6667 5.17531 10.6667H10.5592C10.859 10.6667 11.1217 10.8668 11.1978 11.1568C11.4828 12.2438 12.1333 14.8506 12.1333 16C12.1333 17.2324 11.2776 20.5355 11.0991 21.2115C11.0774 21.2934 11.0412 21.3675 10.988 21.4335C10.6477 21.8554 9.25716 23.4667 7.86664 23.4667C6.47552 23.4667 5.08439 21.854 4.74489 21.4329C4.692 21.3673 4.65585 21.2937 4.63417 21.2123C4.45547 20.5413 3.59998 17.2629 3.59998 16Z" fill="white" stroke="#EBEBEB" mask="url(#path-5-inside-4)"/>
<mask id="mask1" mask-type="alpha" maskUnits="userSpaceOnUse" x="3" y="10" width="10" height="14">
<mask id="path-6-inside-5" mask-type="luminance" fill="white">
<path fill-rule="evenodd" clip-rule="evenodd" d="M3.59998 16C3.59998 14.8766 4.25148 12.2516 4.53615 11.1582C4.61184 10.8675 4.87493 10.6667 5.17531 10.6667H10.5592C10.859 10.6667 11.1217 10.8668 11.1978 11.1568C11.4828 12.2438 12.1333 14.8506 12.1333 16C12.1333 17.2324 11.2776 20.5355 11.0991 21.2115C11.0774 21.2934 11.0412 21.3675 10.988 21.4335C10.6477 21.8554 9.25716 23.4667 7.86664 23.4667C6.47552 23.4667 5.08439 21.854 4.74489 21.4329C4.692 21.3673 4.65585 21.2937 4.63417 21.2123C4.45547 20.5413 3.59998 17.2629 3.59998 16Z"/>
</mask>
<path fill-rule="evenodd" clip-rule="evenodd" d="M3.59998 16C3.59998 14.8766 4.25148 12.2516 4.53615 11.1582C4.61184 10.8675 4.87493 10.6667 5.17531 10.6667H10.5592C10.859 10.6667 11.1217 10.8668 11.1978 11.1568C11.4828 12.2438 12.1333 14.8506 12.1333 16C12.1333 17.2324 11.2776 20.5355 11.0991 21.2115C11.0774 21.2934 11.0412 21.3675 10.988 21.4335C10.6477 21.8554 9.25716 23.4667 7.86664 23.4667C6.47552 23.4667 5.08439 21.854 4.74489 21.4329C4.692 21.3673 4.65585 21.2937 4.63417 21.2123C4.45547 20.5413 3.59998 17.2629 3.59998 16Z" fill="white" stroke="white" mask="url(#path-6-inside-5)"/>
</mask>
<g mask="url(#mask1)">
<path fill-rule="evenodd" clip-rule="evenodd" d="M12.6539 12.1498L13.0704 11.6292L12.0292 10.7963L11.6128 11.3169L7.86667 15.9995L4.12059 11.3169L3.70412 10.7963L2.66296 11.6292L3.07943 12.1498L7.01292 17.0667L3.07943 21.9835L2.66296 22.5041L3.70412 23.337L4.12059 22.8165L7.86667 18.1339L11.6128 22.8165L12.0292 23.337L13.0704 22.5041L12.6539 21.9835L8.72042 17.0667L12.6539 12.1498Z" fill="#CE1126"/>
<path d="M13.0704 11.6292L13.591 12.0457L14.0074 11.5251L13.4868 11.1086L13.0704 11.6292ZM12.6539 12.1498L13.1745 12.5663V12.5663L12.6539 12.1498ZM12.0292 10.7963L12.4457 10.2757L11.9251 9.85925L11.5086 10.3798L12.0292 10.7963ZM11.6128 11.3169L11.0922 10.9004V10.9004L11.6128 11.3169ZM7.86667 15.9995L7.34609 16.4159L7.86667 17.0667L8.38725 16.4159L7.86667 15.9995ZM4.12059 11.3169L4.64116 10.9004L4.64116 10.9004L4.12059 11.3169ZM3.70412 10.7963L4.2247 10.3798L3.80824 9.85925L3.28766 10.2757L3.70412 10.7963ZM2.66296 11.6292L2.2465 11.1086L1.72592 11.5251L2.14238 12.0457L2.66296 11.6292ZM3.07943 12.1498L2.55885 12.5663L2.55885 12.5663L3.07943 12.1498ZM7.01292 17.0667L7.5335 17.4831L7.86667 17.0667L7.5335 16.6502L7.01292 17.0667ZM3.07943 21.9835L2.55885 21.5671L2.55885 21.5671L3.07943 21.9835ZM2.66296 22.5041L2.14238 22.0877L1.72592 22.6082L2.2465 23.0247L2.66296 22.5041ZM3.70412 23.337L3.28766 23.8576L3.80824 24.2741L4.2247 23.7535L3.70412 23.337ZM4.12059 22.8165L4.64116 23.2329H4.64116L4.12059 22.8165ZM7.86667 18.1339L8.38725 17.7174L7.86667 17.0667L7.34609 17.7174L7.86667 18.1339ZM11.6128 22.8165L11.0922 23.2329H11.0922L11.6128 22.8165ZM12.0292 23.337L11.5086 23.7535L11.9251 24.2741L12.4457 23.8576L12.0292 23.337ZM13.0704 22.5041L13.4868 23.0247L14.0074 22.6082L13.591 22.0877L13.0704 22.5041ZM12.6539 21.9835L13.1745 21.5671V21.5671L12.6539 21.9835ZM8.72042 17.0667L8.19984 16.6502L7.86667 17.0667L8.19984 17.4831L8.72042 17.0667ZM12.5498 11.2128L12.1333 11.7333L13.1745 12.5663L13.591 12.0457L12.5498 11.2128ZM11.6128 11.3169L12.6539 12.1498L13.4868 11.1086L12.4457 10.2757L11.6128 11.3169ZM12.1333 11.7333L12.5498 11.2128L11.5086 10.3798L11.0922 10.9004L12.1333 11.7333ZM8.38725 16.4159L12.1333 11.7333L11.0922 10.9004L7.34609 15.583L8.38725 16.4159ZM8.38725 15.583L4.64116 10.9004L3.60001 11.7333L7.34609 16.4159L8.38725 15.583ZM4.64116 10.9004L4.2247 10.3798L3.18354 11.2128L3.60001 11.7333L4.64116 10.9004ZM3.28766 10.2757L2.2465 11.1086L3.07943 12.1498L4.12059 11.3169L3.28766 10.2757ZM2.14238 12.0457L2.55885 12.5663L3.60001 11.7333L3.18354 11.2128L2.14238 12.0457ZM2.55885 12.5663L6.49234 17.4831L7.5335 16.6502L3.60001 11.7333L2.55885 12.5663ZM3.60001 22.4L7.5335 17.4831L6.49234 16.6502L2.55885 21.5671L3.60001 22.4ZM3.18354 22.9206L3.60001 22.4L2.55885 21.5671L2.14238 22.0877L3.18354 22.9206ZM4.12059 22.8165L3.07943 21.9835L2.2465 23.0247L3.28766 23.8576L4.12059 22.8165ZM3.60001 22.4L3.18354 22.9206L4.2247 23.7535L4.64116 23.2329L3.60001 22.4ZM7.34609 17.7174L3.60001 22.4L4.64116 23.2329L8.38725 18.5503L7.34609 17.7174ZM7.34609 18.5503L11.0922 23.2329L12.1333 22.4L8.38725 17.7174L7.34609 18.5503ZM11.0922 23.2329L11.5086 23.7535L12.5498 22.9206L12.1333 22.4L11.0922 23.2329ZM12.4457 23.8576L13.4868 23.0247L12.6539 21.9835L11.6128 22.8165L12.4457 23.8576ZM13.591 22.0877L13.1745 21.5671L12.1333 22.4L12.5498 22.9206L13.591 22.0877ZM13.1745 21.5671L9.241 16.6502L8.19984 17.4831L12.1333 22.4L13.1745 21.5671ZM12.1333 11.7333L8.19984 16.6502L9.241 17.4831L13.1745 12.5663L12.1333 11.7333Z" fill="#DF0019"/>
</g>
</svg>
