<svg width="32" height="32" viewBox="0 0 32 32" fill="none" xmlns="http://www.w3.org/2000/svg">
<mask id="path-1-inside-1" fill="white">
<path d="M16 32C24.8366 32 32 24.8366 32 16C32 7.16344 24.8366 0 16 0C7.16344 0 0 7.16344 0 16C0 24.8366 7.16344 32 16 32Z"/>
</mask>
<path d="M16 32C24.8366 32 32 24.8366 32 16C32 7.16344 24.8366 0 16 0C7.16344 0 0 7.16344 0 16C0 24.8366 7.16344 32 16 32Z" fill="white" stroke="#F8F8F8" mask="url(#path-1-inside-1)"/>
<mask id="mask0" mask-type="alpha" maskUnits="userSpaceOnUse" x="0" y="0" width="32" height="32">
<path d="M16 32C24.8366 32 32 24.8366 32 16C32 7.16344 24.8366 0 16 0C7.16344 0 0 7.16344 0 16C0 24.8366 7.16344 32 16 32Z" fill="white"/>
</mask>
<g mask="url(#mask0)">
<path d="M16 31.75C24.6985 31.75 31.75 24.6985 31.75 16C31.75 7.30152 24.6985 0.25 16 0.25C7.30152 0.25 0.25 7.30152 0.25 16C0.25 24.6985 7.30152 31.75 16 31.75Z" stroke="#F8F8F8" stroke-width="0.5"/>
<path fill-rule="evenodd" clip-rule="evenodd" d="M16.2 0H32.0747V2.13333H16.2V0ZM16.2 4.26667H32.0747V6.4H16.2V4.26667ZM16.2 8.53333H32.0747V10.6667H16.2V8.53333ZM16.2 12.8H32.0747V14.9333H16.2V12.8ZM-0.101318 17.0667H32.0747V19.2H-0.101318V17.0667ZM-0.101318 21.3333H32.0747V23.4667H-0.101318V21.3333ZM-0.101318 25.6H32.0747V27.7333H-0.101318V25.6ZM-0.101318 29.8667H32.0747V32H-0.101318V29.8667Z" fill="#CF142B"/>
<path fill-rule="evenodd" clip-rule="evenodd" d="M-3 0H16.2V14.9333H-3V0ZM9.36667 4.53333C9.95577 4.53333 10.4333 4.05577 10.4333 3.46667C10.4333 2.87756 9.95577 2.4 9.36667 2.4C8.77756 2.4 8.3 2.87756 8.3 3.46667C8.3 4.05577 8.77756 4.53333 9.36667 4.53333ZM13.6333 4.53333C14.2224 4.53333 14.7 4.05577 14.7 3.46667C14.7 2.87756 14.2224 2.4 13.6333 2.4C13.0442 2.4 12.5667 2.87756 12.5667 3.46667C12.5667 4.05577 13.0442 4.53333 13.6333 4.53333ZM7.23333 6.66667C7.82244 6.66667 8.3 6.1891 8.3 5.6C8.3 5.0109 7.82244 4.53333 7.23333 4.53333C6.64423 4.53333 6.16667 5.0109 6.16667 5.6C6.16667 6.1891 6.64423 6.66667 7.23333 6.66667ZM11.5 6.66667C12.0891 6.66667 12.5667 6.1891 12.5667 5.6C12.5667 5.0109 12.0891 4.53333 11.5 4.53333C10.9109 4.53333 10.4333 5.0109 10.4333 5.6C10.4333 6.1891 10.9109 6.66667 11.5 6.66667ZM5.1 8.8C5.6891 8.8 6.16667 8.32244 6.16667 7.73333C6.16667 7.14423 5.6891 6.66667 5.1 6.66667C4.5109 6.66667 4.03333 7.14423 4.03333 7.73333C4.03333 8.32244 4.5109 8.8 5.1 8.8ZM9.36667 8.8C9.95577 8.8 10.4333 8.32244 10.4333 7.73333C10.4333 7.14423 9.95577 6.66667 9.36667 6.66667C8.77756 6.66667 8.3 7.14423 8.3 7.73333C8.3 8.32244 8.77756 8.8 9.36667 8.8ZM13.6333 8.8C14.2224 8.8 14.7 8.32244 14.7 7.73333C14.7 7.14423 14.2224 6.66667 13.6333 6.66667C13.0442 6.66667 12.5667 7.14423 12.5667 7.73333C12.5667 8.32244 13.0442 8.8 13.6333 8.8ZM2.96667 10.9333C3.55577 10.9333 4.03333 10.4558 4.03333 9.86667C4.03333 9.27756 3.55577 8.8 2.96667 8.8C2.37756 8.8 1.9 9.27756 1.9 9.86667C1.9 10.4558 2.37756 10.9333 2.96667 10.9333ZM7.23333 10.9333C7.82244 10.9333 8.3 10.4558 8.3 9.86667C8.3 9.27756 7.82244 8.8 7.23333 8.8C6.64423 8.8 6.16667 9.27756 6.16667 9.86667C6.16667 10.4558 6.64423 10.9333 7.23333 10.9333ZM11.5 10.9333C12.0891 10.9333 12.5667 10.4558 12.5667 9.86667C12.5667 9.27756 12.0891 8.8 11.5 8.8C10.9109 8.8 10.4333 9.27756 10.4333 9.86667C10.4333 10.4558 10.9109 10.9333 11.5 10.9333ZM5.1 13.0667C5.6891 13.0667 6.16667 12.5891 6.16667 12C6.16667 11.4109 5.6891 10.9333 5.1 10.9333C4.5109 10.9333 4.03333 11.4109 4.03333 12C4.03333 12.5891 4.5109 13.0667 5.1 13.0667ZM9.36667 13.0667C9.95577 13.0667 10.4333 12.5891 10.4333 12C10.4333 11.4109 9.95577 10.9333 9.36667 10.9333C8.77756 10.9333 8.3 11.4109 8.3 12C8.3 12.5891 8.77756 13.0667 9.36667 13.0667ZM13.6333 13.0667C14.2224 13.0667 14.7 12.5891 14.7 12C14.7 11.4109 14.2224 10.9333 13.6333 10.9333C13.0442 10.9333 12.5667 11.4109 12.5667 12C12.5667 12.5891 13.0442 13.0667 13.6333 13.0667Z" fill="#00247D"/>
</g>
</svg>
