<svg xmlns="http://www.w3.org/2000/svg" viewBox="0 0 295 168.1">
    <path d="M268.25,160.25V168h2.66c2.3,0,3.66-1.43,3.66-3.88s-1.36-3.87-3.66-3.87Zm1,.87h1.63c1.72,0,2.73,1.12,2.73,3s-1,3-2.73,3h-1.63Zm9.22,1.8a1.56,1.56,0,0,1,1.55,1.71H276.8A1.65,1.65,0,0,1,278.44,162.92ZM280,166.5a1.5,1.5,0,0,1-1.49.79c-1,0-1.62-.73-1.67-1.87v0H281V165c0-1.8-.95-2.91-2.51-2.91s-2.61,1.18-2.61,3,1,3,2.61,3a2.32,2.32,0,0,0,2.44-1.6Zm5.33,1.6c1.47,0,2.43-1.18,2.43-3s-1-3-2.43-3a2,2,0,0,0-1.82,1h-.08v-3.21h-.93V168h.89v-.92h.08a2.08,2.08,0,0,0,1.86,1Zm-.22-5.16c1.06,0,1.69.81,1.69,2.16s-.63,2.17-1.69,2.17-1.7-.83-1.7-2.17S284,162.94,285.07,162.94Zm4.12,5.06h.92v-5.79h-.92Zm.46-7a.65.65,0,1,0-.64-.64A.65.65,0,0,0,289.65,161Zm2.61-.32v1.5h-.93V163h.93v3.52c0,1.1.48,1.54,1.67,1.54a3.29,3.29,0,0,0,.54,0v-.78a3.1,3.1,0,0,1-.43,0c-.6,0-.85-.29-.85-1V163h1.28v-.77h-1.28v-1.5Z" style="fill:#fff"/>
    <path d="M264.1,139c0,3.07,2.57,4.78,4.52,5.8s2.7,1.71,2.69,2.64c0,1.43-1.61,2.06-3.1,2.08a10.19,10.19,0,0,1-5.31-1.34l-.93,4.66a14.68,14.68,0,0,0,5.75,1.13c5.43,0,9-2.85,9-7.28,0-5.61-7.3-5.93-7.25-8.44,0-.76.7-1.57,2.2-1.78a9.2,9.2,0,0,1,5.09,1l.91-4.52a13.13,13.13,0,0,0-4.83-.94c-5.12,0-8.71,2.89-8.74,7Zm22.31-6.64a2.35,2.35,0,0,0-2.2,1.56l-7.76,19.72h5.43l1.08-3.18h6.63l.63,3.18H295l-4.17-21.28Zm.76,5.75,1.57,8h-4.29Zm-29.65-5.75-4.28,21.28h5.17l4.28-21.28Zm-7.65,0-5.38,14.48-2.18-12.31a2.46,2.46,0,0,0-2.39-2.17h-8.8L231,133a20.24,20.24,0,0,1,5.1,1.81,2.32,2.32,0,0,1,1.23,1.87l4.12,17h5.47l8.38-21.28Z" style="fill:#fff;fill-rule:evenodd"/>
    <path d="M7.75,154.38l.64-1.15L5.91,152l2.48-1.27-.63-1.14-2.38,1.49.1-2.8H4.21l.1,2.79-2.4-1.48-.6,1.14L3.76,152,1.3,153.22l.6,1.17,2.41-1.51-.11,2.81H5.48l-.1-2.81Zm9.65,0,.64-1.15L15.56,152,18,150.71l-.63-1.14L15,151.06l.1-2.8H13.86l.1,2.79-2.4-1.48-.6,1.14L13.41,152,11,153.22l.6,1.17L14,152.88l-.11,2.81h1.28l-.1-2.81Zm9.65,0,.64-1.15L25.21,152l2.48-1.27-.63-1.14-2.38,1.49.1-2.8H23.51l.09,2.79-2.39-1.48-.6,1.14L23.06,152l-2.46,1.25.6,1.17,2.4-1.51-.1,2.81h1.28l-.1-2.81Zm9.65,0,.63-1.15L34.85,152l2.48-1.27-.62-1.14-2.38,1.49.09-2.8H33.15l.1,2.79-2.39-1.48-.61,1.14L32.71,152l-2.47,1.25.61,1.17,2.4-1.51-.11,2.81h1.28l-.09-2.81ZM47.43,163h1.7V148.91H47.41l-3.75,2.69v1.86l3.73-2.69h0Zm8.15-6.5h1.76c2,0,3.26,1,3.26,2.68,0,1.48-1.33,2.53-3.2,2.53s-3.09-1-3.25-2.44H52.46c.13,2.33,2,4,5,4,2.77,0,5-1.68,5-4.11a3.36,3.36,0,0,0-3.49-3.42v0a3.3,3.3,0,0,0,2.89-3.35c0-2.12-1.91-3.64-4.43-3.64s-4.42,1.54-4.62,3.93h1.69a2.63,2.63,0,0,1,2.86-2.4c1.78,0,2.73,1,2.73,2.34A2.52,2.52,0,0,1,57.27,155H55.58Zm13.8,6.73a4.72,4.72,0,0,0,5-4.81,4.53,4.53,0,0,0-4.65-4.72,3.9,3.9,0,0,0-3.16,1.36h0l.43-4.59H73.6v-1.56H65.54l-.77,7.89h1.65a3.37,3.37,0,0,1,3-1.58,3.24,3.24,0,1,1,0,6.47,2.92,2.92,0,0,1-3.12-2.54H64.55c.15,2.41,2.14,4.08,4.83,4.08Zm11.7,0c3,0,5.12-1.67,5.12-4a3.73,3.73,0,0,0-3-3.62v0a3.27,3.27,0,0,0,2.46-3.14c0-2.15-1.9-3.72-4.54-3.72s-4.55,1.58-4.55,3.71A3.28,3.28,0,0,0,79,155.53v0a3.72,3.72,0,0,0-3,3.62c0,2.36,2.12,4,5.1,4Zm0-1.53c-1.93,0-3.32-1.1-3.32-2.64s1.39-2.64,3.32-2.64,3.32,1.09,3.32,2.64S83,161.7,81.08,161.7Zm0-6.82c-1.65,0-2.8-1-2.8-2.34s1.15-2.35,2.8-2.35,2.81,1,2.81,2.35S82.72,154.88,81.08,154.88Z" style="fill:#fff"/>
    <path d="M1.86,138v-1.7l.56-.66L4.06,138H5.47l-2.2-3.16,2.06-2.48H4l-2.09,2.51H1.86v-2.51H.68V138Zm6.59-5.78a3,3,0,0,0,0,5.92,3,3,0,0,0,0-5.92Zm0,1c.92,0,1.51.75,1.51,1.93s-.59,1.93-1.51,1.93S7,136.36,7,135.18,7.54,133.25,8.45,133.25Zm5,.07h1a.84.84,0,0,1,.95.87.82.82,0,0,1-.94.86h-1Zm0,2.64h1l1.05,2h1.34l-1.19-2.23a1.65,1.65,0,0,0,1-1.6,1.77,1.77,0,0,0-2-1.81H12.28V138h1.18Zm6.92,2v-4.63h1.69v-1H17.51v1H19.2V138Zm3.86,0v-3.53h.07l2.6,3.53h1v-5.64H26.76v3.52h-.07l-2.59-3.52h-1V138Zm6.21-5.64H29.27v3.7a2.1,2.1,0,0,0,2.36,2.09A2.11,2.11,0,0,0,34,136.06v-3.7H32.82v3.57a1.19,1.19,0,0,1-2.37,0ZM41.34,138v-5.64H40l-1.56,3.79h-.07l-1.56-3.79H35.37V138h1.09v-3.77h.07L38,137.68h.79l1.43-3.45h.07V138Zm7.34,0v-5.64H47.29l-1.56,3.79h-.07l-1.56-3.79H42.71V138H43.8v-3.77h.06l1.44,3.45h.79l1.43-3.45h.06V138Zm5.1-1H51.22v-1.37h2.41v-.93H51.22v-1.32h2.56v-1H50V138h3.74Zm2.42-3.67h1a.85.85,0,0,1,1,.87.83.83,0,0,1-1,.86h-1Zm0,2.64h1l1.05,2h1.34l-1.19-2.23a1.66,1.66,0,0,0,1-1.6,1.77,1.77,0,0,0-2-1.81H55V138H56.2Z" style="fill:#fff;opacity:.5;isolation:isolate"/>
    <path d="M8.74,7.75a8.85,8.85,0,0,0-3.21-.58h-5A.55.55,0,0,0,0,7.71V24.29a.55.55,0,0,0,.55.54h5a8.85,8.85,0,0,0,3.21-.58,7.14,7.14,0,0,0,2.89-2.05,9.55,9.55,0,0,0,2-6.09,10.19,10.19,0,0,0-2-6.31A7.14,7.14,0,0,0,8.74,7.75ZM5.53,23.17H1.71V8.83H5.53a6.08,6.08,0,0,1,4.78,2,8.7,8.7,0,0,1,1.63,5.27,8,8,0,0,1-1.63,5.05A6.08,6.08,0,0,1,5.53,23.17Zm30.3-6.84v6.86h4.78c4.7,0,4.7-2.72,4.7-3.62,0-1.86-1.66-3.24-4-3.24Zm0-7.52h4a5.71,5.71,0,0,1,3.16.7,2.49,2.49,0,0,1,1,2.34,2.61,2.61,0,0,1-2.79,2.84H35.83Zm8.51,6.56-.09,0,.07-.06a4.25,4.25,0,0,0,1.43-3.41A4.16,4.16,0,0,0,44,8.17a7.22,7.22,0,0,0-4.14-1h-5.2a.54.54,0,0,0-.54.53V24.3a.54.54,0,0,0,.54.53h5.94a7.7,7.7,0,0,0,4.45-1.15A4.51,4.51,0,0,0,46.5,22a5.63,5.63,0,0,0,.5-2.42A4.59,4.59,0,0,0,45.29,16a5.45,5.45,0,0,0-.95-.6ZM30.14,0V24.33a.5.5,0,0,1-.35.48.44.44,0,0,1-.46-.18L18.2,11V32H16.49V7.71a.51.51,0,0,1,.36-.47.45.45,0,0,1,.16,0,.53.53,0,0,1,.42.21L28.44,21V0Z" style="fill:#fff;fill-rule:evenodd"/>
</svg>
