<svg width="60" height="41" viewBox="0 0 60 41" fill="none" xmlns="http://www.w3.org/2000/svg">
   <path d="M11.4117 14.6611L2 21.1988L11.4117 27.7365" stroke="#A5E1D2" stroke-width="2.35293" stroke-linecap="round" stroke-linejoin="round"/>
   <path d="M49.0585 27.7349L58.4702 21.1972L49.0585 14.6595" stroke="#A5E1D2" stroke-width="2.35293" stroke-linecap="round" stroke-linejoin="round"/>
   <path d="M26.9261 27.1171L29.491 21.2966" stroke="#A5E1D2" stroke-width="2.35293" stroke-linecap="round" stroke-linejoin="round"/>
   <path d="M29.491 21.2968C30.6615 21.8233 32.0389 21.2778 32.5674 20.0784C33.096 18.8789 32.5756 17.4797 31.405 16.9532C30.2345 16.4266 28.8572 16.9721 28.3286 18.1716C27.8001 19.371 28.3205 20.7702 29.491 21.2968Z" stroke="#A5E1D2" stroke-width="2.35293" stroke-linecap="round" stroke-linejoin="round"/>
   <path d="M22.6716 36.914C24.2098 36.3048 38.9589 23.823 38.9589 23.823C39.4326 23.3539 39.8046 22.7888 40.0503 22.1649C40.296 21.5411 40.41 20.8726 40.3846 20.2035L39.4021 13.2123L28.8051 8.44526L23.0055 12.3855C22.4964 12.8142 22.0809 13.347 21.7865 13.949C21.4921 14.551 21.3253 15.2084 21.2972 15.8779C21.2972 15.8779 22.0904 35.3514 22.6716 36.914Z" stroke="#A5E1D2" stroke-width="2.35293" stroke-linecap="round" stroke-linejoin="round"/>
   <path d="M39.4025 13.2122L28.8055 8.44513L29.0706 2.8913C29.0116 2.67478 29.0144 2.44495 29.0788 2.22872C29.1433 2.0125 29.2666 1.81882 29.4343 1.67037C29.602 1.52192 29.8073 1.42485 30.026 1.39052C30.2447 1.35619 30.4678 1.38602 30.6692 1.47653L43.3856 7.19696C43.5869 7.28762 43.7581 7.43518 43.8792 7.62236C44.0003 7.80954 44.0662 8.0286 44.0693 8.25387C44.0723 8.47915 44.0124 8.70133 43.8965 8.89438C43.7805 9.08744 43.6134 9.24338 43.4147 9.34395L39.4025 13.2122Z" stroke="#A5E1D2" stroke-width="2.35293" stroke-linecap="round" stroke-linejoin="round"/>
</svg>
