<svg width="64" height="41" viewBox="0 0 64 41" fill="none" xmlns="http://www.w3.org/2000/svg">
<path fill-rule="evenodd" clip-rule="evenodd" d="M23.5884 38.7211C23.6306 38.033 24.2441 37.5081 24.9586 37.5491C25.673 37.5897 26.2183 38.1798 26.1762 38.8679C26.1363 39.5245 25.5725 40.0386 24.889 40.0421C24.1782 40.0555 23.5907 39.5115 23.5772 38.8277C23.5763 38.7919 23.5772 38.7565 23.5795 38.7211H23.5884ZM27.0597 38.7211V36.6577H26.1269V37.1584C25.8053 36.7604 25.3048 36.5355 24.7814 36.5536C23.5431 36.5536 22.539 37.5206 22.539 38.7121C22.539 39.9044 23.5431 40.8705 24.7814 40.8705C25.3048 40.889 25.8053 40.6646 26.1269 40.2666V40.7669H27.0597V38.7211ZM58.5567 38.7211C58.5988 38.033 59.2123 37.5081 59.9268 37.5491C60.6412 37.5897 61.1866 38.1798 61.1444 38.8679C61.104 39.5245 60.5412 40.0386 59.8573 40.0421C59.1464 40.0507 58.5629 39.5033 58.554 38.8191C58.5535 38.7859 58.5544 38.7535 58.5567 38.7211ZM63.49 40.4738V40.5774H63.5886C63.6061 40.5825 63.625 40.5825 63.6429 40.5774C63.6487 40.5648 63.6487 40.5506 63.6429 40.5385C63.6487 40.5264 63.6487 40.5118 63.6429 40.4997C63.625 40.4945 63.6061 40.4945 63.5886 40.4997L63.49 40.4738ZM63.5886 40.4004C63.6303 40.3982 63.6716 40.4103 63.7052 40.4349C63.7335 40.4569 63.7483 40.491 63.7456 40.5256C63.7469 40.5545 63.7357 40.5825 63.7142 40.6028C63.6882 40.6257 63.655 40.6395 63.62 40.6421L63.7501 40.7841H63.6469L63.5258 40.6421H63.4855V40.7841H63.4007V40.4043L63.5886 40.4004ZM63.5617 40.9141C63.6061 40.9141 63.651 40.9054 63.6918 40.8882C63.7304 40.8713 63.7653 40.848 63.7949 40.8187C63.9111 40.6969 63.9111 40.5096 63.7949 40.387C63.7653 40.3581 63.7304 40.3348 63.6918 40.3184C63.651 40.3011 63.6061 40.2925 63.5617 40.2925C63.5169 40.2929 63.4729 40.3015 63.4317 40.3184C63.3913 40.3339 63.355 40.3576 63.3245 40.387C63.2079 40.5096 63.2079 40.6969 63.3245 40.8187C63.355 40.8489 63.3913 40.8718 63.4317 40.8882C63.477 40.9067 63.5263 40.9158 63.5752 40.9141H63.5617ZM63.5617 40.1845C63.62 40.1837 63.6783 40.194 63.7321 40.2148C63.7837 40.235 63.8308 40.264 63.8712 40.3011C63.9106 40.3382 63.9425 40.3822 63.9654 40.4306C64.0115 40.532 64.0115 40.6482 63.9654 40.75C63.9425 40.7984 63.9106 40.842 63.8712 40.8795C63.8308 40.9162 63.7837 40.9456 63.7321 40.9659C63.6788 40.9888 63.6205 41.0004 63.5617 41C63.3882 40.9987 63.2312 40.9016 63.1581 40.75C63.1128 40.6482 63.1128 40.5325 63.1581 40.4306C63.181 40.3822 63.2132 40.3382 63.2523 40.3011C63.2926 40.264 63.3402 40.235 63.3913 40.2148C63.45 40.1923 63.5128 40.1819 63.5752 40.1845H63.5617ZM62.0055 38.7211V35H61.1085V37.1584C60.787 36.7604 60.2864 36.5355 59.7631 36.5536C58.5244 36.5536 57.5207 37.5206 57.5207 38.7121C57.5207 39.9044 58.5244 40.8705 59.7631 40.8705C60.2864 40.889 60.787 40.6646 61.1085 40.2666V40.7669H62.0055V38.7211ZM38.635 37.357C39.2217 37.3449 39.7078 37.793 39.7204 38.3576V38.3585H37.478C37.5116 37.7818 38.0179 37.3371 38.6171 37.357H38.635ZM38.635 36.5536C37.3968 36.5709 36.407 37.5504 36.424 38.7427C36.4415 39.935 37.4596 40.8878 38.6978 40.8705C39.3432 40.9029 39.9778 40.7026 40.4783 40.3097L40.0298 39.6449C39.6755 39.9182 39.2374 40.0701 38.783 40.0766C38.1422 40.1297 37.5735 39.6821 37.5004 39.0665H40.6846V38.7211C40.6846 37.4261 39.8504 36.5627 38.6485 36.5627L38.635 36.5536ZM49.892 38.7121C49.9341 38.0248 50.5476 37.4999 51.2621 37.5405C51.977 37.5806 52.5219 38.1716 52.4797 38.8588C52.4393 39.5163 51.8761 40.03 51.1926 40.0334C50.4817 40.0421 49.8982 39.4943 49.8897 38.8101C49.8893 38.7777 49.8902 38.7449 49.892 38.7121ZM53.3637 38.7121V36.6577H52.4308V37.1584C52.1093 36.7604 51.6088 36.5355 51.0854 36.5536C49.8467 36.5536 48.843 37.5206 48.843 38.7121C48.843 39.9044 49.8467 40.8705 51.0854 40.8705C51.6088 40.889 52.1093 40.6646 52.4308 40.2666V40.7669H53.3637V38.7121ZM44.6268 38.7121C44.5828 39.8634 45.5166 40.8303 46.7122 40.8726C46.779 40.8748 46.8468 40.8744 46.914 40.8705C47.4742 40.8981 48.0245 40.7228 48.4568 40.3788L48.0083 39.6536C47.6859 39.8901 47.2926 40.0205 46.8871 40.0248C46.1292 39.9657 45.5646 39.3263 45.626 38.5968C45.6803 37.9493 46.2144 37.4351 46.8871 37.3825C47.2926 37.3872 47.6859 37.5172 48.0083 37.7541L48.4568 37.0289C48.0245 36.6849 47.4742 36.5092 46.914 36.5364C45.7197 36.4716 44.6963 37.3505 44.629 38.5001C44.625 38.5653 44.6241 38.63 44.6268 38.6948V38.7121ZM56.6461 36.5536C56.1828 36.5407 55.7491 36.7725 55.5159 37.1584V36.6577H54.5921V40.7841H55.5249V38.4707C55.5249 37.7887 55.8303 37.4088 56.4219 37.4088C56.6214 37.4062 56.8197 37.4412 57.0049 37.5124L57.2919 36.649C57.0789 36.5752 56.8547 36.5372 56.6282 36.5364L56.6461 36.5536ZM31.6611 36.9853C31.1333 36.6831 30.526 36.5338 29.9121 36.5536C28.8267 36.5536 28.1181 37.0548 28.1181 37.875C28.1181 38.5484 28.6384 38.9629 29.5981 39.0919L30.0466 39.1528C30.5579 39.2219 30.8001 39.3514 30.8001 39.5845C30.8001 39.9035 30.4592 40.0852 29.8224 40.0852C29.3102 40.0991 28.8079 39.9475 28.3962 39.6536L27.9477 40.3525C28.4913 40.7181 29.142 40.9059 29.8044 40.8882C31.0422 40.8882 31.7598 40.327 31.7598 39.5409C31.7598 38.7557 31.1947 38.4362 30.2619 38.3067L29.8134 38.2458C29.4098 38.194 29.0868 38.1168 29.0868 37.8405C29.0868 37.5638 29.3918 37.357 29.9031 37.357C30.3758 37.3622 30.8391 37.4839 31.2485 37.711L31.6611 36.9853ZM43.6894 36.5536C43.2262 36.5407 42.7925 36.7725 42.5593 37.1584V36.6577H41.6354V40.7841H42.5682V38.4707C42.5682 37.7887 42.8732 37.4088 43.4652 37.4088C43.6648 37.4062 43.863 37.4412 44.0482 37.5124L44.3353 36.649C44.1222 36.5752 43.898 36.5372 43.6715 36.5364L43.6894 36.5536ZM35.7334 36.6577H34.1996V35.4054H33.2577V36.6577H32.4056V37.4779H33.2757V39.3773C33.2757 40.3352 33.6614 40.9054 34.7646 40.9054C35.1768 40.9063 35.5809 40.7962 35.9307 40.5856L35.6616 39.8176C35.4114 39.9609 35.1275 40.0416 34.8364 40.0507C34.3879 40.0507 34.2175 39.774 34.2175 39.3596V37.4779H35.7423L35.7334 36.6577ZM21.799 40.7841V38.194C21.86 37.3475 21.1962 36.6136 20.3168 36.5549C20.2486 36.5506 20.1804 36.5502 20.1127 36.5536C19.509 36.5161 18.9318 36.7971 18.6058 37.2879C18.3089 36.8118 17.7653 36.5303 17.1886 36.5536C16.6867 36.5295 16.2091 36.763 15.9328 37.1666V36.6577H15V40.7841H15.9418V38.5139C15.8669 37.9847 16.2517 37.4973 16.8011 37.4248C16.8643 37.4166 16.9276 37.414 16.9913 37.417C17.6102 37.417 17.9241 37.806 17.9241 38.5053V40.8014H18.8659V38.5139C18.7937 37.9821 19.1826 37.4943 19.7351 37.4243C19.7952 37.417 19.8553 37.4148 19.9154 37.417C20.5522 37.417 20.8572 37.806 20.8572 38.5053V40.8014L21.799 40.7841Z" fill="#B2B4B3"/>
<path fill-rule="evenodd" clip-rule="evenodd" d="M30.353 29.7687H44.6275V3.25885H30.353V29.7687Z" fill="#858688"/>
<path d="M37.6823 29.3228C30.8028 23.4992 29.7222 13.2506 35.3517 6.11899L35.3517 6.11893C36.0467 5.23887 36.8275 4.43023 37.6827 3.70529C30.8159 -1.24264 21.1895 0.0538169 15.9039 6.74675C13.7052 9.53137 12.5102 12.9701 12.5098 16.5118C12.5098 16.5118 12.5098 16.5118 12.5098 16.5119V16.5163C12.5102 25.2412 19.6152 32.3181 28.3841 32.3177C31.7285 32.3177 34.981 31.2662 37.6823 29.3228Z" fill="#5F5F61" stroke="url(#paint0_linear)" stroke-width="1.01961"/>
<path d="M38.3177 29.3228C45.1972 23.4992 46.2778 13.2506 40.6483 6.11899L40.6483 6.11893C39.9533 5.23887 39.1725 4.43023 38.3173 3.70529C45.1841 -1.24264 54.8105 0.0538169 60.0961 6.74675C62.2948 9.53137 63.4898 12.9701 63.4902 16.5118C63.4902 16.5118 63.4902 16.5118 63.4902 16.5119V16.5163C63.4898 25.2412 56.3848 32.3181 47.6159 32.3177C44.2715 32.3177 41.019 31.2662 38.3177 29.3228Z" fill="#B1B3B2" stroke="url(#paint1_linear)" stroke-width="1.01961"/>
<path fill-rule="evenodd" clip-rule="evenodd" d="M64 26.9929V26H63.7638L63.4875 26.7097L63.2112 26H63V26.9929H63.1711V26.2477L63.4283 26.8935H63.6053L63.8618 26.2477V27L64 26.9929ZM62.6047 27V26.1708H63V26H62V26.1708H62.4281V27H62.6047Z" fill="#B2B4B3"/>
<defs>
<linearGradient id="paint0_linear" x1="58.8051" y1="10.9409" x2="38.4664" y2="38.4628" gradientUnits="userSpaceOnUse">
<stop stop-color="#CACACA"/>
<stop offset="0.20457" stop-color="white"/>
<stop offset="0.377077" stop-color="#CACACA"/>
<stop offset="0.577335" stop-color="#FCFCFC"/>
<stop offset="0.758941" stop-color="#C9C9C9"/>
<stop offset="1" stop-color="#979797"/>
</linearGradient>
<linearGradient id="paint1_linear" x1="17.1949" y1="10.9409" x2="37.5336" y2="38.4628" gradientUnits="userSpaceOnUse">
<stop stop-color="#CACACA"/>
<stop offset="0.20457" stop-color="white"/>
<stop offset="0.377077" stop-color="#CACACA"/>
<stop offset="0.577335" stop-color="#FCFCFC"/>
<stop offset="0.758941" stop-color="#C9C9C9"/>
<stop offset="1" stop-color="#979797"/>
</linearGradient>
</defs>
</svg>
