<svg width="64" height="44" viewBox="0 0 64 44" fill="none" xmlns="http://www.w3.org/2000/svg">
<path fill-rule="evenodd" clip-rule="evenodd" d="M23.5884 41.7211C23.6306 41.033 24.2441 40.5081 24.9586 40.5491C25.673 40.5897 26.2183 41.1798 26.1762 41.8679C26.1363 42.5245 25.5725 43.0386 24.889 43.0421C24.1782 43.0555 23.5907 42.5115 23.5772 41.8277C23.5763 41.7919 23.5772 41.7565 23.5795 41.7211H23.5884ZM27.0597 41.7211V39.6577H26.1269V40.1584C25.8053 39.7604 25.3048 39.5355 24.7814 39.5536C23.5431 39.5536 22.539 40.5206 22.539 41.7121C22.539 42.9044 23.5431 43.8705 24.7814 43.8705C25.3048 43.889 25.8053 43.6646 26.1269 43.2666V43.7669H27.0597V41.7211ZM58.5567 41.7211C58.5988 41.033 59.2123 40.5081 59.9268 40.5491C60.6412 40.5897 61.1866 41.1798 61.1444 41.8679C61.104 42.5245 60.5412 43.0386 59.8573 43.0421C59.1464 43.0507 58.5629 42.5033 58.554 41.8191C58.5535 41.7859 58.5544 41.7535 58.5567 41.7211ZM63.49 43.4738V43.5774H63.5886C63.6061 43.5825 63.625 43.5825 63.6429 43.5774C63.6487 43.5648 63.6487 43.5506 63.6429 43.5385C63.6487 43.5264 63.6487 43.5118 63.6429 43.4997C63.625 43.4945 63.6061 43.4945 63.5886 43.4997L63.49 43.4738ZM63.5886 43.4004C63.6303 43.3982 63.6716 43.4103 63.7052 43.4349C63.7335 43.4569 63.7483 43.491 63.7456 43.5256C63.7469 43.5545 63.7357 43.5825 63.7142 43.6028C63.6882 43.6257 63.655 43.6395 63.62 43.6421L63.7501 43.7841H63.6469L63.5258 43.6421H63.4855V43.7841H63.4007V43.4043L63.5886 43.4004ZM63.5617 43.9141C63.6061 43.9141 63.651 43.9054 63.6918 43.8882C63.7304 43.8713 63.7653 43.848 63.7949 43.8187C63.9111 43.6969 63.9111 43.5096 63.7949 43.387C63.7653 43.3581 63.7304 43.3348 63.6918 43.3184C63.651 43.3011 63.6061 43.2925 63.5617 43.2925C63.5169 43.2929 63.4729 43.3015 63.4317 43.3184C63.3913 43.3339 63.355 43.3576 63.3245 43.387C63.2079 43.5096 63.2079 43.6969 63.3245 43.8187C63.355 43.8489 63.3913 43.8718 63.4317 43.8882C63.477 43.9067 63.5263 43.9158 63.5752 43.9141H63.5617ZM63.5617 43.1845C63.62 43.1837 63.6783 43.194 63.7321 43.2148C63.7837 43.235 63.8308 43.264 63.8712 43.3011C63.9106 43.3382 63.9425 43.3822 63.9654 43.4306C64.0115 43.532 64.0115 43.6482 63.9654 43.75C63.9425 43.7984 63.9106 43.842 63.8712 43.8795C63.8308 43.9162 63.7837 43.9456 63.7321 43.9659C63.6788 43.9888 63.6205 44.0004 63.5617 44C63.3882 43.9987 63.2312 43.9016 63.1581 43.75C63.1128 43.6482 63.1128 43.5325 63.1581 43.4306C63.181 43.3822 63.2132 43.3382 63.2523 43.3011C63.2926 43.264 63.3402 43.235 63.3913 43.2148C63.45 43.1923 63.5128 43.1819 63.5752 43.1845H63.5617ZM62.0055 41.7211V38H61.1085V40.1584C60.787 39.7604 60.2864 39.5355 59.7631 39.5536C58.5244 39.5536 57.5207 40.5206 57.5207 41.7121C57.5207 42.9044 58.5244 43.8705 59.7631 43.8705C60.2864 43.889 60.787 43.6646 61.1085 43.2666V43.7669H62.0055V41.7211ZM38.635 40.357C39.2217 40.3449 39.7078 40.793 39.7204 41.3576V41.3585H37.478C37.5116 40.7818 38.0179 40.3371 38.6171 40.357H38.635ZM38.635 39.5536C37.3968 39.5709 36.407 40.5504 36.424 41.7427C36.4415 42.935 37.4596 43.8878 38.6978 43.8705C39.3432 43.9029 39.9778 43.7026 40.4783 43.3097L40.0298 42.6449C39.6755 42.9182 39.2374 43.0701 38.783 43.0766C38.1422 43.1297 37.5735 42.6821 37.5004 42.0665H40.6846V41.7211C40.6846 40.4261 39.8504 39.5627 38.6485 39.5627L38.635 39.5536ZM49.892 41.7121C49.9341 41.0248 50.5476 40.4999 51.2621 40.5405C51.977 40.5806 52.5219 41.1716 52.4797 41.8588C52.4393 42.5163 51.8761 43.03 51.1926 43.0334C50.4817 43.0421 49.8982 42.4943 49.8897 41.8101C49.8893 41.7777 49.8902 41.7449 49.892 41.7121ZM53.3637 41.7121V39.6577H52.4308V40.1584C52.1093 39.7604 51.6088 39.5355 51.0854 39.5536C49.8467 39.5536 48.843 40.5206 48.843 41.7121C48.843 42.9044 49.8467 43.8705 51.0854 43.8705C51.6088 43.889 52.1093 43.6646 52.4308 43.2666V43.7669H53.3637V41.7121ZM44.6268 41.7121C44.5828 42.8634 45.5166 43.8303 46.7122 43.8726C46.779 43.8748 46.8468 43.8744 46.914 43.8705C47.4742 43.8981 48.0245 43.7228 48.4568 43.3788L48.0083 42.6536C47.6859 42.8901 47.2926 43.0205 46.8871 43.0248C46.1292 42.9657 45.5646 42.3263 45.626 41.5968C45.6803 40.9493 46.2144 40.4351 46.8871 40.3825C47.2926 40.3872 47.6859 40.5172 48.0083 40.7541L48.4568 40.0289C48.0245 39.6849 47.4742 39.5092 46.914 39.5364C45.7197 39.4716 44.6963 40.3505 44.629 41.5001C44.625 41.5653 44.6241 41.63 44.6268 41.6948V41.7121ZM56.6461 39.5536C56.1828 39.5407 55.7491 39.7725 55.5159 40.1584V39.6577H54.5921V43.7841H55.5249V41.4707C55.5249 40.7887 55.8303 40.4088 56.4219 40.4088C56.6214 40.4062 56.8197 40.4412 57.0049 40.5124L57.2919 39.649C57.0789 39.5752 56.8547 39.5372 56.6282 39.5364L56.6461 39.5536ZM31.6611 39.9853C31.1333 39.6831 30.526 39.5338 29.9121 39.5536C28.8267 39.5536 28.1181 40.0548 28.1181 40.875C28.1181 41.5484 28.6384 41.9629 29.5981 42.0919L30.0466 42.1528C30.5579 42.2219 30.8001 42.3514 30.8001 42.5845C30.8001 42.9035 30.4592 43.0852 29.8224 43.0852C29.3102 43.0991 28.8079 42.9475 28.3962 42.6536L27.9477 43.3525C28.4913 43.7181 29.142 43.9059 29.8044 43.8882C31.0422 43.8882 31.7598 43.327 31.7598 42.5409C31.7598 41.7557 31.1947 41.4362 30.2619 41.3067L29.8134 41.2458C29.4098 41.194 29.0868 41.1168 29.0868 40.8405C29.0868 40.5638 29.3918 40.357 29.9031 40.357C30.3758 40.3622 30.8391 40.4839 31.2485 40.711L31.6611 39.9853ZM43.6894 39.5536C43.2262 39.5407 42.7925 39.7725 42.5593 40.1584V39.6577H41.6354V43.7841H42.5682V41.4707C42.5682 40.7887 42.8732 40.4088 43.4652 40.4088C43.6648 40.4062 43.863 40.4412 44.0482 40.5124L44.3353 39.649C44.1222 39.5752 43.898 39.5372 43.6715 39.5364L43.6894 39.5536ZM35.7334 39.6577H34.1996V38.4054H33.2577V39.6577H32.4056V40.4779H33.2757V42.3773C33.2757 43.3352 33.6614 43.9054 34.7646 43.9054C35.1768 43.9063 35.5809 43.7962 35.9307 43.5856L35.6616 42.8176C35.4114 42.9609 35.1275 43.0416 34.8364 43.0507C34.3879 43.0507 34.2175 42.774 34.2175 42.3596V40.4779H35.7423L35.7334 39.6577ZM21.799 43.7841V41.194C21.86 40.3475 21.1962 39.6136 20.3168 39.5549C20.2486 39.5506 20.1804 39.5502 20.1127 39.5536C19.509 39.5161 18.9318 39.7971 18.6058 40.2879C18.3089 39.8118 17.7653 39.5303 17.1886 39.5536C16.6867 39.5295 16.2091 39.763 15.9328 40.1666V39.6577H15V43.7841H15.9418V41.5139C15.8669 40.9847 16.2517 40.4973 16.8011 40.4248C16.8643 40.4166 16.9276 40.414 16.9913 40.417C17.6102 40.417 17.9241 40.806 17.9241 41.5053V43.8014H18.8659V41.5139C18.7937 40.9821 19.1826 40.4943 19.7351 40.4243C19.7952 40.417 19.8553 40.4148 19.9154 40.417C20.5522 40.417 20.8572 40.806 20.8572 41.5053V43.8014L21.799 43.7841Z" fill="#231F20"/>
<path d="M30.9685 6.72433H45.0293V32.2692H30.9685V6.72433Z" fill="#FF5F00"/>
<path d="M31.8613 19.499C31.856 14.5135 34.1194 9.80251 37.9989 6.72434C31.4103 1.48994 21.9489 2.25238 16.2638 8.47582C10.5787 14.6993 10.5787 24.2943 16.2638 30.5177C21.9489 36.7411 31.4103 37.5036 37.9989 32.2692C34.1206 29.192 31.8574 24.483 31.8613 19.499Z" fill="#EB001B"/>
<path d="M64.0002 19.499C64 25.7187 60.487 31.3923 54.953 34.1102C49.419 36.8281 42.8356 36.1133 37.9989 32.2692C41.8755 29.1894 44.1389 24.481 44.1389 19.4967C44.1389 14.5125 41.8755 9.80413 37.9989 6.72433C42.8356 2.88024 49.419 2.16536 54.953 4.8833C60.487 7.60125 64 13.2748 64.0002 19.4945V19.499Z" fill="#F79E1B"/>
<path fill-rule="evenodd" clip-rule="evenodd" d="M64 29.9929V29H63.7638L63.4875 29.7097L63.2112 29H63V29.9929H63.1711V29.2477L63.4283 29.8935H63.6053L63.8618 29.2477V30L64 29.9929ZM62.6047 30V29.1708H63V29H62V29.1708H62.4281V30H62.6047Z" fill="#F79E1B"/>
</svg>
