<svg width="68" height="51" viewBox="0 0 68 51" fill="none" xmlns="http://www.w3.org/2000/svg">
<path d="M39.252 42.2495V50H41.9106C44.2148 50 45.5684 48.5659 45.5684 46.1221C45.5684 43.6836 44.2095 42.2495 41.9106 42.2495H39.252ZM40.2188 43.1196H41.8462C43.5649 43.1196 44.5801 44.2368 44.5801 46.1328C44.5801 48.0234 43.5757 49.1299 41.8462 49.1299H40.2188V43.1196ZM49.4355 44.9243C50.354 44.9243 50.9663 45.6011 50.9878 46.627H47.7974C47.8672 45.6011 48.5117 44.9243 49.4355 44.9243ZM50.9609 48.5015C50.7192 49.0117 50.2144 49.2856 49.4678 49.2856C48.4849 49.2856 47.8457 48.5605 47.7974 47.4165V47.3735H51.96V47.019C51.96 45.2197 51.0093 44.1079 49.4463 44.1079C47.8564 44.1079 46.8359 45.2896 46.8359 47.1104C46.8359 48.9419 47.8403 50.1021 49.4463 50.1021C50.7139 50.1021 51.6055 49.4951 51.8848 48.5015H50.9609ZM56.2891 50.1021C57.7554 50.1021 58.7168 48.915 58.7168 47.105C58.7168 45.2842 57.7607 44.1079 56.2891 44.1079C55.4941 44.1079 54.7905 44.5 54.4736 45.123H54.3877V41.9111H53.4639V50H54.3447V49.0762H54.4307C54.7959 49.7207 55.4834 50.1021 56.2891 50.1021ZM56.0742 44.9404C57.1323 44.9404 57.7607 45.7515 57.7607 47.105C57.7607 48.4585 57.1323 49.2695 56.0742 49.2695C55.0215 49.2695 54.3662 48.4424 54.3662 47.105C54.3662 45.7676 55.0215 44.9404 56.0742 44.9404ZM60.1885 50H61.1123V44.21H60.1885V50ZM60.6504 43.0337C61.0049 43.0337 61.2949 42.7437 61.2949 42.3892C61.2949 42.0347 61.0049 41.7446 60.6504 41.7446C60.2959 41.7446 60.0059 42.0347 60.0059 42.3892C60.0059 42.7437 60.2959 43.0337 60.6504 43.0337ZM63.2607 42.7114V44.21H62.3262V44.9834H63.2607V48.4961C63.2607 49.6025 63.7388 50.043 64.9312 50.043C65.1138 50.043 65.291 50.0215 65.4736 49.9893V49.2104C65.3018 49.2266 65.2104 49.2319 65.0439 49.2319C64.4424 49.2319 64.1846 48.9419 64.1846 48.2598V44.9834H65.4736V44.21H64.1846V42.7114H63.2607Z" fill="#B2B4B3"/>
<g filter="url(#filter0_ddi)">
<path fill-rule="evenodd" clip-rule="evenodd" d="M35.0993 21.034C35.0621 24.0978 37.6649 25.8087 39.6245 26.8248C41.6392 27.8681 42.3157 28.5378 42.308 29.47C42.2926 30.8986 40.7013 31.5287 39.2119 31.5532C36.6137 31.5955 35.1031 30.8065 33.902 30.2085L32.9661 34.8714C34.171 35.462 36.4023 35.9782 38.7161 36C44.1471 36 47.7006 33.1468 47.7198 28.7212C47.7403 23.1056 40.4227 22.7954 40.4726 20.2845C40.4899 19.5235 41.1715 18.712 42.6667 18.5054C43.4072 18.4011 45.4501 18.3206 47.7653 19.4567L48.6743 14.9451C47.4296 14.4623 45.8287 14.0007 43.8358 14.0007C38.7238 14.0007 35.1281 16.8934 35.0993 21.034ZM57.4095 14.3894C56.4179 14.3894 55.5819 15.0045 55.2091 15.9503L47.4507 35.6693H52.8779L53.9573 32.4922H60.5901L61.2166 35.6693H65.9994L61.8258 14.3894H57.4095ZM58.1686 20.1379L59.7349 28.1279H55.4454L58.1686 20.1379ZM28.519 14.3894L24.2411 35.6693H29.4126L33.6887 14.3894H28.519ZM20.8683 14.3894L15.4853 28.8726L13.3073 16.5579C13.0523 15.1831 12.0434 14.3894 10.9229 14.3894H2.12236L2 15.0065C3.80586 15.4238 5.85835 16.0976 7.1024 16.817C7.86279 17.2575 8.0806 17.6414 8.33043 18.6875L12.454 35.6693H17.9202L26.2993 14.3894H20.8683Z" fill="url(#paint0_linear)"/>
</g>
<defs>
<filter id="filter0_ddi" x="0" y="13.0007" width="67.9994" height="25.9993" filterUnits="userSpaceOnUse" color-interpolation-filters="sRGB">
<feFlood flood-opacity="0" result="BackgroundImageFix"/>
<feColorMatrix in="SourceAlpha" type="matrix" values="0 0 0 0 0 0 0 0 0 0 0 0 0 0 0 0 0 0 127 0"/>
<feOffset dy="1"/>
<feGaussianBlur stdDeviation="1"/>
<feColorMatrix type="matrix" values="0 0 0 0 0 0 0 0 0 0 0 0 0 0 0 0 0 0 0.8 0"/>
<feBlend mode="normal" in2="BackgroundImageFix" result="effect1_dropShadow"/>
<feColorMatrix in="SourceAlpha" type="matrix" values="0 0 0 0 0 0 0 0 0 0 0 0 0 0 0 0 0 0 127 0"/>
<feOffset/>
<feGaussianBlur stdDeviation="0.5"/>
<feColorMatrix type="matrix" values="0 0 0 0 0 0 0 0 0 0 0 0 0 0 0 0 0 0 0.89 0"/>
<feBlend mode="normal" in2="effect1_dropShadow" result="effect2_dropShadow"/>
<feBlend mode="normal" in="SourceGraphic" in2="effect2_dropShadow" result="shape"/>
<feColorMatrix in="SourceAlpha" type="matrix" values="0 0 0 0 0 0 0 0 0 0 0 0 0 0 0 0 0 0 127 0" result="hardAlpha"/>
<feOffset dy="1"/>
<feGaussianBlur stdDeviation="0.5"/>
<feComposite in2="hardAlpha" operator="arithmetic" k2="-1" k3="1"/>
<feColorMatrix type="matrix" values="0 0 0 0 1 0 0 0 0 1 0 0 0 0 1 0 0 0 1 0"/>
<feBlend mode="normal" in2="shape" result="effect3_innerShadow"/>
</filter>
<linearGradient id="paint0_linear" x1="68.7227" y1="27.7502" x2="35.7923" y2="-17.5333" gradientUnits="userSpaceOnUse">
<stop stop-color="#C8C8C8"/>
<stop offset="0.204062" stop-color="#C8C8C8"/>
<stop offset="0.27559" stop-color="white"/>
<stop offset="0.433654" stop-color="white"/>
<stop offset="0.52559" stop-color="#C8C8C8"/>
<stop offset="0.693957" stop-color="#C8C8C8"/>
<stop offset="0.790896" stop-color="white"/>
<stop offset="1" stop-color="white"/>
</linearGradient>
</defs>
</svg>
