<svg width="64" height="51" viewBox="0 0 64 51" fill="none" xmlns="http://www.w3.org/2000/svg">
<path d="M37.252 42.2495V50H39.9106C42.2148 50 43.5684 48.5659 43.5684 46.1221C43.5684 43.6836 42.2095 42.2495 39.9106 42.2495H37.252ZM38.2188 43.1196H39.8462C41.5649 43.1196 42.5801 44.2368 42.5801 46.1328C42.5801 48.0234 41.5757 49.1299 39.8462 49.1299H38.2188V43.1196ZM47.4355 44.9243C48.354 44.9243 48.9663 45.6011 48.9878 46.627H45.7974C45.8672 45.6011 46.5117 44.9243 47.4355 44.9243ZM48.9609 48.5015C48.7192 49.0117 48.2144 49.2856 47.4678 49.2856C46.4849 49.2856 45.8457 48.5605 45.7974 47.4165V47.3735H49.96V47.019C49.96 45.2197 49.0093 44.1079 47.4463 44.1079C45.8564 44.1079 44.8359 45.2896 44.8359 47.1104C44.8359 48.9419 45.8403 50.1021 47.4463 50.1021C48.7139 50.1021 49.6055 49.4951 49.8848 48.5015H48.9609ZM54.2891 50.1021C55.7554 50.1021 56.7168 48.915 56.7168 47.105C56.7168 45.2842 55.7607 44.1079 54.2891 44.1079C53.4941 44.1079 52.7905 44.5 52.4736 45.123H52.3877V41.9111H51.4639V50H52.3447V49.0762H52.4307C52.7959 49.7207 53.4834 50.1021 54.2891 50.1021ZM54.0742 44.9404C55.1323 44.9404 55.7607 45.7515 55.7607 47.105C55.7607 48.4585 55.1323 49.2695 54.0742 49.2695C53.0215 49.2695 52.3662 48.4424 52.3662 47.105C52.3662 45.7676 53.0215 44.9404 54.0742 44.9404ZM58.1885 50H59.1123V44.21H58.1885V50ZM58.6504 43.0337C59.0049 43.0337 59.2949 42.7437 59.2949 42.3892C59.2949 42.0347 59.0049 41.7446 58.6504 41.7446C58.2959 41.7446 58.0059 42.0347 58.0059 42.3892C58.0059 42.7437 58.2959 43.0337 58.6504 43.0337ZM61.2607 42.7114V44.21H60.3262V44.9834H61.2607V48.4961C61.2607 49.6025 61.7388 50.043 62.9312 50.043C63.1138 50.043 63.291 50.0215 63.4736 49.9893V49.2104C63.3018 49.2266 63.2104 49.2319 63.0439 49.2319C62.4424 49.2319 62.1846 48.9419 62.1846 48.2598V44.9834H63.4736V44.21H62.1846V42.7114H61.2607Z" fill="#333333"/>
<path fill-rule="evenodd" clip-rule="evenodd" d="M33.0993 21.034C33.0621 24.0978 35.6649 25.8087 37.6245 26.8248C39.6392 27.8681 40.3157 28.5378 40.308 29.47C40.2926 30.8986 38.7013 31.5287 37.2119 31.5532C34.6137 31.5955 33.1031 30.8065 31.902 30.2085L30.9661 34.8714C32.171 35.462 34.4023 35.9782 36.7161 36C42.1471 36 45.7006 33.1468 45.7198 28.7212C45.7403 23.1056 38.4227 22.7954 38.4726 20.2845C38.4899 19.5235 39.1715 18.712 40.6667 18.5054C41.4072 18.4011 43.4501 18.3206 45.7653 19.4567L46.6743 14.9451C45.4296 14.4623 43.8287 14.0007 41.8358 14.0007C36.7238 14.0007 33.1281 16.8934 33.0993 21.034ZM55.4095 14.3894C54.4179 14.3894 53.5819 15.0045 53.2091 15.9503L45.4507 35.6693H50.8779L51.9573 32.4922H58.5901L59.2166 35.6693H63.9994L59.8258 14.3894H55.4095ZM56.1686 20.1379L57.7349 28.1279H53.4454L56.1686 20.1379ZM26.519 14.3894L22.2411 35.6693H27.4126L31.6887 14.3894H26.519ZM18.8683 14.3894L13.4853 28.8726L11.3073 16.5579C11.0523 15.1831 10.0434 14.3894 8.92295 14.3894H0.122355L0 15.0065C1.80586 15.4238 3.85835 16.0976 5.1024 16.817C5.86279 17.2575 6.0806 17.6414 6.33043 18.6875L10.454 35.6693H15.9202L24.2993 14.3894H18.8683Z" fill="#1A1F71"/>
</svg>
