<svg width="64" height="52" viewBox="0 0 64 52" fill="none" xmlns="http://www.w3.org/2000/svg">
    <path d="M40.3153 43.3H38.3683V51H40.3153C42.7133 51 44.1213 49.57 44.1213 47.15C44.1213 44.73 42.7133 43.3 40.3153 43.3ZM40.2493 50.197H39.3583V44.103H40.2493C42.0973 44.103 43.1093 45.225 43.1093 47.15C43.1093 49.075 42.0973 50.197 40.2493 50.197ZM50.3817 48.316C50.3817 46.556 49.3917 45.412 47.8187 45.412C46.2457 45.412 45.1897 46.567 45.1897 48.25C45.1897 49.922 46.2897 51.088 47.9397 51.088C48.9737 51.088 49.7767 50.67 50.2057 49.911L49.5237 49.449C49.2267 49.955 48.7427 50.318 47.9507 50.318C47.0157 50.318 46.2017 49.735 46.1247 48.514H50.3707C50.3817 48.481 50.3817 48.36 50.3817 48.316ZM47.8187 46.193C48.7537 46.193 49.3367 46.798 49.4577 47.821H46.1467C46.2677 46.765 46.9167 46.193 47.8187 46.193ZM54.3613 45.412C53.5363 45.412 52.8543 45.775 52.4363 46.435V43.3H51.4793V51H52.3263V49.867C52.7333 50.648 53.4593 51.088 54.3613 51.088C55.8353 51.088 56.9463 49.922 56.9463 48.25C56.9463 46.578 55.8353 45.412 54.3613 45.412ZM54.2513 50.296C53.2063 50.296 52.4363 49.427 52.4363 48.25C52.4363 47.073 53.2063 46.204 54.2513 46.204C55.2743 46.204 55.9783 47.062 55.9783 48.25C55.9783 49.438 55.2853 50.296 54.2513 50.296ZM58.6923 44.686C59.0443 44.686 59.3303 44.389 59.3303 44.037C59.3303 43.685 59.0443 43.399 58.6923 43.399C58.3403 43.399 58.0433 43.685 58.0433 44.037C58.0433 44.389 58.3403 44.686 58.6923 44.686ZM58.2083 51H59.1653V45.5H58.2083V51ZM62.9736 50.296C62.4126 50.296 62.1266 50.032 62.1266 49.504V46.292H63.5346V45.5H62.1266V43.784H61.1696V45.5H60.2346V46.292H61.1696V49.526C61.1696 50.527 61.7636 51.088 62.8086 51.088C63.1276 51.088 63.4356 51.044 63.6116 50.978V50.208C63.4576 50.263 63.2266 50.296 62.9736 50.296Z" fill="white"/>
    <path fill-rule="evenodd" clip-rule="evenodd" d="M33.0993 21.034C33.0621 24.0978 35.6649 25.8088 37.6245 26.8248C39.6392 27.8681 40.3157 28.5378 40.308 29.47C40.2926 30.8986 38.7013 31.5287 37.2119 31.5532C34.6137 31.5955 33.1031 30.8065 31.902 30.2085L30.9661 34.8714C32.171 35.462 34.4023 35.9782 36.7161 36C42.1471 36 45.7006 33.1469 45.7198 28.7212C45.7403 23.1056 38.4227 22.7954 38.4726 20.2845C38.4899 19.5235 39.1715 18.712 40.6667 18.5054C41.4072 18.4011 43.4501 18.3206 45.7653 19.4567L46.6743 14.9451C45.4296 14.4623 43.8287 14.0007 41.8358 14.0007C36.7238 14.0007 33.1281 16.8934 33.0993 21.034ZM55.4095 14.3894C54.4179 14.3894 53.5819 15.0045 53.2091 15.9503L45.4507 35.6693H50.8779L51.9573 32.4922H58.5901L59.2166 35.6693H63.9994L59.8258 14.3894H55.4095ZM56.1686 20.1379L57.7349 28.128H53.4454L56.1686 20.1379ZM26.519 14.3894L22.2411 35.6693H27.4126L31.6887 14.3894H26.519ZM18.8683 14.3894L13.4853 28.8726L11.3073 16.5579C11.0523 15.1831 10.0434 14.3894 8.92295 14.3894H0.122355L0 15.0065C1.80586 15.4238 3.85835 16.0976 5.1024 16.817C5.86279 17.2575 6.0806 17.6414 6.33043 18.6875L10.454 35.6693H15.9202L24.2993 14.3894H18.8683Z" fill="white"/>
</svg>
