<svg viewBox="0 0 24 25" xmlns="http://www.w3.org/2000/svg" xmlns:xlink="http://www.w3.org/1999/xlink">
    <mask id="a" height="22" maskUnits="userSpaceOnUse" width="21" x="2.5" y="1.5">
        <path d="m4.4 9c-.3-.2-.5-.6-.3-.9.9-1.7 2.2-3.1 3.9-4 1.9-1 4-1.4 6.1-1s4 1.4 5.4 3 2.3 3.6 2.4 5.7-.4 4.2-1.6 6-3 3.1-5 3.7-4.2.6-6.2-.2c-1.8-.7-3.3-1.9-4.4-3.4-.2-.3-.1-.8.2-1s.8-.1 1 .2c.9 1.3 2.2 2.2 3.7 2.8 1.7.6 3.6.7 5.3.2s3.2-1.6 4.3-3.1 1.5-3.3 1.4-5.1-.8-3.5-2.1-4.9c-1.2-1.3-2.8-2.2-4.6-2.6-1.8-.3-3.6 0-5.2.9-1.4.8-2.6 2-3.3 3.3-.2.4-.6.6-1 .4z" fill="#fff"/>
    </mask>
    <path d="m3 13.8h2.2 2.2c.1 0 .1 0 .2-.1.1 0 .1-.1.1-.1l1.7-3.4c0-.1.1-.1.1-.2.1 0 .1-.1.2 0 .1 0 .1 0 .2.1.1 0 .1.1.1.2l1.6 5.5c0 .1.1.1.1.2h.3c.1 0 .1 0 .2-.1.1 0 .1-.1.1-.2l1.5-3.6c0-.1.1-.1.1-.2.1 0 .1-.1.2-.1h.2c.1 0 .1.1.1.1l1.1 1.6h5.4" fill="none" stroke="#727272" stroke-linecap="round" stroke-linejoin="round" stroke-width="1.5"/>
    <path d="m8 4.1.7 1.3zm1.1 17.3-.5 1.4zm-3.7-12.8-1.3-.7zm-.7 9.4-1.2.9zm-.6-9.9 1.3.7zm1.3.7c.7-1.4 1.9-2.6 3.3-3.3l-1.4-2.7c-1.9 1-3.5 2.6-4.5 4.6zm3.3-3.3c1.6-.9 3.4-1.2 5.2-.8l.5-3c-2.4-.4-4.9 0-7.1 1.2zm5.2-.9c1.8.3 3.4 1.2 4.6 2.5l2.2-2c-1.7-1.8-3.9-3.1-6.3-3.5zm4.5 2.5c1.2 1.3 1.9 3 2 4.8l3-.2c-.2-2.5-1.1-4.8-2.8-6.6zm2.1 4.9c.1 1.8-.4 3.6-1.4 5.1l2.5 1.7c1.4-2 2.1-4.5 1.9-6.9zm-1.4 5c-1 1.5-2.5 2.6-4.2 3.1l.9 2.9c2.4-.7 4.4-2.2 5.8-4.3zm-4.2 3.1c-1.7.5-3.6.5-5.2-.2l-1.1 2.8c2.3.9 4.8 1 7.2.2zm-5.3-.1c-1.5-.6-2.8-1.6-3.7-2.9l-2.5 1.7c1.3 1.8 3 3.2 5.1 3.9zm-4.9-1.9c1.1 1.5 2.6 2.7 4.3 3.3l1.1-2.8c-1.2-.5-2.2-1.3-3-2.3zm4.4 3.3c2 .8 4.2.8 6.3.2l-.9-2.9c-1.4.4-2.9.4-4.3-.1zm6.2.2c2.1-.6 3.8-1.9 5-3.7l-2.5-1.7c-.8 1.2-2.1 2.1-3.5 2.6zm5.1-3.7c1.2-1.8 1.8-3.9 1.7-6l-3 .2c.1 1.5-.3 2.9-1.1 4.2zm1.6-6c-.1-2.1-1-4.2-2.4-5.8l-2.2 2c1 1.1 1.6 2.5 1.7 4zm-2.4-5.8c-1.4-1.6-3.4-2.7-5.5-3l-.5 3c1.5.3 2.8 1 3.8 2.1zm-5.5-3c-2.1-.4-4.3 0-6.2 1l1.4 2.6c1.4-.7 2.9-.9 4.3-.7zm-6.2 1c-1.6.9-2.9 2.2-3.8 3.8l2.6 1.4c.6-1.1 1.5-2 2.7-2.7zm-3.8 3.8c.1-.2.5-.5.9-.3l-1.2 2.8c1.1.5 2.4-.1 2.9-1zm1.6 10.4c-.4.2-.8.1-1-.2l2.4-1.8c-.6-.9-1.9-1.3-3-.6zm.2-1.2c.3.5.1 1-.2 1.2l-1.5-2.6c-1 .6-1.5 2-.7 3.1zm-3.1-9.7c-.6 1.2 0 2.5 1.1 3l1.1-2.8c.4.2.6.7.4 1.1z" fill="#727272" mask="url(#a)"/>
    <path d="m20.6 21.1 4.6 5.1" fill="none" stroke="#727272" stroke-linecap="round" stroke-width="1.5"/>
</svg>
