<svg width="75" height="36" viewBox="0 0 75 36" fill="none" xmlns="http://www.w3.org/2000/svg">
<path fill-rule="evenodd" clip-rule="evenodd" d="M20.374 15.206H26.176C26.24 14.971 26.262 14.464 26.262 14.273C25.584 13.807 24.885 12.96 24.652 12.345L20.162 0L18.362 0.232L13.11 12.58C12.835 13.236 12.39 13.765 11.691 14.273C11.691 14.549 11.712 14.888 11.776 15.206H16.838C16.901 14.971 16.922 14.464 16.922 14.273L15.757 13.936C15.058 13.723 14.698 13.278 14.698 12.791C14.698 12.686 14.719 12.558 14.762 12.451L16.074 9.147H21.327L22.343 12.24C22.386 12.41 22.428 12.58 22.428 12.77C22.428 13.258 22.195 13.723 21.793 13.829L20.29 14.273C20.29 14.569 20.31 14.888 20.374 15.206ZM0 14.528C1.356 15.121 3.071 15.438 4.553 15.438C7.349 15.438 10.25 14.21 10.25 11.16C10.25 8.28455 7.78253 7.28883 5.58273 6.40114L5.57 6.396C3.812 5.696 2.456 4.996 2.456 3.579C2.456 2.159 3.643 1.397 5.548 1.397C7.116 1.397 8.556 2.498 8.874 4.066H9.763V0.739C8.768 0.232 7.159 0.02 5.506 0.02C2.965 0.02 0.571 1.651 0.571 4.257C0.571 6.712 2.563 7.751 4.469 8.492C4.60621 8.54534 4.74297 8.59781 4.87865 8.64986L4.8788 8.64992C6.62783 9.32088 8.196 9.92245 8.196 11.436C8.196 13.299 6.904 14.103 5.189 14.103C2.923 14.103 1.546 12.982 1.292 10.99H0.17L0 14.528ZM19.484 3.388L19.04 1.736H18.892L18.362 3.344L16.626 7.772H20.882L19.484 3.388ZM35.411 0C30.519 0 27.766 3.388 27.766 7.836C27.766 13.067 30.561 15.375 35.496 15.375C36.851 15.375 39.203 15.184 40.431 14.719L40.409 8.936H38.483V13.469C37.995 13.595 36.576 13.745 35.877 13.745C32.425 13.745 29.841 11.964 29.841 7.624C29.841 3.239 32.193 1.439 35.326 1.439C37.72 1.439 38.927 2.646 39.457 4.15H40.431V0.952C39.626 0.507 38.016 0 35.411 0ZM56.738 15.206H50.935C50.871 14.888 50.85 14.569 50.85 14.273L52.354 13.829C52.756 13.723 52.99 13.258 52.99 12.77C52.99 12.58 52.947 12.41 52.904 12.24L51.888 9.147H46.636L45.323 12.451C45.28 12.558 45.26 12.686 45.26 12.791C45.26 13.278 45.619 13.723 46.318 13.936L47.483 14.273C47.483 14.464 47.462 14.971 47.399 15.206H42.336C42.273 14.888 42.252 14.549 42.252 14.273C42.951 13.765 43.395 13.236 43.671 12.58L48.923 0.232L50.723 0L55.213 12.345C55.446 12.96 56.145 13.807 56.823 14.273C56.823 14.464 56.801 14.971 56.738 15.206ZM49.601 1.736L50.046 3.388L51.443 7.772H47.187L48.923 3.344L49.452 1.736H49.601Z" fill="#B2B4B3"/>
<path fill-rule="evenodd" clip-rule="evenodd" d="M2.55 28.87L0 21.8H0.9L3.14 28.22L5.66 21.8H6.49L3.69 28.87H2.55ZM7.56 28.87V21.8H8.38V28.87H7.56ZM11.9 28.99C11.02 28.99 10.34 28.75 9.93 28.5L10.19 27.82C10.71 28.08 11.24 28.27 11.91 28.27C12.69 28.27 13.57 27.97 13.57 27.06C13.57 25.29 10.1 25.77 10.1 23.45C10.1 22.31 11.08 21.7 12.21 21.7C13.01 21.7 13.52 21.86 13.95 22.09L13.7 22.73C13.24 22.52 12.79 22.39 12.23 22.39C11.5 22.39 10.89 22.71 10.89 23.43C10.89 25.02 14.4 24.76 14.4 27C14.4 28.35 13.26 28.99 11.9 28.99ZM14.86 28.87L17.76 21.8H18.83L21.4 28.87H20.51L19.57 26.23H16.78L15.73 28.87H14.86ZM17.03 25.57H19.35L18.25 22.38L17.03 25.57ZM25.24 28.87V21.8H27.54C28.95 21.8 29.83 22.58 29.83 24.01C29.83 25.27 28.96 26.32 27.02 26.32H26.69V25.63H27.08C28.19 25.63 28.96 25.18 28.96 24.06C28.96 22.98 28.43 22.47 27.32 22.47H26.06V28.87H25.24ZM31.27 28.87V21.8H32.09V28.16H35.16V28.87H31.27ZM35.24 28.87L38.14 21.8H39.21L41.78 28.87H40.89L39.95 26.23H37.16L36.11 28.87H35.24ZM37.41 25.57H39.73L38.63 22.38L37.41 25.57ZM44.46 28.87V22.5H42.04V21.8H47.7V22.5H45.28V28.87H44.46ZM48.85 28.87V21.8H49.67V28.87H48.85ZM51.79 28.87V21.8H52.84L56.56 27.94H56.58L56.54 27.05V21.8H57.37V28.87H56.27L52.6 22.82H52.57L52.61 23.55V28.87H51.79ZM62.22 28.99C60.85 28.99 59.39 28.46 59.39 26.41V21.8H60.22V26.34C60.22 27.89 61.22 28.28 62.22 28.28C63.32 28.28 64.24 27.79 64.24 26.11V21.8H65.05V26.14C65.05 28.41 63.49 28.99 62.22 28.99ZM67.07 28.87V21.8H68.18L70.6 28.38L73.32 21.8H74.37V28.87H73.54V24.12L73.58 23.03H73.55L71.17 28.87H69.98L67.87 23.01H67.84L67.89 23.99V28.87H67.07Z" fill="#B2B4B3"/>
</svg>
