<svg width="32" height="20" viewBox="0 0 32 20" fill="none" xmlns="http://www.w3.org/2000/svg">
    <path fill-rule="evenodd" clip-rule="evenodd" d="M0.5 0C0.223858 0 0 0.223858 0 0.5V2.5C0 2.77614 0.223858 3 0.5 3H7.5C7.77614 3 8 2.77614 8 2.5V0.5C8 0.223858 7.77614 0 7.5 0H0.5ZM24.5 0C24.2239 0 24 0.223858 24 0.5V2.5C24 2.77614 24.2239 3 24.5 3H31.5C31.7761 3 32 2.77614 32 2.5V0.5C32 0.223858 31.7761 0 31.5 0H24.5ZM12 5.5C12 5.22386 12.2239 5 12.5 5H19.5C19.7761 5 20 5.22386 20 5.5V7.5C20 7.77614 19.7761 8 19.5 8H12.5C12.2239 8 12 7.77614 12 7.5V5.5ZM0.5 11C0.223858 11 0 11.2239 0 11.5V13.5C0 13.7761 0.223858 14 0.5 14H7.5C7.77614 14 8 13.7761 8 13.5V11.5C8 11.2239 7.77614 11 7.5 11H0.5ZM0 17.5C0 17.2239 0.223858 17 0.5 17H7.5C7.77614 17 8 17.2239 8 17.5V19.5C8 19.7761 7.77614 20 7.5 20H0.5C0.223858 20 0 19.7761 0 19.5V17.5ZM24.5 5C24.2239 5 24 5.22386 24 5.5V7.5C24 7.77614 24.2239 8 24.5 8H31.5C31.7761 8 32 7.77614 32 7.5V5.5C32 5.22386 31.7761 5 31.5 5H24.5ZM12 11.5C12 11.2239 12.2239 11 12.5 11H19.5C19.7761 11 20 11.2239 20 11.5V13.5C20 13.7761 19.7761 14 19.5 14H12.5C12.2239 14 12 13.7761 12 13.5V11.5ZM24.5 17C24.2239 17 24 17.2239 24 17.5V19.5C24 19.7761 24.2239 20 24.5 20H31.5C31.7761 20 32 19.7761 32 19.5V17.5C32 17.2239 31.7761 17 31.5 17H24.5Z" fill="#008484"/>
</svg>
