<svg width="32" height="24" viewBox="0 0 32 24" fill="none" xmlns="http://www.w3.org/2000/svg">
    <path d="M11.6729 4.13805H20.3257V19.858H11.6729V4.13805Z" fill="#FF5F00"/>
    <path d="M12.2223 11.9994C12.2191 8.93135 13.6119 6.03231 15.9993 4.13805C11.9448 0.916883 6.12239 1.38607 2.62388 5.21588C-0.874628 9.0457 -0.874628 14.9503 2.62388 18.7801C6.12239 22.6099 11.9448 23.0791 15.9993 19.858C13.6127 17.9643 12.2199 15.0665 12.2223 11.9994Z" fill="#EB001B"/>
    <path d="M32.0001 11.9994C32 15.8269 29.8381 19.3183 26.4326 20.9909C23.0271 22.6635 18.9758 22.2235 15.9993 19.858C18.3849 17.9627 19.7778 15.0652 19.7778 11.998C19.7778 8.93077 18.3849 6.03331 15.9993 4.13805C18.9758 1.77245 23.0271 1.33253 26.4326 3.00511C29.8381 4.67769 32 8.16914 32.0001 11.9966V11.9994Z" fill="#F79E1B"/>
</svg>
