<svg width="30" height="32" viewBox="0 0 30 32" fill="none" xmlns="http://www.w3.org/2000/svg">
    <path fill-rule="evenodd" clip-rule="evenodd" d="M4 0.5C2.067 0.5 0.5 2.067 0.5 4V28C0.5 29.933 2.067 31.5 4 31.5H17C18.933 31.5 20.5 29.933 20.5 28V20C20.5 19.1716 19.8284 18.5 19 18.5C18.1716 18.5 17.5 19.1716 17.5 20V28C17.5 28.2761 17.2761 28.5 17 28.5H4C3.72386 28.5 3.5 28.2761 3.5 28V4C3.5 3.72386 3.72386 3.5 4 3.5H17C17.2761 3.5 17.5 3.72386 17.5 4V7C17.5 7.82843 18.1716 8.5 19 8.5C19.8284 8.5 20.5 7.82843 20.5 7V4C20.5 2.067 18.933 0.5 17 0.5H4ZM10.5 25.75C11.1896 25.75 11.75 25.1912 11.75 24.5C11.75 23.8088 11.1896 23.25 10.5 23.25C9.81036 23.25 9.25 23.8088 9.25 24.5C9.25 25.1912 9.81036 25.75 10.5 25.75ZM9.5 12.75C9.08579 12.75 8.75 13.0858 8.75 13.5C8.75 13.9142 9.08579 14.25 9.5 14.25C9.91421 14.25 10.25 13.9142 10.25 13.5C10.25 13.0858 9.91421 12.75 9.5 12.75ZM7.25 13.5C7.25 12.2574 8.25736 11.25 9.5 11.25C10.7426 11.25 11.75 12.2574 11.75 13.5C11.75 14.7426 10.7426 15.75 9.5 15.75C8.25736 15.75 7.25 14.7426 7.25 13.5ZM14.75 13.5C14.75 13.0858 15.0858 12.75 15.5 12.75C15.9142 12.75 16.25 13.0858 16.25 13.5C16.25 13.9142 15.9142 14.25 15.5 14.25C15.0858 14.25 14.75 13.9142 14.75 13.5ZM15.5 11.25C14.2574 11.25 13.25 12.2574 13.25 13.5C13.25 14.7426 14.2574 15.75 15.5 15.75C16.7426 15.75 17.75 14.7426 17.75 13.5C17.75 12.2574 16.7426 11.25 15.5 11.25ZM21.5 12.75C21.0858 12.75 20.75 13.0858 20.75 13.5C20.75 13.9142 21.0858 14.25 21.5 14.25C21.9142 14.25 22.25 13.9142 22.25 13.5C22.25 13.0858 21.9142 12.75 21.5 12.75ZM19.25 13.5C19.25 12.2574 20.2574 11.25 21.5 11.25C22.7426 11.25 23.75 12.2574 23.75 13.5C23.75 14.7426 22.7426 15.75 21.5 15.75C20.2574 15.75 19.25 14.7426 19.25 13.5ZM26.75 13.5C26.75 13.0858 27.0858 12.75 27.5 12.75C27.9142 12.75 28.25 13.0858 28.25 13.5C28.25 13.9142 27.9142 14.25 27.5 14.25C27.0858 14.25 26.75 13.9142 26.75 13.5ZM27.5 11.25C26.2574 11.25 25.25 12.2574 25.25 13.5C25.25 14.7426 26.2574 15.75 27.5 15.75C28.7426 15.75 29.75 14.7426 29.75 13.5C29.75 12.2574 28.7426 11.25 27.5 11.25Z" fill="#008484"/>
</svg>
