<svg width="24" height="21" viewBox="0 0 24 21" fill="none" xmlns="http://www.w3.org/2000/svg">
    <path fill-rule="evenodd" clip-rule="evenodd" d="M18.5332 0L18.2972 1.22333H19.5708L19.8067 0H18.5332ZM16.8176 0L16.5817 1.22333H17.8548L18.0908 0H16.8176ZM9.95621 0L9.72031 1.22333H10.993L11.229 0H9.95621ZM8.24023 0L8.00429 1.22333H9.27784L9.51379 0H8.24023ZM18.2158 1.64832L17.9799 2.87165H19.2534L19.4893 1.64832H18.2158ZM16.4998 1.64832L16.2647 2.87165H17.5375L17.7733 1.64832H16.4998ZM9.6388 1.64832L9.40289 2.87165H10.676L10.9115 1.64832H9.6388ZM7.92286 1.64832L7.68696 2.87165H8.96047L9.19637 1.64832H7.92286ZM17.898 3.29663L17.6621 4.51997H18.9356L19.1715 3.29663H17.898ZM16.1828 3.29663L15.9469 4.51997H17.2197L17.4556 3.29663H16.1828ZM9.32106 3.29663L9.08508 4.51997H10.3583L10.5942 3.29663H9.32106ZM7.60545 3.29663L7.36914 4.51997H8.64269L8.87864 3.29663H7.60545ZM22.7265 4.94414L22.4909 6.16828H23.7641L24 4.94434V4.94414H22.7265ZM21.0118 4.94414L20.7758 6.16828H22.0486L22.2841 4.94414H21.0118ZM19.2962 4.94414L19.0602 6.16828H20.3334L20.5693 4.94414H19.2962ZM17.5802 4.94414L17.3451 6.16828H18.6178L18.8534 4.94414H17.5802ZM15.8654 4.94414L15.6295 6.16828H16.9027L17.1378 4.94414H15.8654ZM14.1495 4.94414L13.914 6.16828H15.1871L15.4231 4.94414H14.1495ZM12.4335 4.94414L12.1984 6.16828H13.4716L13.7071 4.94414H12.4335ZM10.7188 4.94414L10.4829 6.16828H11.7564L11.9923 4.94414H10.7188ZM9.00324 4.94414L8.76734 6.16828H10.0409L10.2768 4.94414H9.00324ZM7.28771 4.94414L7.05221 6.16828H8.32491L8.56086 4.94414H7.28771ZM5.57213 4.94414L5.33619 6.16828H6.60979L6.84569 4.94414H5.57213ZM3.85656 4.94414L3.62147 6.16828H4.89421L5.13012 4.94414H3.85656ZM2.14103 4.94414L1.90549 6.16828H3.17823L3.41418 4.94414H2.14103ZM22.4091 6.59168L22.1736 7.81578H23.4463L23.6822 6.59168H22.4091ZM20.6939 6.59168L20.458 7.81578H21.7307L21.9667 6.59168H20.6939ZM18.978 6.59168L18.7425 7.81578H20.0156L20.2515 6.59168H18.978ZM17.2632 6.59168L17.0273 7.81578H18.3L18.5359 6.59168H17.2632ZM15.5477 6.59168L15.3118 7.81578H16.5849L16.8204 6.59168H15.5477ZM13.8321 6.59168L13.5966 7.81578H14.8694L15.1053 6.59168H13.8321ZM12.1165 6.59168L11.881 7.81578H13.1538L13.3898 6.59168H12.1165ZM10.401 6.59168L10.1655 7.81578H11.4386L11.6746 6.59168H10.401ZM8.68546 6.59168L8.44993 7.81578H9.72307L9.95861 6.59168H8.68546ZM6.97029 6.59168L6.73439 7.81578H8.00791L8.24344 6.59168H6.97029ZM5.25436 6.59168L5.01841 7.81578H6.29238L6.52791 6.59168H5.25436ZM3.53882 6.59168L3.30288 7.81578H4.57644L4.81234 6.59168H3.53882ZM1.82366 6.59168L1.58771 7.81578H2.86131L3.0964 6.59168H1.82366ZM16.9454 8.24085L16.7095 9.46329H17.9827L18.2186 8.24085H16.9454ZM15.2299 8.24085L14.994 9.46329H16.2671L16.503 8.24085H15.2299ZM8.3685 8.24085L8.13255 9.46329H9.4053L9.64087 8.24085H8.3685ZM6.65252 8.24085L6.41698 9.46329H7.69017L7.92607 8.24085H6.65252ZM16.6276 9.88836L16.3922 11.1117H17.6657L17.9012 9.88836H16.6276ZM14.9121 9.88836L14.6762 11.1117H15.9498L16.1853 9.88836H14.9121ZM8.05068 9.88836L7.81518 11.1117H9.08752L9.32342 9.88836H8.05068ZM6.33478 9.88836L6.0992 11.1117H7.3728L7.60829 9.88836H6.33478ZM16.3099 11.5367L16.0744 12.76H17.3475L17.5835 11.5367H16.3099ZM14.5951 11.5367L14.3588 12.76H15.632L15.8675 11.5367H14.5951ZM7.7329 11.5367L7.49736 12.76H8.7697L9.00564 11.5367H7.7329ZM6.01737 11.5367L5.78142 12.76H7.05498L7.29047 11.5367H6.01737ZM21.1388 13.1842L20.9028 14.4083H22.1764L22.4115 13.1842H21.1388ZM19.4232 13.1842L19.1881 14.4083H20.4605L20.6964 13.1842H19.4232ZM17.7081 13.1842L17.4721 14.4083H18.7457L18.9808 13.1842H17.7081ZM15.9925 13.1842L15.7566 14.4083H17.0297L17.2656 13.1842H15.9925ZM14.2773 13.1842L14.0418 14.4083H15.3141L15.5501 13.1842H14.2773ZM12.5618 13.1842L12.3259 14.4083H13.5994L13.8345 13.1842H12.5618ZM10.8458 13.1842L10.61 14.4083H11.8835L12.1194 13.1842H10.8458ZM9.13069 13.1842L8.89512 14.4083H10.1683L10.4038 13.1842H9.13069ZM7.41512 13.1842L7.17962 14.4083H8.45318L8.68868 13.1842H7.41512ZM5.69955 13.1842L5.46364 14.4083H6.73716L6.9727 13.1842H5.69955ZM3.98442 13.1842L3.74848 14.4083H5.02167L5.25761 13.1842H3.98442ZM2.26881 13.1842L2.03295 14.4083H3.30654L3.54204 13.1842H2.26881ZM0.552908 13.1842L0.317412 14.4083H1.59052L1.82642 13.1842H0.552908ZM20.8214 14.8333L20.5854 16.0558H21.8586L22.0937 14.8333H20.8214ZM19.1055 14.8333L18.8703 16.0558H20.143L20.379 14.8333H19.1055ZM17.3903 14.8333L17.1544 16.0558H18.4279L18.663 14.8333H17.3903ZM15.6747 14.8333L15.4392 16.0558H16.7124L16.9482 14.8333H15.6747ZM13.9596 14.8333L13.724 16.0558H14.9964L15.2323 14.8333H13.9596ZM12.2444 14.8333L12.0085 16.0558H13.2816L13.5168 14.8333H12.2444ZM10.5284 14.8333L10.2925 16.0558H11.5661L11.802 14.8333H10.5284ZM8.81287 14.8333L8.57779 16.0558H9.85093L10.086 14.8333H8.81287ZM7.09775 14.8333L6.86185 16.0558H8.13495L8.37086 14.8333H7.09775ZM5.38258 14.8333L5.14668 16.0558H6.41942L6.65532 14.8333H5.38258ZM3.66664 14.8333L3.43074 16.0558H4.7043L4.93979 14.8333H3.66664ZM1.95111 14.8333L1.71517 16.0558H2.98872L3.22467 14.8333H1.95111ZM0.235943 14.8333L0 16.0558H1.27315L1.50864 14.8333H0.235943ZM15.3569 16.4801L15.1218 17.7041H16.395L16.6305 16.4801H15.3569ZM13.6418 16.4801L13.4063 17.7041H14.679L14.9145 16.4801H13.6418ZM6.77997 16.4801L6.54484 17.7041H7.81722L8.05312 16.4801H6.77997ZM5.0648 16.4801L4.82886 17.7041H6.10205L6.33755 16.4801H5.0648ZM15.0392 18.1284L14.804 19.3517H16.0772L16.3127 18.1284H15.0392ZM13.3244 18.1284L13.0885 19.3517H14.3612L14.5971 18.1284H13.3244ZM6.46256 18.1284L6.22706 19.3517H7.49984L7.73575 18.1284H6.46256ZM4.74702 18.1284L4.51153 19.3517H5.78427L6.02017 18.1284H4.74702ZM14.7222 19.7767L14.4863 21H15.7594L15.9953 19.7767H14.7222ZM13.0067 19.7767L12.7711 21H14.0435L14.2798 19.7767H13.0067ZM6.14519 19.7767L5.90928 21H7.18198L7.41793 19.7767H6.14519ZM4.42925 19.7767L4.19375 21H5.46645L5.70276 19.7767H4.42925Z" fill="#E60000"/>
</svg>
