<svg height="263pt" preserveAspectRatio="xMidYMid meet" viewBox="0 0 1040 263" width="1040pt" xmlns="http://www.w3.org/2000/svg">
    <g transform="matrix(.1 0 0 -.1 0 263)">
        <path d="m1660 1590v-990h180 180v325 325h28c22 0 91-60 375-325l348-325h237l237 1-40 37c-22 20-208 192-412 380-205 189-373 347-373 351s109 88 242 187c133 98 316 234 407 302l165 122h-241-241l-209-153c-460-338-444-327-485-327h-38v540 540h-180-180z"/>
        <path d="m505 1979c-220-30-361-104-423-223-23-44-26-63-27-146 0-82 4-103 26-150 52-111 155-180 323-220 48-11 163-34 254-50 254-46 326-71 376-130 36-43 35-92-2-129-92-93-356-113-852-65l-65 6-23-127c-13-70-22-129-20-130 12-12 337-29 553-30 210 0 277 4 350 18 227 45 353 117 420 239 26 47 30 65 33 156 4 99 3 105-27 167-38 77-88 121-192 169-93 43-195 68-429 106-215 34-250 43-306 75-98 57-75 156 46 193 47 14 96 17 335 16 154-1 310-6 348-11 64-9 68-8 72 11 7 35 35 213 35 223 0 27-656 53-805 32z"/>
        <path d="m5645 1979c-160-22-292-75-368-147-15-14-40-51-54-82-22-46-27-69-27-140 0-109 33-189 105-254 84-76 186-110 477-162 203-36 268-51 329-80 67-32 93-65 93-116 0-137-242-184-746-143-103 9-189 13-192 10-5-5-52-248-49-252 1-1 67-7 147-14 223-20 643-18 758 4 270 50 420 160 452 332 33 177-39 316-204 395-88 41-180 64-442 109-128 22-250 48-273 57-74 30-111 99-81 155 16 29 77 56 163 69 82 14 503 8 620-8 32-5 60-6 62-3 6 11 38 241 34 245-23 22-680 42-804 25z"/>
        <path d="m7195 1979c-184-25-320-86-387-174-45-60-62-119-61-212 2-125 67-230 181-291 75-40 160-63 426-113 287-53 362-83 392-155 10-25 11-40 3-61-25-68-97-104-246-124-96-13-376-7-572 11-62 6-115 9-118 6-5-5-53-249-49-253 8-10 346-27 546-28 274 0 355 8 495 52 149 47 240 115 291 219 26 53 29 69 29 154-1 120-25 180-97 245-100 90-207 126-556 185-125 21-247 46-270 55-75 31-112 100-82 156 16 29 77 56 163 69 82 14 503 8 620-8 32-5 60-5 62-2 7 11 39 240 34 244-23 22-678 43-804 25z"/>
        <path d="m3440 1517c0-426 2-470 19-540 26-101 53-150 118-218 85-90 207-141 398-169 136-19 490-9 578 16 14 5 17-2 17-44 0-116-51-196-142-224-67-20-538-17-702 5-71 10-130 16-132 15-5-6-47-249-43-253 12-12 363-47 519-52 538-17 771 78 854 346 19 63 20 95 24 824l3 757h-190-191v-560-559l-37-8c-21-4-132-8-248-8-189 0-217 2-280 22-84 26-145 75-171 135-18 40-19 80-22 511l-3 467h-184-185z"/>
        <path d="m8833 1563c6-437 12-502 56-627 92-262 329-499 587-588 103-35 133-34 252 12 291 112 541 408 599 710 10 54 16 193 20 493l6 417h-763-763zm781 278c12-13 15-27 10-46-6-25-5-26 12-17 25 14 54-3 54-32 0-32-22-48-54-40-25 6-26 5-26-38 0-44 1-45 41-57 23-7 47-15 54-17 7-3 22 10 33 27 21 33 21 33 1 47-27 19-21 56 10 60 13 2 28-1 34-7 7-7 19-3 39 14 19 16 42 25 65 25h35l-66-70c-50-53-66-77-66-99 0-16-3-42-6-58l-6-30-31 16c-47 24-269 23-313-1l-32-17-6 31c-3 17-6 42-6 57 0 19-20 48-67 101l-68 73 44-6c23-3 53-15 65-26 16-15 25-18 33-10 6 6 21 9 34 7 31-4 37-41 10-60-20-14-20-14 0-45l20-32 47 15c26 7 50 14 55 14 4 0 7 22 7 50 0 49 0 49-25 38-19-8-28-8-40 2-36 30-3 90 38 69 15-9 17-7 11 16-4 18-1 32 11 45 22 25 28 25 49 1zm-366-317c29 10 94-65 90-104-3-24 17-51 125-174l128-147 127 147c103 119 126 152 124 173-4 37 62 114 90 105 13-4 27 1 41 14 21 20 23 20 45 2 26-21 27-28 8-49-21-24-2-59 41-78 50-20 121-13 163 17l33 24-7-34c-21-106-114-222-214-269-29-14-54-22-57-19s1 18 10 34c26 50 13 125-29 167-38 37-58 24-196-133l-131-150 18-24c10-13 89-106 177-206l159-181-24-17c-13-9-27-17-31-17s-82 86-174 190c-91 105-169 190-173 190s-76-79-160-175c-211-241-186-219-215-190l-24 25 159 180c88 99 167 190 175 202 16 22 12 27-116 173-145 165-159 173-204 120-33-40-43-108-22-151 9-18 14-35 10-38-12-12-137 64-176 108-43 48-81 122-93 180l-7 34 32-23c44-31 125-38 169-16 40 21 55 54 33 79-14 16-13 19 8 42l24 25 22-21c14-13 29-19 42-15zm482-17c19-7 35-16 35-22 0-35-267-46-329-13-31 16-27 23 22 38 41 13 233 10 272-3z"/>
    </g>
</svg>
