<svg width="24" height="24" viewBox="0 0 24 24" fill="none" xmlns="http://www.w3.org/2000/svg">
    <path fill-rule="evenodd" clip-rule="evenodd" d="M19.0981 10.6385C15.2305 8.34106 8.84967 8.12971 5.15733 9.25048C4.5644 9.43076 3.93727 9.09608 3.75761 8.50283C3.57781 7.90957 3.91216 7.28305 4.50572 7.10245C8.74455 5.81568 15.7908 6.06437 20.2438 8.70775C20.7774 9.02454 20.9525 9.71335 20.6364 10.2457C20.3196 10.7792 19.6303 10.9548 19.0981 10.6385ZM18.9716 14.0406C18.7004 14.4812 18.1245 14.6193 17.6846 14.3488C14.4603 12.3666 9.5427 11.7923 5.7275 12.9506C5.23232 13.1001 4.71016 12.821 4.56 12.3272C4.41048 11.8323 4.6896 11.311 5.18337 11.1602C9.54192 9.83762 14.9599 10.4783 18.6638 12.7546C19.1039 13.0256 19.2423 13.6016 18.9716 14.0406ZM17.5031 17.3085C17.2879 17.6618 16.8273 17.7728 16.4752 17.5573C13.6571 15.835 10.1104 15.4462 5.9332 16.4002C5.53075 16.4927 5.1294 16.2401 5.03761 15.838C4.94567 15.4354 5.19686 15.0341 5.6001 14.9424C10.1711 13.8972 14.0925 14.3471 17.2553 16.2798C17.6079 16.4954 17.719 16.9558 17.5031 17.3085ZM11.9999 0C5.37259 0 0 5.37242 0 12.0001C0 18.628 5.37259 24 11.9999 24C18.6274 24 24 18.628 24 12.0001C24 5.37242 18.6274 0 11.9999 0Z" fill="#1ED760"/>
</svg>
