<svg width="32" height="32" viewBox="0 0 32 32" fill="none" xmlns="http://www.w3.org/2000/svg">
<path d="M16 32C24.8366 32 32 24.8366 32 16C32 7.16344 24.8366 0 16 0C7.16344 0 0 7.16344 0 16C0 24.8366 7.16344 32 16 32Z" fill="#D52B1E"/>
<path fill-rule="evenodd" clip-rule="evenodd" d="M13.6667 18.3333H9.33333C9.14924 18.3333 9 18.1841 9 18V14C9 13.8159 9.14924 13.6667 9.33333 13.6667H13.6667V9.33333C13.6667 9.14924 13.8159 9 14 9H18C18.1841 9 18.3333 9.14924 18.3333 9.33333V13.6667H22.6667C22.8508 13.6667 23 13.8159 23 14V18C23 18.1841 22.8508 18.3333 22.6667 18.3333H18.3333V22.6667C18.3333 22.8508 18.1841 23 18 23H14C13.8159 23 13.6667 22.8508 13.6667 22.6667V18.3333Z" fill="white"/>
</svg>
