<svg width="32" height="32" viewBox="0 0 32 32" fill="none" xmlns="http://www.w3.org/2000/svg">
<mask id="mask0" mask-type="alpha" maskUnits="userSpaceOnUse" x="0" y="0" width="32" height="32">
<path d="M16 32C24.8366 32 32 24.8366 32 16C32 7.16344 24.8366 0 16 0C7.16344 0 0 7.16344 0 16C0 24.8366 7.16344 32 16 32Z" fill="white"/>
</mask>
<g mask="url(#mask0)">
<path fill-rule="evenodd" clip-rule="evenodd" d="M14 0H32V32H14V0Z" fill="#8D153A"/>
<rect x="12" width="2" height="32" fill="#FFBE29"/>
<rect width="6" height="32" fill="#00534E"/>
<rect x="6" width="6" height="32" fill="#EB7400"/>
<path fill-rule="evenodd" clip-rule="evenodd" d="M18 4C18 4.55228 17.5523 5 17 5C16.4477 5 16 4.55228 16 4V3H17C17.5523 3 18 3.44772 18 4ZM18 28C18 27.4477 17.5523 27 17 27C16.4477 27 16 27.4477 16 28V29H17C17.5523 29 18 28.5523 18 28Z" fill="#FFBE29"/>
<path fill-rule="evenodd" clip-rule="evenodd" d="M20.1931 18.7894C20.1931 18.5023 19.9603 18.2695 19.6732 18.2695H19.4869C19.43 18.2695 19.3748 18.2607 19.3213 18.2414C18.9078 18.0922 17.0246 17.3733 17.0246 16.6543C17.0246 16.1298 17.3587 15.6052 17.593 15.302C17.721 15.1363 17.7644 14.9144 17.6892 14.719C17.4358 14.0603 16.9029 12.5528 17.0246 11.8086C17.1067 11.3064 17.5297 10.8906 17.9179 10.6068C18.223 10.3838 18.6088 10.6221 18.6088 10.9999V14.7206C18.6088 14.9161 18.7184 15.095 18.8926 15.1837L19.8531 15.6734C20.0554 15.7765 20.3013 15.7364 20.4603 15.5743L20.4894 15.5446C20.7351 15.294 20.667 14.8769 20.3543 14.7175L19.401 14.2315V13.4239C19.8009 13.4239 19.9301 12.886 19.5738 12.7044L19.401 12.6163V11.8086H20.7669C20.9065 11.8086 21.0403 11.7525 21.138 11.6528L21.6245 11.1569C21.7222 11.0572 21.856 11.001 21.9956 11.001H23.0375C23.2358 11.001 23.4169 11.1139 23.5042 11.292L24.0607 12.4266C24.1203 12.5482 24.1301 12.6883 24.088 12.817L23.5843 14.3577C23.4744 14.6938 23.7249 15.0391 24.0784 15.0391H27.1039C27.2435 15.0391 27.3772 14.9829 27.475 14.8833L27.6184 14.737C27.8642 14.4864 27.7961 14.0693 27.4834 13.9099L26.6413 13.4806C26.5681 13.4433 26.4872 13.4239 26.4052 13.4239H25.4656C25.1785 13.4239 24.9458 13.1911 24.9458 12.904V12.021C24.9458 11.8849 24.9992 11.7542 25.0945 11.657L25.7379 11.001V12.0964C25.7379 12.3835 25.9706 12.6163 26.2577 12.6163H26.53H27.7902C27.9886 12.6163 28.1696 12.7291 28.2569 12.9072L28.866 14.1491C28.8927 14.2036 28.9096 14.2615 28.9153 14.3219C28.9477 14.6674 29.0501 15.9217 28.9064 16.6543C28.7831 17.2828 28.4136 17.8594 28.2261 18.1213C28.156 18.2192 28.1143 18.3354 28.1143 18.4558V20.9802C28.1143 21.2673 27.8815 21.5 27.5944 21.5H27.3639C26.9792 21.5 26.7278 21.0967 26.8972 20.7513L27.2412 20.0498C27.2923 19.9457 27.2923 19.8239 27.2412 19.7198L27.2049 19.6457C27.039 19.3075 26.53 19.4255 26.53 19.8023C26.53 19.8566 26.5176 19.9101 26.4937 19.9588L25.8806 21.2091C25.7933 21.3871 25.6122 21.5 25.4139 21.5H24.9876C24.6029 21.5 24.3515 21.0967 24.5208 20.7513L24.8927 19.9931C24.9276 19.9218 24.9458 19.8435 24.9458 19.7642V18.7894C24.9458 18.5023 24.7131 18.2695 24.426 18.2695H22.2971C22.01 18.2695 21.7773 18.5023 21.7773 18.7894V19.7642C21.7773 19.8435 21.7591 19.9218 21.7242 19.9931L21.1279 21.2091C21.0405 21.3871 20.8595 21.5 20.6611 21.5H20.2349C19.8502 21.5 19.5987 21.0967 19.7681 20.7513L20.14 19.9931C20.1749 19.9218 20.1931 19.8435 20.1931 19.7642V18.7894Z" fill="#FFBE29"/>
</g>
</svg>
