<svg fill="none" height="24" viewBox="0 0 24 24" width="24" xmlns="http://www.w3.org/2000/svg">
    <g fill="#383d3c">
        <path d="m19.3514 4.1486c4.1981 4.19813 4.1981 11.0046 0 15.2028-4.1981 4.1981-11.00466 4.1981-15.2028 0-4.1981343-4.1981-4.1981343-11.00464 0-15.2028 4.19814-4.1981322 11.0047-4.1981322 15.2028 0z"/>
        <path d="m3.20251 5.22957c3.21738 3.03059 7.57789 4.7416 12.13079 4.75997 2.3122-.00078 4.5999-.4464 6.7223-1.30948"/>
        <path d="m15.1278 16.5384c-1.8657 1.7547-4.89 1.7547-6.75574 0z"/>
    </g>
    <path d="m3.20251 5.22957c3.21738 3.03059 7.57789 4.7416 12.13079 4.75997 2.3122-.00078 4.5999-.4464 6.7223-1.30948m-6.9278 7.85834c-1.8657 1.7547-4.89 1.7547-6.75574 0m10.97934-12.3898c4.1981 4.19813 4.1981 11.0046 0 15.2028-4.1981 4.1981-11.00466 4.1981-15.2028 0-4.1981343-4.1981-4.1981343-11.00464 0-15.2028 4.19814-4.1981321 11.0047-4.1981321 15.2028 0z" stroke="#a5e1d2" stroke-linecap="round" stroke-linejoin="round" stroke-width="1.5"/>
</svg>
