<?xml version="1.0" encoding="utf-8"?>
<!--Generator: Adobe Illustrator 24.0.0, SVG Export Plug-In . SVG Version: 6.00 Build 0)-->
<svg version="1.1" id="Layer_1" xmlns="http://www.w3.org/2000/svg" xmlns:xlink="http://www.w3.org/1999/xlink" x="0px" y="0px" viewBox="0 0 27 28" enable-background="new 0 0 27 28" xml:space="preserve">
    <path fill="#383D3C" d="M21.5,12.5c0,5-4,9-9,9c-5,0-9-4-9-9c0-5,4-9,9-9C17.5,3.5,21.5,7.5,21.5,12.5z"/>
    <path fill="none" stroke="#A5E1D2" stroke-width="1.5" stroke-linecap="round" stroke-linejoin="round" d="M3,13.8h2.2h2.2
	c0.1,0,0.1,0,0.2-0.1c0.1,0,0.1-0.1,0.1-0.1l1.7-3.4c0-0.1,0.1-0.1,0.1-0.2c0.1,0,0.1-0.1,0.2,0c0.1,0,0.1,0,0.2,0.1
	c0.1,0,0.1,0.1,0.1,0.2l1.6,5.5c0,0.1,0.1,0.1,0.1,0.2C11.9,16,12,16,12,16c0.1,0,0.1,0,0.2-0.1c0.1,0,0.1-0.1,0.1-0.2l1.5-3.6
	c0-0.1,0.1-0.1,0.1-0.2c0.1,0,0.1-0.1,0.2-0.1c0.1,0,0.1,0,0.2,0c0.1,0,0.1,0.1,0.1,0.1l1.1,1.6c0,0,2.5,0,5.4,0"/>
    <defs>
        <filter id="Adobe_OpacityMaskFilter" filterUnits="userSpaceOnUse" x="2.5" y="1.5" width="21" height="22">
            <feColorMatrix type="matrix" values="1 0 0 0 0  0 1 0 0 0  0 0 1 0 0  0 0 0 1 0"/>
        </filter>
    </defs>
    <mask maskUnits="userSpaceOnUse" x="2.5" y="1.5" width="21" height="22" id="path-3-inside-1_1_">
        <path fill="#FFFFFF" filter="url(#Adobe_OpacityMaskFilter)" d="M4.4,9C4.1,8.8,3.9,8.4,4.1,8.1C5,6.4,6.3,5,8,4.1
		c1.9-1,4-1.4,6.1-1s4,1.4,5.4,3c1.4,1.6,2.3,3.6,2.4,5.7c0.1,2.1-0.4,4.2-1.6,6c-1.2,1.8-3,3.1-5,3.7s-4.2,0.6-6.2-0.2
		c-1.8-0.7-3.3-1.9-4.4-3.4c-0.2-0.3-0.1-0.8,0.2-1s0.8-0.1,1,0.2c0.9,1.3,2.2,2.2,3.7,2.8c1.7,0.6,3.6,0.7,5.3,0.2
		c1.7-0.5,3.2-1.6,4.3-3.1s1.5-3.3,1.4-5.1c-0.1-1.8-0.8-3.5-2.1-4.9s-2.8-2.2-4.6-2.6c-1.8-0.3-3.6,0-5.2,0.9
		C7.3,6.1,6.1,7.3,5.4,8.6C5.2,9,4.8,9.2,4.4,9z"/>
    </mask>
    <path mask="url(#path-3-inside-1_1_)" fill="#A5E1D2" d="M8,4.1l0.7,1.3L8,4.1z M9.1,21.4l-0.5,1.4L9.1,21.4z M5.4,8.6L4.1,7.9
	L5.4,8.6z M4.7,18l-1.2,0.9L4.7,18z M4.1,8.1l1.3,0.7L4.1,8.1z M5.4,8.8c0.7-1.4,1.9-2.6,3.3-3.3L7.3,2.8c-1.9,1-3.5,2.6-4.5,4.6
	L5.4,8.8z M8.7,5.5c1.6-0.9,3.4-1.2,5.2-0.8l0.5-3c-2.4-0.4-4.9,0-7.1,1.2L8.7,5.5z M13.9,4.6c1.8,0.3,3.4,1.2,4.6,2.5l2.2-2
	c-1.7-1.8-3.9-3.1-6.3-3.5L13.9,4.6z M18.4,7.1c1.2,1.3,1.9,3,2,4.8l3-0.2c-0.2-2.5-1.1-4.8-2.8-6.6L18.4,7.1z M20.5,12
	c0.1,1.8-0.4,3.6-1.4,5.1l2.5,1.7c1.4-2,2.1-4.5,1.9-6.9L20.5,12z M19.1,17c-1,1.5-2.5,2.6-4.2,3.1l0.9,2.9c2.4-0.7,4.4-2.2,5.8-4.3
	L19.1,17z M14.9,20.1c-1.7,0.5-3.6,0.5-5.2-0.2l-1.1,2.8c2.3,0.9,4.8,1,7.2,0.2L14.9,20.1z M9.6,20c-1.5-0.6-2.8-1.6-3.7-2.9
	l-2.5,1.7c1.3,1.8,3,3.2,5.1,3.9L9.6,20z M4.7,18.1c1.1,1.5,2.6,2.7,4.3,3.3l1.1-2.8c-1.2-0.5-2.2-1.3-3-2.3L4.7,18.1z M9.1,21.4
	c2,0.8,4.2,0.8,6.3,0.2l-0.9-2.9c-1.4,0.4-2.9,0.4-4.3-0.1L9.1,21.4z M15.3,21.6c2.1-0.6,3.8-1.9,5-3.7l-2.5-1.7
	c-0.8,1.2-2.1,2.1-3.5,2.6L15.3,21.6z M20.4,17.9c1.2-1.8,1.8-3.9,1.7-6l-3,0.2c0.1,1.5-0.3,2.9-1.1,4.2L20.4,17.9z M22,11.9
	c-0.1-2.1-1-4.2-2.4-5.8l-2.2,2c1,1.1,1.6,2.5,1.7,4L22,11.9z M19.6,6.1c-1.4-1.6-3.4-2.7-5.5-3l-0.5,3c1.5,0.3,2.8,1,3.8,2.1
	L19.6,6.1z M14.1,3.1c-2.1-0.4-4.3,0-6.2,1l1.4,2.6C10.7,6,12.2,5.8,13.6,6L14.1,3.1z M7.9,4.1C6.3,5,5,6.3,4.1,7.9l2.6,1.4
	c0.6-1.1,1.5-2,2.7-2.7L7.9,4.1z M4.1,7.9C4.2,7.7,4.6,7.4,5,7.6l-1.2,2.8c1.1,0.5,2.4-0.1,2.9-1L4.1,7.9z M5.7,18.3
	c-0.4,0.2-0.8,0.1-1-0.2l2.4-1.8c-0.6-0.9-1.9-1.3-3-0.6L5.7,18.3z M5.9,17.1c0.3,0.5,0.1,1-0.2,1.2l-1.5-2.6c-1,0.6-1.5,2-0.7,3.1
	L5.9,17.1z M2.8,7.4c-0.6,1.2,0,2.5,1.1,3L5,7.6c0.4,0.2,0.6,0.7,0.4,1.1L2.8,7.4z"/>
    <path fill="none" stroke="#A5E1D2" stroke-width="1.5" stroke-linecap="round" d="M20.6,21.1l4.6,5.1"/>
</svg>
