<svg fill="none" height="28" viewBox="0 0 27 28" width="27" xmlns="http://www.w3.org/2000/svg" xmlns:xlink="http://www.w3.org/1999/xlink">
    <mask id="a" fill="#fff">
        <path d="m4.42621 9.00186c-.36115-.15625-.52961-.57724-.34674-.92567.87517-1.66749 2.22932-3.04248 3.89554-3.94282 1.87579-1.0136 4.03799-1.36672 6.13879-1.00255s4.0181 1.42445 5.4432 3.01027c1.4252 1.58582 2.2755 3.60496 2.4141 5.73261.1386 2.1276-.4425 4.24-1.6499 5.9973s-2.9709 3.0574-5.0067 3.691-4.2256.564-6.21702-.1976c-1.76894-.6766-3.29003-1.8643-4.37414-3.4042-.22653-.3217-.11411-.761.22372-.9628s.77279-.0893 1.00356.2295c.91707 1.2666 2.1858 2.2442 3.65592 2.8065 1.69276.6474 3.55406.7066 5.28446.168s3.2294-1.6437 4.2557-3.1374 1.5203-3.2892 1.4024-5.0977c-.1178-1.8085-.8405-3.52475-2.0519-4.87269s-2.8411-2.24919-4.6268-2.55873c-1.7856-.30955-3.6235-.00939-5.21796.85216-1.38475.74826-2.51593 1.8822-3.26092 3.25711-.18747.34598-.60416.51396-.96531.35771z" fill="#fff"/>
    </mask>
    <path d="m21.5 12.5c0 4.9706-4.0294 9-9 9-4.97056 0-9-4.0294-9-9 0-4.97056 4.02944-9 9-9 4.9706 0 9 4.02944 9 9z" fill="#a5e1d2"/>
    <path d="m2.99121 13.774h2.19783 2.19782c.0678 0 .13428-.0189.192-.0547.05773-.0358.10443-.0869.13491-.1479l1.67634-3.3724c.03224-.0671.08398-.1227.14838-.1596s.13841-.0532.21224-.04684c.07384.00637.144.03514.20122.08244.05725.0474.09875.1111.11925.1827l1.6354 5.4789c.0227.0705.0661.1326.1245.1779.0584.0454.1291.0719.2027.0761.0737.0043.1469-.014.21-.0524.0632-.0383.1133-.095.1439-.1625l1.5275-3.5847c.026-.0606.0678-.1131.1209-.1519.0532-.0387.1157-.0624.1811-.0685.0653-.0061.1312.0056.1905.0338.0593.0283.11.0721.1467.1269l1.0857 1.6378h5.3511" stroke="#14555a" stroke-linecap="round" stroke-linejoin="round" stroke-width="1.5"/>
    <path d="m7.97501 4.13337.71308 1.31966zm1.12247 17.23103-.53586 1.401zm-3.70596-12.72025-1.31884-.71461zm-.66818 9.31605-1.22652.8635zm-.64387-9.88401 1.32818.69709zm1.32818.69709c.73698-1.40419 1.87733-2.56207 3.28044-3.32025l-1.42617-2.63933c-1.92932 1.04252-3.49727 2.6346-4.51063 4.5654zm3.28044-3.32025c1.57961-.85356 3.40041-1.15092 5.16951-.84426l.5124-2.95591c-2.4325-.42167-4.93611-.01279-7.10808 1.16084zm5.16951-.84426c1.7691.30667 3.3836 1.19955 4.5838 2.53497l2.2313-2.0053c-1.6502-1.83621-3.8702-3.06391-6.3027-3.48558zm4.5838 2.53497c1.2002 1.33543 1.9162 3.03576 2.0329 4.82746l2.9937-.195c-.1605-2.4636-1.1451-4.80155-2.7953-6.63776zm2.0329 4.82746c.1167 1.7917-.3727 3.5705-1.3894 5.0504l2.4726 1.6988c1.398-2.0347 2.0709-4.4807 1.9105-6.9442zm-1.3894 5.0504c-1.0168 1.4798-2.5018 2.5746-4.2162 3.1082l.8916 2.8644c2.3572-.7337 4.3991-2.239 5.7972-4.2738zm-4.2162 3.1082c-1.7143.5336-3.5584.4749-5.23537-.1665l-1.07171 2.8021c2.30588.8819 4.84138.9625 7.19868.2288zm-5.23537-.1665c-1.48961-.5697-2.77055-1.5699-3.68347-2.8666l-2.45304 1.727c1.2553 1.7831 3.01654 3.1583 5.0648 3.9417zm-4.89769-1.8568c1.08743 1.502 2.59182 2.6612 4.33505 3.3279l1.07171-2.802c-1.19702-.4579-2.23009-1.2539-2.9768-2.2852zm4.33505 3.3279c2.00711.7677 4.21421.8379 6.26611.1992l-.8916-2.8644c-1.409.4385-2.9245.3903-4.3028-.1368zm6.26611.1992c2.0519-.6386 3.8292-1.9489 5.0462-3.7201l-2.4726-1.6989c-.8357 1.2162-2.0562 2.116-3.4652 2.5546zm5.0462-3.7201c1.2169-1.7712 1.8027-3.9003 1.663-6.0447l-2.9937.195c.0959 1.4726-.3063 2.9346-1.1419 4.1508zm1.663-6.0447c-.1397-2.14442-.9967-4.17951-2.4332-5.77784l-2.2313 2.0053c.9864 1.09755 1.5749 2.49504 1.6708 3.96754zm-2.4332-5.77784c-1.4364-1.59834-3.3688-2.667-5.4862-3.03404l-.5124 2.95592c1.454.25204 2.7809.98587 3.7673 2.08342zm-5.4862-3.03404c-2.1173-.36704-4.29665-.01114-6.18725 1.01046l1.42618 2.63932c1.29827-.70151 2.79477-.94591 4.24867-.69386zm-6.18725 1.01046c-1.642.88727-2.98328 2.23183-3.86667 3.86216l2.63768 1.42922c.60659-1.1195 1.52766-2.0428 2.65517-2.65206zm-3.86667 3.86216c.1427-.26337.52229-.48904.94915-.30436l-1.19125 2.75332c1.14916.4972 2.36214-.0644 2.87978-1.01974zm1.64357 10.35566c-.39929.2385-.80495.064-.98061-.1787l2.42996-1.7593c-.6372-.8801-1.91279-1.2796-2.98773-.6376zm.23361-1.1885c.31906.4532.1118.9822-.23361 1.1885l-1.53838-2.5756c-1.02107.6099-1.45317 2.0174-.68105 3.1141zm-3.19857-9.7176c-.62332 1.18762-.01227 2.52717 1.07929 2.9994l1.19125-2.75332c.36926.15977.64339.65734.38582 1.1481z" fill="#14555a" mask="url(#a)"/>
    <path d="m20.6475 21.1475 4.6093 5.1093" stroke="#14555a" stroke-linecap="round" stroke-width="1.5"/>
</svg>
