<svg fill="none" height="24" viewBox="0 0 24 24" width="24" xmlns="http://www.w3.org/2000/svg" xmlns:xlink="http://www.w3.org/1999/xlink">
    <linearGradient id="a" gradientUnits="userSpaceOnUse" x1="23.3936" x2="-1.91134" y1="14.7703" y2="2.51718">
        <stop offset="0" stop-color="#c8c8c8"/>
        <stop offset=".204062" stop-color="#c8c8c8"/>
        <stop offset=".27559" stop-color="#fff"/>
        <stop offset=".433654" stop-color="#fff"/>
        <stop offset=".52559" stop-color="#c8c8c8"/>
        <stop offset=".693957" stop-color="#c8c8c8"/>
        <stop offset=".790896" stop-color="#fff"/>
        <stop offset="1" stop-color="#fff"/>
    </linearGradient>
    <path d="m20.5 22.4578h-17c-1.10457 0-2-.8936-2-1.9959v-10.4492c0-.64462.31193-1.24952.83752-1.62417l8.49998-6.05896c.6954-.49569 1.6296-.49569 2.325 0l8.5 6.05896c.5256.37465.8375.97955.8375 1.62417v10.4492c0 1.1023-.8954 1.9959-2 1.9959z" fill="#575757"/>
    <path d="m8.5 19.464v-5.4887c0-.5512.44772-.998 1-.998h5c.5523 0 1 .4468 1 .998v5.4887m-12 2.9938h17c1.1046 0 2-.8936 2-1.9959v-10.4492c0-.64462-.3119-1.24952-.8375-1.62417l-8.5-6.05896c-.6954-.49569-1.6296-.49569-2.325 0l-8.49998 6.05896c-.52559.37465-.83752.97955-.83752 1.62417v10.4492c0 1.1023.89543 1.9959 2 1.9959z" stroke="url(#a)" stroke-linejoin="round" stroke-width="1.5"/>
</svg>
