<svg width="24" height="24" viewBox="0 0 24 24" fill="none" xmlns="http://www.w3.org/2000/svg">
<path d="M19.3514 4.1486C23.5495 8.34673 23.5495 15.1532 19.3514 19.3514C15.1533 23.5495 8.34674 23.5495 4.1486 19.3514C-0.0495343 15.1533 -0.0495343 8.34676 4.1486 4.1486C8.34674 -0.0495322 15.1533 -0.0495322 19.3514 4.1486Z" fill="#575757"/>
<path d="M3.20251 5.22957C6.41989 8.26016 10.7804 9.97117 15.3333 9.98954C17.6455 9.98876 19.9332 9.54314 22.0556 8.68006" fill="#575757"/>
<path d="M15.1278 16.5384C13.2621 18.2931 10.2378 18.2931 8.37206 16.5384H15.1278Z" fill="#575757"/>
<path d="M3.20251 5.22957C6.41989 8.26016 10.7804 9.97117 15.3333 9.98954C17.6455 9.98876 19.9332 9.54314 22.0556 8.68006M15.1278 16.5384C13.2621 18.2931 10.2378 18.2931 8.37206 16.5384M19.3514 4.1486C23.5495 8.34673 23.5495 15.1532 19.3514 19.3514C15.1533 23.5495 8.34674 23.5495 4.1486 19.3514C-0.0495343 15.1533 -0.0495343 8.34676 4.1486 4.1486C8.34674 -0.0495321 15.1533 -0.0495321 19.3514 4.1486Z" stroke="url(#paint0_linear)" stroke-width="1.5" stroke-linecap="round" stroke-linejoin="round"/>
<defs>
<linearGradient id="paint0_linear" x1="23.4149" y1="14.4375" x2="-2.72618" y2="2.0809" gradientUnits="userSpaceOnUse">
<stop stop-color="#C8C8C8"/>
<stop offset="0.204062" stop-color="#C8C8C8"/>
<stop offset="0.27559" stop-color="white"/>
<stop offset="0.433654" stop-color="white"/>
<stop offset="0.52559" stop-color="#C8C8C8"/>
<stop offset="0.693957" stop-color="#C8C8C8"/>
<stop offset="0.790896" stop-color="white"/>
<stop offset="1" stop-color="white"/>
</linearGradient>
</defs>
</svg>
