<svg fill="none" height="24" viewBox="0 0 25 24" width="25" xmlns="http://www.w3.org/2000/svg" xmlns:xlink="http://www.w3.org/1999/xlink">
    <linearGradient id="a">
        <stop offset="0" stop-color="#c8c8c8"/>
        <stop offset=".204062" stop-color="#c8c8c8"/>
        <stop offset=".27559" stop-color="#fff"/>
        <stop offset=".433654" stop-color="#fff"/>
        <stop offset=".52559" stop-color="#c8c8c8"/>
        <stop offset=".693957" stop-color="#c8c8c8"/>
        <stop offset=".790896" stop-color="#fff"/>
        <stop offset="1" stop-color="#fff"/>
    </linearGradient>
    <linearGradient id="b" gradientUnits="userSpaceOnUse" x1="24.4574" x2="-2.67172" xlink:href="#a" y1="14.75" y2="1.63489"/>
    <linearGradient id="c" gradientUnits="userSpaceOnUse" x1="20.0851" x2="17.6534" xlink:href="#a" y1="14.25" y2="13.1005"/>
    <path d="m20 23h-17c-1.10457 0-2-.8954-2-2v-13c0-1.10457.89543-2 2-2h3l10.4671-4.55091c.5495-.23892 1.1844.05578 1.3565.62972l1.1764 3.92119h1c1.1046 0 2 .89543 2 2v3.5h.5c.5523 0 1 .4477 1 1v3c0 .5523-.4477 1-1 1h-.5v4.5c0 1.1046-.8954 2-2 2z" fill="#575757"/>
    <path d="m22 11.5c0-1.2656 0-2.45028 0-3.5 0-1.10457-.8954-2-2-2h-1m3 5.5h-4.5c-.5523 0-1 .4477-1 1v3c0 .5523.4477 1 1 1h4.5m0-5h.5c.5523 0 1 .4477 1 1v3c0 .5523-.4477 1-1 1h-.5m0 0v4.5c0 1.1046-.8954 2-2 2h-17c-1.10457 0-2-.8954-2-2v-13c0-1.10457.89543-2 2-2h3m0 0 10.4671-4.55091c.5495-.23892 1.1844.05578 1.3565.62972l1.1764 3.92119m-13 0h13" stroke="url(#b)" stroke-width="1.5"/>
    <circle cx="19" cy="14" fill="url(#c)" r="1"/>
</svg>
