<svg fill="none" height="24" viewBox="0 0 25 24" width="25" xmlns="http://www.w3.org/2000/svg">
    <path d="m22 11.5c0-1.2656 0-2.45028 0-3.5 0-1.10457-.8954-2-2-2h-1m3 5.5h-4.5c-.5523 0-1 .4477-1 1v3c0 .5523.4477 1 1 1h4.5m0-5h.5c.5523 0 1 .4477 1 1v3c0 .5523-.4477 1-1 1h-.5m0 0v4.5c0 1.1046-.8954 2-2 2h-17c-1.10457 0-2-.8954-2-2v-13c0-1.10457.89543-2 2-2h3m0 0 10.4671-4.55091c.5495-.23892 1.1844.05578 1.3565.62972l1.1764 3.92119m-13 0h13" stroke="#757575" stroke-width="1.5"/>
    <circle cx="19" cy="14" fill="#757575" r="1"/>
</svg>
