<svg fill="none" height="24" viewBox="0 0 24 24" width="24" xmlns="http://www.w3.org/2000/svg">
    <g fill="#494024">
        <path d="m8.5 6.25c4.1421 0 7.5-1.11929 7.5-2.5s-3.3579-2.5-7.5-2.5c-4.14214 0-7.5 1.11929-7.5 2.5s3.35786 2.5 7.5 2.5z"/>
        <path d="m8 15v1.2363 3.4527c0 .5875.5795 1.1289 1.55397 1.561 1.37123.6081 3.52473 1 5.94603 1 4.142 0 7.5-1.1467 7.5-2.561v-4.689"/>
        <path d="m1 3.75v4.93903c0 1.41427 3.358 2.56097 7.5 2.56097s7.5-1.1467 7.5-2.56097v-4.93903c0 1.38071-3.3579 2.5-7.5 2.5-4.14214 0-7.5-1.11929-7.5-2.5z"/>
        <path d="m1 8.68903v4.99997c0 1.3241 2.94353 2.4137 6.71813 2.5473h.28187v-1.2363c0-1.3807 3.3579-2.5 7.5-2.5.168 0 .3347.0018.5.0055v-1.286-2.53047c0 1.41427-3.358 2.56097-7.5 2.56097s-7.5-1.1467-7.5-2.56097z"/>
        <path d="m1 13.689v5c0 1.4143 3.358 2.561 7.5 2.561h1.05397c-.97447-.4321-1.55397-.9735-1.55397-1.561v-3.4527h-.28187c-3.7746-.1336-6.71813-1.2232-6.71813-2.5473z"/>
        <path d="m15.5 12.5c-4.1421 0-7.5 1.1193-7.5 2.5 0 1.4142 3.358 2.561 7.5 2.561s7.5-1.1468 7.5-2.561c0-1.3247-3.091-2.4088-7-2.4945-.1653-.0037-.332-.0055-.5-.0055z"/>
    </g>
    <path d="m1 3.75v14.939m0-14.939c0 1.38071 3.35786 2.5 7.5 2.5 4.1421 0 7.5-1.11929 7.5-2.5m-15 0c0-1.38071 3.35786-2.5 7.5-2.5 4.1421 0 7.5 1.11929 7.5 2.5m-15 0v4.93903m0 9.99997c0 1.4143 3.358 2.561 7.5 2.561h1.05397m-8.55397-2.561v-5m15-9.939v7.4695m0-7.4695v4.93903m-15 4.99997c0 1.3241 2.94353 2.4137 6.71813 2.5473h.28187m-7-2.5473v-4.99997m0 0c0 1.41427 3.358 2.56097 7.5 2.56097s7.5-1.1467 7.5-2.56097m0 0v2.53047m0 0v1.286m-8 2.4945c0-1.3807 3.3579-2.5 7.5-2.5.168 0 .3347.0018.5.0055m-8 2.4945c0 1.4142 3.358 2.561 7.5 2.561s7.5-1.1468 7.5-2.561m-15 0v1.2363m15-1.2363v4.689c0 1.4143-3.358 2.561-7.5 2.561-2.4213 0-4.5748-.3919-5.94603-1m13.44603-6.25c0-1.3247-3.091-2.4088-7-2.4945m-8 3.7308v3.4527c0 .5875.5795 1.1289 1.55397 1.561" stroke="#bfa970" stroke-linecap="round" stroke-linejoin="round" stroke-width="1.5"/>
</svg>
