<svg width="24" height="10" viewBox="0 0 24 10" fill="none" xmlns="http://www.w3.org/2000/svg">
    <path fill-rule="evenodd" clip-rule="evenodd" d="M19.0521 10C16.9529 10 15.159 8.67888 14.4401 6.81451C14.4437 6.87795 14.4455 6.94358 14.4455 7.01149C14.4455 10 11.8863 9.88506 11.8863 9.88506H7.62085V0.103448H11.7156C12.455 0.103448 14.5592 0.511494 14.5592 2.60345C14.5592 2.71606 14.5557 2.82336 14.5488 2.92562C15.3287 1.19954 17.0518 0 19.0521 0C21.7848 0 24 2.23858 24 5C24 7.76142 21.7848 10 19.0521 10ZM14.1043 5C14.1043 5.26572 14.1248 5.52659 14.1643 5.7811C13.8516 5.2276 13.3637 5.04962 13.1585 4.97476C13.0501 4.93522 13.0205 4.92445 13.1374 4.9023C13.4809 4.83919 13.8759 4.65999 14.1622 4.23246C14.1241 4.48267 14.1043 4.739 14.1043 5ZM0 9.88506V0.103448H2.67299V3.7931H4.37915V0.103448H7.05213V9.88506H4.37915V6.26437H2.67299V9.88506H0ZM10.0095 2.48851V3.96552H11.4313C11.4313 3.96552 12 3.89656 12 3.18966C12 2.48276 11.4313 2.48851 11.4313 2.48851H10.0095ZM10.0095 6.09196V7.58621H11.4313C11.4313 7.58621 12 7.52874 12 6.78161C12 6.09196 11.4313 6.09196 11.4313 6.09196H10.0095ZM21.4976 5C21.4976 6.36484 20.4027 7.47127 19.0521 7.47127C17.7015 7.47127 16.6066 6.36484 16.6066 5C16.6066 3.63516 17.7015 2.52874 19.0521 2.52874C20.4027 2.52874 21.4976 3.63516 21.4976 5Z" fill="black"/>
</svg>
