<?xml version="1.0" encoding="UTF-8" standalone="no"?>
<svg
   xmlns:dc="http://purl.org/dc/elements/1.1/"
   xmlns:cc="http://creativecommons.org/ns#"
   xmlns:rdf="http://www.w3.org/1999/02/22-rdf-syntax-ns#"
   xmlns:svg="http://www.w3.org/2000/svg"
   xmlns="http://www.w3.org/2000/svg"
   xmlns:sodipodi="http://sodipodi.sourceforge.net/DTD/sodipodi-0.dtd"
   xmlns:inkscape="http://www.inkscape.org/namespaces/inkscape"
   width="48"
   height="48"
   fill="none"
   viewBox="0 0 48 48"
   version="1.1"
   id="svg14"
   sodipodi:docname="eufemia.svg"
   inkscape:version="0.92.2 5c3e80d, 2017-08-06">
  <metadata
     id="metadata20">
    <rdf:RDF>
      <cc:Work
         rdf:about="">
        <dc:format>image/svg+xml</dc:format>
        <dc:type
           rdf:resource="http://purl.org/dc/dcmitype/StillImage" />
      </cc:Work>
    </rdf:RDF>
  </metadata>
  <defs
     id="defs18" />
  <sodipodi:namedview
     pagecolor="#ffffff"
     bordercolor="#666666"
     borderopacity="1"
     objecttolerance="10"
     gridtolerance="10"
     guidetolerance="10"
     inkscape:pageopacity="0"
     inkscape:pageshadow="2"
     inkscape:window-width="738"
     inkscape:window-height="480"
     id="namedview16"
     showgrid="false"
     inkscape:zoom="4.9166667"
     inkscape:cx="24"
     inkscape:cy="24"
     inkscape:window-x="0"
     inkscape:window-y="0"
     inkscape:window-maximized="0"
     inkscape:current-layer="svg14" />
  <path
     style="color:#000000;font-style:normal;font-variant:normal;font-weight:normal;font-stretch:normal;font-size:medium;line-height:normal;font-family:sans-serif;font-variant-ligatures:normal;font-variant-position:normal;font-variant-caps:normal;font-variant-numeric:normal;font-variant-alternates:normal;font-feature-settings:normal;text-indent:0;text-align:start;text-decoration:none;text-decoration-line:none;text-decoration-style:solid;text-decoration-color:#000000;letter-spacing:normal;word-spacing:normal;text-transform:none;writing-mode:lr-tb;direction:ltr;text-orientation:mixed;dominant-baseline:auto;baseline-shift:baseline;text-anchor:start;white-space:normal;shape-padding:0;clip-rule:nonzero;display:inline;overflow:visible;visibility:visible;opacity:1;isolation:auto;mix-blend-mode:normal;color-interpolation:sRGB;color-interpolation-filters:linearRGB;solid-color:#000000;solid-opacity:1;vector-effect:none;fill:#000000;fill-opacity:1;fill-rule:nonzero;stroke:none;stroke-width:2;stroke-linecap:round;stroke-linejoin:round;stroke-miterlimit:4;stroke-dasharray:none;stroke-dashoffset:0;stroke-opacity:1;color-rendering:auto;image-rendering:auto;shape-rendering:auto;text-rendering:auto;enable-background:accumulate"
     d="m 9.2988281,18.140625 a 1.0001,1.0001 0 0 0 -0.53125,0.183594 l -7.3339843,5.041015 a 1.0001,1.0001 0 0 0 0,1.648438 l 7.3339843,5.041016 A 1.0001,1.0001 0 1 0 9.9003906,28.408203 L 3.765625,24.189453 9.9003906,19.972656 A 1.0001,1.0001 0 0 0 9.2988281,18.140625 Z"
     id="path2"
     inkscape:connector-curvature="0" />
  <path
     style="color:#000000;font-style:normal;font-variant:normal;font-weight:normal;font-stretch:normal;font-size:medium;line-height:normal;font-family:sans-serif;font-variant-ligatures:normal;font-variant-position:normal;font-variant-caps:normal;font-variant-numeric:normal;font-variant-alternates:normal;font-feature-settings:normal;text-indent:0;text-align:start;text-decoration:none;text-decoration-line:none;text-decoration-style:solid;text-decoration-color:#000000;letter-spacing:normal;word-spacing:normal;text-transform:none;writing-mode:lr-tb;direction:ltr;text-orientation:mixed;dominant-baseline:auto;baseline-shift:baseline;text-anchor:start;white-space:normal;shape-padding:0;clip-rule:nonzero;display:inline;overflow:visible;visibility:visible;opacity:1;isolation:auto;mix-blend-mode:normal;color-interpolation:sRGB;color-interpolation-filters:linearRGB;solid-color:#000000;solid-opacity:1;vector-effect:none;fill:#000000;fill-opacity:1;fill-rule:nonzero;stroke:none;stroke-width:2;stroke-linecap:round;stroke-linejoin:round;stroke-miterlimit:4;stroke-dasharray:none;stroke-dashoffset:0;stroke-opacity:1;color-rendering:auto;image-rendering:auto;shape-rendering:auto;text-rendering:auto;enable-background:accumulate"
     d="m 38.671875,18.140625 a 1.0001,1.0001 0 0 0 -0.572266,1.832031 l 6.134766,4.216797 -6.134766,4.21875 a 1.0001,1.0001 0 1 0 1.132813,1.646485 l 7.333984,-5.041016 a 1.0001,1.0001 0 0 0 0,-1.648438 l -7.333984,-5.041015 a 1.0001,1.0001 0 0 0 -0.560547,-0.183594 z"
     id="path4"
     inkscape:connector-curvature="0" />
  <path
     style="color:#000000;font-style:normal;font-variant:normal;font-weight:normal;font-stretch:normal;font-size:medium;line-height:normal;font-family:sans-serif;font-variant-ligatures:normal;font-variant-position:normal;font-variant-caps:normal;font-variant-numeric:normal;font-variant-alternates:normal;font-feature-settings:normal;text-indent:0;text-align:start;text-decoration:none;text-decoration-line:none;text-decoration-style:solid;text-decoration-color:#000000;letter-spacing:normal;word-spacing:normal;text-transform:none;writing-mode:lr-tb;direction:ltr;text-orientation:mixed;dominant-baseline:auto;baseline-shift:baseline;text-anchor:start;white-space:normal;shape-padding:0;clip-rule:nonzero;display:inline;overflow:visible;visibility:visible;opacity:1;isolation:auto;mix-blend-mode:normal;color-interpolation:sRGB;color-interpolation-filters:linearRGB;solid-color:#000000;solid-opacity:1;vector-effect:none;fill:#000000;fill-opacity:1;fill-rule:nonzero;stroke:none;stroke-width:2;stroke-linecap:round;stroke-linejoin:round;stroke-miterlimit:4;stroke-dasharray:none;stroke-dashoffset:0;stroke-opacity:1;color-rendering:auto;image-rendering:auto;shape-rendering:auto;text-rendering:auto;enable-background:accumulate"
     d="m 23.429688,23.253906 a 1.0001,1.0001 0 0 0 -0.923829,0.605469 l -1.998047,4.488281 a 1.0001,1.0001 0 1 0 1.826172,0.814453 l 2,-4.488281 a 1.0001,1.0001 0 0 0 -0.904296,-1.419922 z"
     id="path6"
     inkscape:connector-curvature="0" />
  <path
     style="color:#000000;font-style:normal;font-variant:normal;font-weight:normal;font-stretch:normal;font-size:medium;line-height:normal;font-family:sans-serif;font-variant-ligatures:normal;font-variant-position:normal;font-variant-caps:normal;font-variant-numeric:normal;font-variant-alternates:normal;font-feature-settings:normal;text-indent:0;text-align:start;text-decoration:none;text-decoration-line:none;text-decoration-style:solid;text-decoration-color:#000000;letter-spacing:normal;word-spacing:normal;text-transform:none;writing-mode:lr-tb;direction:ltr;text-orientation:mixed;dominant-baseline:auto;baseline-shift:baseline;text-anchor:start;white-space:normal;shape-padding:0;clip-rule:nonzero;display:inline;overflow:visible;visibility:visible;opacity:1;isolation:auto;mix-blend-mode:normal;color-interpolation:sRGB;color-interpolation-filters:linearRGB;solid-color:#000000;solid-opacity:1;vector-effect:none;fill:#000000;fill-opacity:1;fill-rule:nonzero;stroke:none;stroke-width:2;stroke-linecap:round;stroke-linejoin:round;stroke-miterlimit:4;stroke-dasharray:none;stroke-dashoffset:0;stroke-opacity:1;color-rendering:auto;image-rendering:auto;shape-rendering:auto;text-rendering:auto;enable-background:accumulate"
     d="m 23.166016,19.960938 c -0.674184,0.263761 -1.250191,0.782372 -1.564454,1.488281 -0.628513,1.411789 -5.75e-4,3.101421 1.41211,3.730469 1.412705,0.628901 3.088145,-0.03355 3.716797,-1.445313 0.628513,-1.41179 5.75e-4,-3.101421 -1.41211,-3.730469 -0.706404,-0.314516 -1.47816,-0.30673 -2.152343,-0.04297 z m 0.71875,1.853515 c 0.193391,-0.07631 0.413444,-0.07596 0.61914,0.01563 0.411315,0.183153 0.595477,0.651633 0.400391,1.089844 -0.195148,0.438242 -0.66683,0.616692 -1.078125,0.433594 -0.411315,-0.183153 -0.593524,-0.651634 -0.398438,-1.089844 0.09754,-0.219092 0.26364,-0.372905 0.457032,-0.449219 z"
     id="path8"
     inkscape:connector-curvature="0" />
  <path
     style="color:#000000;font-style:normal;font-variant:normal;font-weight:normal;font-stretch:normal;font-size:medium;line-height:normal;font-family:sans-serif;font-variant-ligatures:normal;font-variant-position:normal;font-variant-caps:normal;font-variant-numeric:normal;font-variant-alternates:normal;font-feature-settings:normal;text-indent:0;text-align:start;text-decoration:none;text-decoration-line:none;text-decoration-style:solid;text-decoration-color:#000000;letter-spacing:normal;word-spacing:normal;text-transform:none;writing-mode:lr-tb;direction:ltr;text-orientation:mixed;dominant-baseline:auto;baseline-shift:baseline;text-anchor:start;white-space:normal;shape-padding:0;clip-rule:nonzero;display:inline;overflow:visible;visibility:visible;opacity:1;isolation:auto;mix-blend-mode:normal;color-interpolation:sRGB;color-interpolation-filters:linearRGB;solid-color:#000000;solid-opacity:1;vector-effect:none;fill:#000000;fill-opacity:1;fill-rule:nonzero;stroke:none;stroke-width:2;stroke-linecap:round;stroke-linejoin:round;stroke-miterlimit:4;stroke-dasharray:none;stroke-dashoffset:0;stroke-opacity:1;color-rendering:auto;image-rendering:auto;shape-rendering:auto;text-rendering:auto;enable-background:accumulate"
     d="m 22.904297,13.355469 a 1.0001,1.0001 0 0 0 -0.576172,0.169922 l -4.519531,3.039062 a 1.0001,1.0001 0 0 0 -0.08203,0.0625 c -0.504227,0.420211 -0.915937,0.940258 -1.207031,1.529297 -0.291099,0.589051 -0.454601,1.232786 -0.482422,1.888672 a 1.0001,1.0001 0 0 0 0,0.08398 c 0,0 0.153689,3.758664 0.365235,7.671875 0.105772,1.956606 0.226907,3.9515 0.349609,5.542969 0.06135,0.795734 0.122864,1.489756 0.185547,2.037109 0.06268,0.547354 0.06871,0.84557 0.232422,1.28125 a 1.0001,1.0001 0 0 0 1.300781,0.578125 c 0.437158,-0.171361 0.662625,-0.366541 1.109375,-0.6875 0.44675,-0.320958 1.000244,-0.739851 1.628906,-1.228515 1.257325,-0.977328 2.809544,-2.227673 4.324219,-3.462891 3.02935,-2.470436 5.90625,-4.880859 5.90625,-4.880859 a 1.0001,1.0001 0 0 0 0.05859,-0.05273 c 0.469003,-0.4596 0.835162,-1.012658 1.078125,-1.623046 0.243052,-0.610613 0.357066,-1.264196 0.332031,-1.919922 a 1.0001,1.0001 0 0 0 -0.0098,-0.101563 l -0.765626,-5.392578 a 1.0001,1.0001 0 0 0 -0.583984,-0.771484 l -8.255859,-3.677735 a 1.0001,1.0001 0 0 0 -0.388672,-0.08594 z m 0.08008,2.138672 7.246094,3.226562 0.675781,4.755859 c 0.01198,0.371008 -0.04951,0.743187 -0.1875,1.089844 -0.138075,0.346883 -0.34944,0.658309 -0.613281,0.919922 -0.04643,0.03889 -2.844316,2.38455 -5.835938,4.824219 -1.508162,1.229907 -3.05454,2.47399 -4.289062,3.433594 -0.435996,0.338902 -0.766564,0.584684 -1.107422,0.83789 -0.04201,-0.425009 -0.0842,-0.838039 -0.126953,-1.392578 -0.120523,-1.5632 -0.240376,-3.547724 -0.345703,-5.496094 -0.208771,-3.861886 -0.3586,-7.511935 -0.361329,-7.578125 0.01775,-0.371785 0.109816,-0.737218 0.275391,-1.072265 0.165196,-0.33428 0.400304,-0.628065 0.683594,-0.867188 z"
     id="path10"
     inkscape:connector-curvature="0" />
  <path
     style="color:#000000;font-style:normal;font-variant:normal;font-weight:normal;font-stretch:normal;font-size:medium;line-height:normal;font-family:sans-serif;font-variant-ligatures:normal;font-variant-position:normal;font-variant-caps:normal;font-variant-numeric:normal;font-variant-alternates:normal;font-feature-settings:normal;text-indent:0;text-align:start;text-decoration:none;text-decoration-line:none;text-decoration-style:solid;text-decoration-color:#000000;letter-spacing:normal;word-spacing:normal;text-transform:none;writing-mode:lr-tb;direction:ltr;text-orientation:mixed;dominant-baseline:auto;baseline-shift:baseline;text-anchor:start;white-space:normal;shape-padding:0;clip-rule:nonzero;display:inline;overflow:visible;visibility:visible;opacity:1;isolation:auto;mix-blend-mode:normal;color-interpolation:sRGB;color-interpolation-filters:linearRGB;solid-color:#000000;solid-opacity:1;vector-effect:none;fill:#000000;fill-opacity:1;fill-rule:nonzero;stroke:none;stroke-width:2;stroke-linecap:round;stroke-linejoin:round;stroke-miterlimit:4;stroke-dasharray:none;stroke-dashoffset:0;stroke-opacity:1;color-rendering:auto;image-rendering:auto;shape-rendering:auto;text-rendering:auto;enable-background:accumulate"
     d="m 23.683594,7.9277344 c -0.359185,0.055817 -0.694541,0.2127033 -0.966797,0.4511718 -0.272266,0.2384566 -0.472022,0.547885 -0.576172,0.8945313 -0.104155,0.3459715 -0.108132,0.7145357 -0.01172,1.0644535 l -0.03516,-0.3125 -0.207031,4.28125 a 1.0001,1.0001 0 0 0 0.591797,0.96289 l 8.257812,3.675781 a 1.0001,1.0001 0 0 0 1.095703,-0.189453 l 3.126953,-2.984375 -0.242187,0.171875 c 0.324512,-0.162465 0.5938,-0.413902 0.78125,-0.722656 a 1.0001,1.0001 0 0 0 0.002,0 c 0.187033,-0.308408 0.283928,-0.664089 0.279297,-1.025391 -0.0048,-0.362338 -0.113434,-0.717191 -0.3125,-1.021484 -0.198815,-0.30391 -0.481942,-0.545223 -0.814453,-0.693359 a 1.0001,1.0001 0 0 0 0,-0.002 L 24.744141,8.0683594 C 24.411063,7.9201832 24.042791,7.8719366 23.683594,7.9277344 Z m 0.40039,2.0351562 9.601563,4.2753904 a 1.0001,1.0001 0 0 0 -0.107422,0.08789 l -2.642578,2.519531 -7.017578,-3.125 0.173828,-3.599609 a 1.0001,1.0001 0 0 0 -0.0078,-0.1582034 z"
     id="path12"
     inkscape:connector-curvature="0" />
</svg>
