<svg width="51" height="36" viewBox="0 0 51 36" fill="none" xmlns="http://www.w3.org/2000/svg">
<g filter="url(#filter0_ddi)">
<path fill-rule="evenodd" clip-rule="evenodd" d="M10.7433 8.75112C9.75903 8.36725 8.67713 8.17241 7.52605 8.17241H2.55401C2.24887 8.17241 2 8.41132 2 8.70705V25.2927C2 25.5873 2.24887 25.8276 2.55401 25.8276H7.52605C8.67713 25.8276 9.75903 25.6325 10.7433 25.2486C11.8878 24.8032 12.8603 24.1134 13.6319 23.1982C15.387 21.1201 15.6488 18.4882 15.6502 17.1052C15.6502 15.9284 15.4533 12.9578 13.6319 10.8015C12.8603 9.88663 11.8878 9.19678 10.7433 8.75112ZM7.52605 24.1724H3.70624V9.82759H7.52605C8.93002 9.82759 10.8972 10.1699 12.3089 11.8411C13.8263 13.6374 13.9437 16.3247 13.9437 17.1052C13.9437 18.2692 13.7313 20.4746 12.3089 22.1586C10.8972 23.8301 8.93002 24.1724 7.52605 24.1724ZM37.8319 17.3252V24.1924H42.6063C47.3097 24.1924 47.3097 21.465 47.3097 20.5682C47.3097 18.7102 45.6475 17.3252 43.27 17.3252H37.8319ZM37.8319 9.81103H41.8686C43.2945 9.81103 44.3601 10.0452 45.034 10.5076C45.476 10.8097 46.0607 11.381 46.0607 12.8505C46.0607 15.4825 43.925 15.6866 43.27 15.6866H37.8319V9.81103ZM46.3385 16.3669L46.2469 16.3219L46.3243 16.2566C46.9752 15.7004 47.7516 14.6568 47.7516 12.8505C47.7516 11.1992 47.1652 9.96027 46.0092 9.16855C45.0298 8.49821 43.6756 8.17241 41.8686 8.17241H36.6747C36.3721 8.17241 36.127 8.41048 36.1256 8.70345V25.3C36.1256 25.593 36.371 25.8276 36.6733 25.8276H42.6063C44.475 25.8276 45.9716 25.444 47.0554 24.6785C47.6842 24.2349 48.1688 23.6664 48.4952 22.9886C48.8299 22.2931 49 21.4802 49 20.5682C49 19.18 48.3909 17.8452 47.2852 16.9658C47.0011 16.7401 46.682 16.5385 46.3385 16.3669ZM32.1443 1V25.3296C32.1443 25.5476 32.0007 25.7361 31.7877 25.808C31.6156 25.866 31.4305 25.7567 31.3324 25.6278L20.2003 12.0135V33H18.4941V8.7147C18.4941 8.49677 18.6374 8.30505 18.8504 8.23608C18.9033 8.22008 18.959 8.21126 19.013 8.21126C19.1786 8.21126 19.3335 8.28739 19.4328 8.41788L30.438 21.9655V1H32.1443Z" fill="url(#paint0_linear)"/>
</g>
<defs>
<filter id="filter0_ddi" x="0" y="0" width="51" height="36" filterUnits="userSpaceOnUse" color-interpolation-filters="sRGB">
<feFlood flood-opacity="0" result="BackgroundImageFix"/>
<feColorMatrix in="SourceAlpha" type="matrix" values="0 0 0 0 0 0 0 0 0 0 0 0 0 0 0 0 0 0 127 0"/>
<feOffset dy="1"/>
<feGaussianBlur stdDeviation="1"/>
<feColorMatrix type="matrix" values="0 0 0 0 0 0 0 0 0 0 0 0 0 0 0 0 0 0 0.8 0"/>
<feBlend mode="normal" in2="BackgroundImageFix" result="effect1_dropShadow"/>
<feColorMatrix in="SourceAlpha" type="matrix" values="0 0 0 0 0 0 0 0 0 0 0 0 0 0 0 0 0 0 127 0"/>
<feOffset/>
<feGaussianBlur stdDeviation="0.5"/>
<feColorMatrix type="matrix" values="0 0 0 0 0 0 0 0 0 0 0 0 0 0 0 0 0 0 0.89 0"/>
<feBlend mode="normal" in2="effect1_dropShadow" result="effect2_dropShadow"/>
<feBlend mode="normal" in="SourceGraphic" in2="effect2_dropShadow" result="shape"/>
<feColorMatrix in="SourceAlpha" type="matrix" values="0 0 0 0 0 0 0 0 0 0 0 0 0 0 0 0 0 0 127 0" result="hardAlpha"/>
<feOffset dy="1"/>
<feGaussianBlur stdDeviation="0.5"/>
<feComposite in2="hardAlpha" operator="arithmetic" k2="-1" k3="1"/>
<feColorMatrix type="matrix" values="0 0 0 0 1 0 0 0 0 1 0 0 0 0 1 0 0 0 1 0"/>
<feBlend mode="normal" in2="shape" result="effect3_innerShadow"/>
</filter>
<linearGradient id="paint0_linear" x1="51" y1="21" x2="3.82461" y2="-11.7521" gradientUnits="userSpaceOnUse">
<stop stop-color="#C8C8C8"/>
<stop offset="0.204062" stop-color="#C8C8C8"/>
<stop offset="0.27559" stop-color="white"/>
<stop offset="0.433654" stop-color="white"/>
<stop offset="0.52559" stop-color="#C8C8C8"/>
<stop offset="0.693957" stop-color="#C8C8C8"/>
<stop offset="0.790896" stop-color="white"/>
<stop offset="1" stop-color="white"/>
</linearGradient>
</defs>
</svg>
