<svg width="32" height="32" viewBox="0 0 32 32" fill="none" xmlns="http://www.w3.org/2000/svg">
<path d="M16 32C24.8366 32 32 24.8366 32 16C32 7.16344 24.8366 0 16 0C7.16344 0 0 7.16344 0 16C0 24.8366 7.16344 32 16 32Z" fill="#DE2910"/>
<mask id="mask0" mask-type="alpha" maskUnits="userSpaceOnUse" x="0" y="0" width="32" height="32">
<path d="M16 32C24.8366 32 32 24.8366 32 16C32 7.16344 24.8366 0 16 0C7.16344 0 0 7.16344 0 16C0 24.8366 7.16344 32 16 32Z" fill="white"/>
</mask>
<g mask="url(#mask0)">
<path fill-rule="evenodd" clip-rule="evenodd" d="M14 5.28929L15.316 5.51232L16.303 6.40586L16.5274 5.09769L17.4263 4.11656L16.1103 3.89354L15.1233 3L14.8989 4.30816L14 5.28929ZM18.6654 9.17487L17.525 9.86479L17.5558 8.53811L16.8618 7.40451L18.1964 7.43519L19.3368 6.74528L19.306 8.07196L20 9.20556L18.6654 9.17487ZM16.9467 13.8407L18.2736 13.6945L19.4701 14.283L19.3231 12.964L19.9151 11.7746L18.5882 11.9208L17.3917 11.3323L17.5387 12.6513L16.9467 13.8407ZM14.8625 18L15.978 17.2709L17.3129 17.2553L16.5795 16.1465L16.5637 14.8195L15.4483 15.5486L14.1134 15.5642L14.8468 16.6731L14.8625 18Z" fill="#FFDE00"/>
<path fill-rule="evenodd" clip-rule="evenodd" d="M9 12.6837L5.90983 15L7.05 11.1941L4 8.81966L7.79483 8.78373L9 5L10.2052 8.78373L14 8.81966L10.95 11.1941L12.0902 15L9 12.6837Z" fill="#FFDE00"/>
</g>
</svg>
