<svg width="32" height="32" viewBox="0 0 32 32" fill="none" xmlns="http://www.w3.org/2000/svg">
<mask id="path-1-inside-1" fill="white">
<path d="M16 32C24.8366 32 32 24.8366 32 16C32 7.16344 24.8366 0 16 0C7.16344 0 0 7.16344 0 16C0 24.8366 7.16344 32 16 32Z"/>
</mask>
<path d="M16 32C24.8366 32 32 24.8366 32 16C32 7.16344 24.8366 0 16 0C7.16344 0 0 7.16344 0 16C0 24.8366 7.16344 32 16 32Z" fill="white" stroke="#F8F8F8" mask="url(#path-1-inside-1)"/>
<mask id="mask0" mask-type="alpha" maskUnits="userSpaceOnUse" x="0" y="0" width="32" height="32">
<mask id="path-2-inside-2" mask-type="luminance" fill="white">
<path d="M16 32C24.8366 32 32 24.8366 32 16C32 7.16344 24.8366 0 16 0C7.16344 0 0 7.16344 0 16C0 24.8366 7.16344 32 16 32Z"/>
</mask>
<path d="M16 32C24.8366 32 32 24.8366 32 16C32 7.16344 24.8366 0 16 0C7.16344 0 0 7.16344 0 16C0 24.8366 7.16344 32 16 32Z" fill="white" stroke="white" mask="url(#path-2-inside-2)"/>
</mask>
<g mask="url(#mask0)">
<rect x="22" width="10" height="32" fill="#CE1126"/>
<path fill-rule="evenodd" clip-rule="evenodd" d="M0 32H10V0H0V32Z" fill="#006847"/>
<path d="M14.4399 18.3567L14.7745 17.7801H14.7745L14.4399 18.3567ZM14.682 19.2679L15.2586 19.6025V19.6025L14.682 19.2679ZM13.7708 19.51L13.4362 20.0866L13.7708 19.51ZM17.4707 18.3567L17.1361 17.7801L17.4707 18.3567ZM17.2286 19.2679L16.652 19.6025L16.652 19.6025L17.2286 19.2679ZM18.1398 19.51L18.4744 20.0866L18.1398 19.51ZM13.1333 14.9333C13.1333 14.1969 12.5363 13.6 11.8 13.6V14.9333H13.1333ZM14.7745 17.7801C13.7905 17.2091 13.1333 16.1473 13.1333 14.9333H11.8C11.8 16.6415 12.7268 18.1334 14.1053 18.9333L14.7745 17.7801ZM15.2586 19.6025C15.6282 18.9656 15.4114 18.1496 14.7745 17.7801L14.1053 18.9333V18.9333L15.2586 19.6025ZM13.4362 20.0866C14.0731 20.4562 14.889 20.2394 15.2586 19.6025L14.1053 18.9333L13.4362 20.0866ZM10.4666 14.9333C10.4666 17.1364 11.6637 19.0581 13.4362 20.0866L14.1053 18.9333C12.7268 18.1335 11.8 16.6415 11.8 14.9333H10.4666ZM11.8 13.6C11.0636 13.6 10.4666 14.1969 10.4666 14.9333H11.8V13.6ZM20.1106 14.9333V13.6C19.3742 13.6 18.7773 14.1969 18.7773 14.9333H20.1106ZM17.8053 18.9333C19.1838 18.1334 20.1106 16.6415 20.1106 14.9333H18.7773C18.7773 16.1473 18.1201 17.2091 17.1361 17.7801L17.8053 18.9333ZM17.8053 18.9333L17.8053 18.9333L17.1361 17.7801C16.4992 18.1496 16.2824 18.9656 16.652 19.6025L17.8053 18.9333ZM17.8053 18.9333L16.652 19.6025C17.0216 20.2394 17.8375 20.4562 18.4744 20.0866L17.8053 18.9333ZM20.1106 14.9333C20.1106 16.6415 19.1838 18.1335 17.8053 18.9333L18.4744 20.0866C20.2469 19.0581 21.444 17.1364 21.444 14.9333H20.1106ZM20.1106 14.9333H21.444C21.444 14.1969 20.847 13.6 20.1106 13.6V14.9333Z" fill="#8C9157"/>
<path fill-rule="evenodd" clip-rule="evenodd" d="M16 17C17.1046 17 18 15.6569 18 14C18 12.3431 17.1046 11 16 11C14.8954 11 14 12.3431 14 14C14 15.6569 14.8954 17 16 17Z" fill="#DBAD6C"/>
</g>
</svg>
