<svg width="32" height="32" viewBox="0 0 32 32" fill="none" xmlns="http://www.w3.org/2000/svg">
    <path d="M16 32C24.8366 32 32 24.8366 32 16C32 7.16344 24.8366 0 16 0C7.16344 0 0 7.16344 0 16C0 24.8366 7.16344 32 16 32Z" fill="black"/>
    <mask id="mask0" mask-type="alpha" maskUnits="userSpaceOnUse" x="0" y="0" width="32" height="32">
        <path d="M16 32C24.8366 32 32 24.8366 32 16C32 7.16344 24.8366 0 16 0C7.16344 0 0 7.16344 0 16C0 24.8366 7.16344 32 16 32Z" fill="white"/>
    </mask>
    <g mask="url(#mask0)">
        <path d="M16 32C24.8366 32 32 24.8366 32 16C32 7.16344 24.8366 0 16 0C7.16344 0 0 7.16344 0 16C0 24.8366 7.16344 32 16 32Z" fill="black"/>
        <g filter="url(#filter0_d)">
            <path d="M0 32L15 20H32V32H0Z" fill="black"/>
        </g>
        <path d="M0 32L15 20H32V32H0Z" fill="#009543"/>
        <g filter="url(#filter1_d)">
            <path d="M0 0H32V12H15L0 0Z" fill="black"/>
        </g>
        <path d="M0 0H32V12H15L0 0Z" fill="#D21034"/>
        <path d="M14.1526 15H32V17H14.1526L-4.15283 31.3667V0.633331L14.1526 15ZM-2.15283 27.2546L12.1873 16L-2.15283 4.7454V27.2546Z" fill="#FDCE12"/>
    </g>
    <defs/>
</svg>
