<svg width="547" height="377" viewBox="0 0 547 377" fill="none" xmlns="http://www.w3.org/2000/svg">
<g filter="url(#filter0_d)">
<rect x="164" y="40" width="343" height="216" rx="12" fill="black"/>
</g>
<path d="M456.252 224.25V232H458.911C461.215 232 462.568 230.566 462.568 228.122C462.568 225.684 461.209 224.25 458.911 224.25H456.252ZM457.219 225.12H458.846C460.565 225.12 461.58 226.237 461.58 228.133C461.58 230.023 460.576 231.13 458.846 231.13H457.219V225.12ZM466.436 226.924C467.354 226.924 467.966 227.601 467.988 228.627H464.797C464.867 227.601 465.512 226.924 466.436 226.924ZM467.961 230.501C467.719 231.012 467.214 231.286 466.468 231.286C465.485 231.286 464.846 230.561 464.797 229.417V229.374H468.96V229.019C468.96 227.22 468.009 226.108 466.446 226.108C464.856 226.108 463.836 227.29 463.836 229.11C463.836 230.942 464.84 232.102 466.446 232.102C467.714 232.102 468.605 231.495 468.885 230.501H467.961ZM473.289 232.102C474.755 232.102 475.717 230.915 475.717 229.105C475.717 227.284 474.761 226.108 473.289 226.108C472.494 226.108 471.791 226.5 471.474 227.123H471.388V223.911H470.464V232H471.345V231.076H471.431C471.796 231.721 472.483 232.102 473.289 232.102ZM473.074 226.94C474.132 226.94 474.761 227.751 474.761 229.105C474.761 230.458 474.132 231.27 473.074 231.27C472.021 231.27 471.366 230.442 471.366 229.105C471.366 227.768 472.021 226.94 473.074 226.94ZM477.188 232H478.112V226.21H477.188V232ZM477.65 225.034C478.005 225.034 478.295 224.744 478.295 224.389C478.295 224.035 478.005 223.745 477.65 223.745C477.296 223.745 477.006 224.035 477.006 224.389C477.006 224.744 477.296 225.034 477.65 225.034ZM480.261 224.711V226.21H479.326V226.983H480.261V230.496C480.261 231.603 480.739 232.043 481.931 232.043C482.114 232.043 482.291 232.021 482.474 231.989V231.21C482.302 231.227 482.21 231.232 482.044 231.232C481.442 231.232 481.185 230.942 481.185 230.26V226.983H482.474V226.21H481.185V224.711H480.261Z" fill="#B2B4B3"/>
<g filter="url(#filter1_ddi)">
<path fill-rule="evenodd" clip-rule="evenodd" d="M452.099 203.034C452.062 206.098 454.665 207.809 456.624 208.825C458.639 209.868 459.316 210.538 459.308 211.47C459.293 212.899 457.701 213.529 456.212 213.553C453.614 213.596 452.103 212.807 450.902 212.208L449.966 216.871C451.171 217.462 453.402 217.978 455.716 218C461.147 218 464.701 215.147 464.72 210.721C464.74 205.106 457.423 204.795 457.473 202.285C457.49 201.524 458.172 200.712 459.667 200.505C460.407 200.401 462.45 200.321 464.765 201.457L465.674 196.945C464.43 196.462 462.829 196.001 460.836 196.001C455.724 196.001 452.128 198.893 452.099 203.034ZM474.41 196.389C473.418 196.389 472.582 197.004 472.209 197.95L464.451 217.669H469.878L470.957 214.492H477.59L478.217 217.669H482.999L478.826 196.389H474.41ZM475.169 202.138L476.735 210.128H472.445L475.169 202.138ZM445.519 196.389L441.241 217.669H446.413L450.689 196.389H445.519ZM437.868 196.389L432.485 210.873L430.307 198.558C430.052 197.183 429.043 196.389 427.923 196.389H419.122L419 197.007C420.806 197.424 422.858 198.098 424.102 198.817C424.863 199.258 425.081 199.641 425.33 200.688L429.454 217.669H434.92L443.299 196.389H437.868Z" fill="url(#paint0_linear)"/>
</g>
<path d="M195.754 218.377L196.389 217.225L193.908 215.975L196.389 214.705L195.764 213.572L193.381 215.057L193.479 212.264H192.209L192.307 215.047L189.914 213.572L189.309 214.705L191.76 215.965L189.299 217.215L189.904 218.387L192.307 216.883L192.199 219.686H193.479L193.381 216.883L195.754 218.377ZM205.402 218.377L206.037 217.225L203.557 215.975L206.037 214.705L205.412 213.572L203.029 215.057L203.127 212.264H201.857L201.955 215.047L199.562 213.572L198.957 214.705L201.408 215.965L198.947 217.215L199.553 218.387L201.955 216.883L201.848 219.686H203.127L203.029 216.883L205.402 218.377ZM215.051 218.377L215.686 217.225L213.205 215.975L215.686 214.705L215.061 213.572L212.678 215.057L212.775 212.264H211.506L211.604 215.047L209.211 213.572L208.605 214.705L211.057 215.965L208.596 217.215L209.201 218.387L211.604 216.883L211.496 219.686H212.775L212.678 216.883L215.051 218.377ZM224.699 218.377L225.334 217.225L222.854 215.975L225.334 214.705L224.709 213.572L222.326 215.057L222.424 212.264H221.154L221.252 215.047L218.859 213.572L218.254 214.705L220.705 215.965L218.244 217.215L218.85 218.387L221.252 216.883L221.145 219.686H222.424L222.326 216.883L224.699 218.377ZM235.432 227H237.131V212.908H235.412L231.662 215.604V217.459L235.393 214.773H235.432V227ZM243.576 220.496H245.344C247.355 220.496 248.605 221.521 248.605 223.182C248.605 224.656 247.268 225.711 245.402 225.711C243.508 225.711 242.307 224.715 242.15 223.27H240.461C240.588 225.604 242.473 227.234 245.422 227.234C248.186 227.234 250.393 225.545 250.393 223.123C250.393 221.141 249.025 219.822 246.896 219.695V219.656C248.654 219.344 249.787 218.074 249.787 216.307C249.787 214.188 247.883 212.674 245.363 212.674C242.717 212.674 240.939 214.207 240.744 216.6H242.434C242.59 215.125 243.664 214.197 245.285 214.197C247.072 214.197 248.02 215.145 248.02 216.541C248.02 217.967 246.887 219.012 245.266 219.012H243.576V220.496ZM257.385 227.234C260.324 227.234 262.404 225.252 262.404 222.42C262.404 219.686 260.451 217.703 257.746 217.703C256.398 217.703 255.227 218.211 254.592 219.061H254.553L254.982 214.471H261.604V212.908H253.537L252.766 220.799H254.416C254.992 219.812 256.115 219.217 257.434 219.217C259.309 219.217 260.646 220.574 260.646 222.469C260.646 224.363 259.318 225.691 257.404 225.691C255.715 225.691 254.436 224.656 254.279 223.152H252.551C252.697 225.555 254.689 227.234 257.385 227.234ZM269.084 227.234C272.072 227.234 274.201 225.555 274.201 223.191C274.201 221.443 272.99 219.998 271.164 219.568V219.529C272.697 219.041 273.625 217.85 273.625 216.385C273.625 214.236 271.721 212.674 269.084 212.674C266.467 212.674 264.533 214.246 264.533 216.375C264.533 217.859 265.48 219.061 267.004 219.529V219.568C265.188 219.988 263.977 221.434 263.977 223.191C263.977 225.545 266.105 227.234 269.084 227.234ZM269.084 225.701C267.15 225.701 265.764 224.598 265.764 223.064C265.764 221.521 267.15 220.418 269.084 220.418C271.027 220.418 272.404 221.512 272.404 223.064C272.404 224.598 271.027 225.701 269.084 225.701ZM269.084 218.875C267.434 218.875 266.281 217.908 266.281 216.541C266.281 215.164 267.434 214.188 269.084 214.188C270.734 214.188 271.887 215.154 271.887 216.541C271.887 217.908 270.725 218.875 269.084 218.875Z" fill="white"/>
<path opacity="0.5" d="M189.863 202V200.301L190.422 199.641L192.059 202H193.473L191.273 198.836L193.328 196.363H192.016L189.934 198.875H189.863V196.363H188.684V202H189.863ZM196.453 196.219C194.797 196.219 193.738 197.352 193.738 199.18C193.738 201.008 194.781 202.145 196.453 202.145C198.121 202.145 199.16 201.008 199.16 199.18C199.16 197.355 198.117 196.219 196.453 196.219ZM196.453 197.254C197.371 197.254 197.957 198 197.957 199.18C197.957 200.355 197.371 201.109 196.453 201.109C195.527 201.109 194.945 200.355 194.945 199.18C194.945 198 195.539 197.254 196.453 197.254ZM201.457 197.316H202.48C203.066 197.316 203.434 197.652 203.434 198.188C203.434 198.73 203.086 199.051 202.492 199.051H201.457V197.316ZM201.457 199.957H202.422L203.473 202H204.809L203.621 199.773C204.27 199.516 204.645 198.891 204.645 198.172C204.645 197.051 203.883 196.363 202.645 196.363H200.277V202H201.457V199.957ZM208.379 202V197.371H210.07V196.363H205.508V197.371H207.199V202H208.379ZM212.242 202V198.473H212.312L214.914 202H215.891V196.363H214.762V199.875H214.691L212.098 196.363H211.113V202H212.242ZM218.453 196.363H217.273V200.055C217.273 201.305 218.191 202.145 219.633 202.145C221.078 202.145 221.996 201.305 221.996 200.055V196.363H220.816V199.934C220.816 200.645 220.391 201.098 219.633 201.098C218.879 201.098 218.453 200.645 218.453 199.934V196.363ZM229.34 202V196.363H227.953L226.391 200.152H226.32L224.762 196.363H223.371V202H224.465V198.23H224.527L225.965 201.676H226.75L228.184 198.23H228.246V202H229.34ZM236.676 202V196.363H235.289L233.727 200.152H233.656L232.098 196.363H230.707V202H231.801V198.23H231.863L233.301 201.676H234.086L235.52 198.23H235.582V202H236.676ZM241.777 200.992H239.223V199.621H241.633V198.688H239.223V197.371H241.777V196.363H238.043V202H241.777V200.992ZM244.199 197.316H245.223C245.809 197.316 246.176 197.652 246.176 198.188C246.176 198.73 245.828 199.051 245.234 199.051H244.199V197.316ZM244.199 199.957H245.164L246.215 202H247.551L246.363 199.773C247.012 199.516 247.387 198.891 247.387 198.172C247.387 197.051 246.625 196.363 245.387 196.363H243.02V202H244.199V199.957Z" fill="white"/>
<path fill-rule="evenodd" clip-rule="evenodd" d="M196.743 71.7511C195.759 71.3673 194.677 71.1724 193.526 71.1724H188.554C188.249 71.1724 188 71.4113 188 71.707V88.2927C188 88.5873 188.249 88.8276 188.554 88.8276H193.526C194.677 88.8276 195.759 88.6325 196.743 88.2486C197.888 87.8032 198.86 87.1134 199.632 86.1982C201.387 84.1201 201.649 81.4882 201.65 80.1052C201.65 78.9284 201.453 75.9578 199.632 73.8015C198.86 72.8866 197.888 72.1968 196.743 71.7511ZM193.526 87.1724H189.706V72.8276H193.526C194.93 72.8276 196.897 73.1699 198.309 74.8411C199.826 76.6374 199.944 79.3247 199.944 80.1052C199.944 81.2692 199.731 83.4746 198.309 85.1586C196.897 86.8301 194.93 87.1724 193.526 87.1724ZM223.832 80.3252V87.1924H228.606C233.31 87.1924 233.31 84.465 233.31 83.5682C233.31 81.7102 231.647 80.3252 229.27 80.3252H223.832ZM223.832 72.811H227.869C229.294 72.811 230.36 73.0452 231.034 73.5076C231.476 73.8097 232.061 74.381 232.061 75.8505C232.061 78.4825 229.925 78.6866 229.27 78.6866H223.832V72.811ZM232.338 79.3669L232.247 79.3219L232.324 79.2566C232.975 78.7004 233.752 77.6568 233.752 75.8505C233.752 74.1992 233.165 72.9603 232.009 72.1686C231.03 71.4982 229.676 71.1724 227.869 71.1724H222.675C222.372 71.1724 222.127 71.4105 222.126 71.7034V88.3C222.126 88.593 222.371 88.8276 222.673 88.8276H228.606C230.475 88.8276 231.972 88.444 233.055 87.6785C233.684 87.2349 234.169 86.6664 234.495 85.9886C234.83 85.2931 235 84.4802 235 83.5682C235 82.18 234.391 80.8452 233.285 79.9658C233.001 79.7401 232.682 79.5385 232.338 79.3669ZM218.144 64V88.3296C218.144 88.5476 218.001 88.7361 217.788 88.808C217.616 88.866 217.43 88.7567 217.332 88.6278L206.2 75.0135V96H204.494V71.7147C204.494 71.4968 204.637 71.305 204.85 71.2361C204.903 71.2201 204.959 71.2113 205.013 71.2113C205.179 71.2113 205.334 71.2874 205.433 71.4179L216.438 84.9655V64H218.144Z" fill="url(#paint1_linear)"/>
<path opacity="0.16" fill-rule="evenodd" clip-rule="evenodd" d="M434.5 232C502.155 232 557 177.155 557 109.5C557 41.8451 502.155 -13 434.5 -13C366.845 -13 312 41.8451 312 109.5C312 177.155 366.845 232 434.5 232Z" fill="url(#paint2_radial)"/>
<path fill-rule="evenodd" clip-rule="evenodd" d="M449.183 81.725H453.277C453.322 81.561 453.336 81.203 453.336 81.068C452.858 80.739 452.366 80.142 452.201 79.709L449.034 71L447.764 71.164L444.06 79.873C443.866 80.336 443.552 80.71 443.059 81.068C443.059 81.262 443.074 81.502 443.118 81.725H446.689C446.734 81.561 446.748 81.203 446.748 81.068L445.927 80.829C445.434 80.679 445.18 80.366 445.18 80.022C445.18 79.948 445.195 79.858 445.225 79.783L446.151 77.453H449.856L450.573 79.633C450.603 79.753 450.632 79.873 450.632 80.007C450.632 80.351 450.468 80.679 450.184 80.754L449.123 81.068C449.123 81.277 449.139 81.502 449.183 81.725ZM411.978 77.692H412.262C415.145 77.692 416.445 76.257 416.445 74.375C416.445 72.165 415.13 71.164 413.038 71.164H408.199C408.124 71.358 408.109 71.627 408.124 71.747L409.244 72.134C409.498 72.224 409.603 72.494 409.603 72.732V77.647L409.558 79.873C409.543 80.425 409.319 80.695 408.976 80.799L408.109 81.068C408.094 81.262 408.124 81.502 408.169 81.725H412.784C412.844 81.561 412.86 81.128 412.86 80.993L411.335 80.589C411.067 80.53 410.993 80.306 410.993 79.948L410.962 77.647V72.134L412.651 72.165C414.324 72.195 414.966 73.061 414.966 74.45C414.966 76.138 413.994 76.691 412.352 76.75L411.978 76.765V77.692ZM427.478 81.8835H427.478C427.605 81.8948 427.719 81.905 427.815 81.905L427.979 81.098C427.143 80.859 426.59 80.53 425.604 79.545C424.887 78.812 424.05 77.467 423.692 76.885C424.961 76.497 425.634 75.287 425.634 74.077C425.634 71.911 424.125 71.164 422.019 71.164H417.507C417.433 71.358 417.417 71.627 417.433 71.747L418.553 72.134C418.747 72.209 418.897 72.388 418.897 72.568V77.647L418.852 79.858C418.837 80.351 418.688 80.634 418.254 80.799L417.537 81.068C417.522 81.262 417.552 81.502 417.582 81.725H421.705C421.765 81.561 421.765 81.083 421.765 80.949L420.555 80.665C420.375 80.634 420.301 80.515 420.301 80.261L420.241 77.244H421.362C421.556 77.244 421.989 77.229 422.138 77.199C422.173 77.2633 422.214 77.337 422.259 77.4186C422.683 78.19 423.495 79.6655 424.32 80.53C425.215 81.486 426.545 81.77 427.381 81.875L427.478 81.8835ZM421.645 72.165L420.241 72.134V76.257H421.63C423.274 76.257 424.095 75.541 424.095 74.151C424.095 72.717 423.094 72.165 421.645 72.165ZM428.625 81.725H432.853C432.912 81.561 432.927 81.113 432.927 80.978L431.777 80.724C431.463 80.665 431.359 80.56 431.359 80.186L431.314 77.647V73.121C431.314 72.494 431.493 72.075 431.971 71.97L432.583 71.836C432.599 71.642 432.583 71.388 432.538 71.164H428.625C428.58 71.328 428.58 71.642 428.61 71.776L429.207 72C429.82 72.209 429.954 72.687 429.954 73.166V77.647L429.924 79.723C429.909 80.292 429.745 80.605 429.357 80.754L428.565 81.068C428.55 81.262 428.58 81.502 428.625 81.725ZM434.856 73.076C434.849 73.0551 434.841 73.0315 434.833 73.0057C434.751 72.755 434.604 72.3001 434.348 72.165L433.511 71.716C433.511 71.582 433.526 71.328 433.571 71.164H437.47C437.515 71.388 437.544 71.671 437.53 71.866L436.768 72.03C436.499 72.075 436.305 72.179 436.305 72.449C436.305 72.523 436.32 72.613 436.35 72.717L438.635 79.948L441.219 73.36C441.27 73.2463 441.267 73.0481 441.264 72.9078C441.264 72.8815 441.264 72.8573 441.264 72.836C441.235 72.523 441.115 72.179 440.891 72.075L440.189 71.747C440.189 71.612 440.203 71.328 440.248 71.164H443.864C443.909 71.388 443.909 71.552 443.894 71.747L443.296 72.015C442.938 72.179 442.668 72.687 442.49 73.151L438.964 81.74L437.963 81.905L434.856 73.076ZM448.556 73.389L448.243 72.224H448.138L447.764 73.36L446.539 76.482H449.542L448.556 73.389ZM461.929 73.673C462.183 73.688 462.407 73.688 462.601 73.628V71.164H453.28V73.628C453.474 73.688 453.802 73.704 453.967 73.673C454.131 72.807 454.475 72.179 455.206 72.179H457.253V77.647L457.208 79.678C457.194 80.082 456.94 80.62 456.596 80.71L455.491 80.993C455.476 81.187 455.505 81.502 455.55 81.725H460.361C460.406 81.561 460.42 81.128 460.42 80.993L459.001 80.724C458.717 80.665 458.687 80.53 458.687 80.186L458.613 77.647V72.179H460.525C461.346 72.179 461.749 72.748 461.929 73.673ZM471.642 81.725H463.53C463.486 81.502 463.455 81.187 463.47 80.993L464.486 80.724C464.86 80.62 465.069 80.276 465.069 79.858L465.114 77.632V72.732C465.114 72.494 465.009 72.224 464.755 72.134L463.635 71.747C463.635 71.7288 463.633 71.7081 463.632 71.6852C463.628 71.6315 463.623 71.5659 463.635 71.493L463.638 71.4658C463.652 71.3676 463.667 71.2591 463.709 71.164H471.298V73.554C471.087 73.5775 470.831 73.5734 470.651 73.5705C470.601 73.5697 470.556 73.569 470.521 73.569C470.357 72.672 470.088 72.239 469.341 72.224L466.473 72.134V75.929L470.521 75.854V76.99L466.473 76.915V77.647L466.547 80.739L469.341 80.695C470.447 80.679 471.029 79.828 471.253 79.156L471.925 79.26L471.642 81.725ZM408.049 95.581H412.979C415.773 95.581 416.848 94.326 416.848 92.578C416.848 90.636 415.294 90.098 414.458 89.979V89.934C415.444 89.576 416.086 88.784 416.086 87.619C416.086 85.901 414.906 85.019 412.516 85.019H408.243C408.169 85.213 408.154 85.482 408.169 85.602L409.289 85.99C409.529 86.08 409.648 86.349 409.648 86.588V91.503L409.603 93.713C409.588 94.131 409.364 94.505 409.02 94.594L408.004 94.864C407.99 95.058 408.02 95.357 408.049 95.581ZM412.127 90.621H410.993V91.533L411.052 94.594H412.695C414.203 94.594 415.309 94.266 415.309 92.623C415.309 90.92 414.159 90.621 412.127 90.621ZM410.993 85.946H412.143C413.397 85.946 414.533 86.094 414.533 87.797C414.533 89.023 414.039 89.665 412.322 89.665H410.993V85.946ZM427.741 95.581H423.647C423.603 95.357 423.587 95.132 423.587 94.923L424.648 94.61C424.932 94.535 425.096 94.207 425.096 93.863C425.096 93.728 425.067 93.609 425.036 93.489L424.32 91.308H420.615L419.689 93.638C419.659 93.713 419.644 93.803 419.644 93.878C419.644 94.221 419.898 94.535 420.391 94.684L421.212 94.923C421.212 95.058 421.198 95.417 421.153 95.581H417.582C417.537 95.357 417.523 95.118 417.523 94.923C418.015 94.565 418.329 94.191 418.524 93.728L422.228 85.019L423.497 84.855L426.664 93.564C426.829 93.998 427.322 94.594 427.8 94.923C427.8 95.058 427.785 95.417 427.741 95.581ZM422.706 86.08L423.02 87.245L424.006 90.338H421.003L422.228 87.215L422.602 86.08H422.706ZM439.067 85.856C438.693 85.961 438.453 86.364 438.453 86.886V95.581L437.364 95.76L431.134 86.767H431.03L431.164 87.963V91.503L431.208 93.892C431.208 94.252 431.239 94.34 431.568 94.461L432.837 94.893C432.837 95.028 432.822 95.417 432.762 95.581H428.565C428.52 95.357 428.49 95.118 428.505 94.923L429.371 94.655C429.834 94.52 430.074 94.102 430.088 93.4L430.118 91.503V86.708C430.118 86.378 429.953 86.05 429.685 85.946L428.774 85.631C428.774 85.6079 428.773 85.5794 428.773 85.5471V85.5471V85.547V85.5469C428.77 85.3931 428.766 85.1545 428.804 85.019H431.822L437.453 93.13H437.558L437.409 91.562V86.902C437.409 86.289 437.169 86.065 436.856 85.946L435.914 85.631C435.914 85.498 435.914 85.183 435.974 85.019H439.888C439.894 85.0708 439.901 85.1193 439.907 85.1658C439.929 85.3211 439.948 85.4526 439.948 85.602L439.067 85.856ZM444.283 90.487L448.481 94.938C449.048 95.55 450.049 95.865 451.11 95.91L451.274 95.058C450.661 94.848 449.855 94.191 449.257 93.564L445.627 89.785L450.512 85.676V85.019H447.017C446.956 85.183 446.956 85.542 446.956 85.676L447.674 85.901C447.824 85.946 447.928 86.08 447.928 86.259C447.928 86.409 447.853 86.603 447.629 86.796L444.283 89.844V90.487ZM440.951 94.923L441.938 94.58C442.326 94.445 442.491 94.027 442.505 93.579L442.534 91.503V86.872C442.534 86.513 442.401 86.065 442.087 85.946L441.191 85.631C441.16 85.498 441.16 85.183 441.205 85.019H445.119C445.164 85.244 445.194 85.408 445.179 85.602L444.432 85.885C444.059 86.035 443.894 86.378 443.894 86.946V91.383L443.924 93.967C443.924 94.34 444.029 94.445 444.238 94.505L445.209 94.819C445.209 94.954 445.194 95.417 445.134 95.581H441.011C440.966 95.357 440.937 95.118 440.951 94.923ZM451.98 95.581H456.207C456.267 95.417 456.282 94.968 456.282 94.834L455.131 94.58C454.818 94.52 454.713 94.416 454.713 94.042L454.668 91.503V86.976C454.668 86.349 454.848 85.93 455.326 85.826L455.938 85.691C455.953 85.498 455.938 85.244 455.893 85.019H451.98C451.935 85.183 451.935 85.498 451.964 85.631L452.562 85.856C453.174 86.065 453.309 86.542 453.309 87.021V91.503L453.279 93.579C453.264 94.147 453.1 94.461 452.711 94.61L451.919 94.923C451.905 95.118 451.935 95.357 451.98 95.581ZM467.906 85.856C467.532 85.961 467.292 86.364 467.292 86.886V95.581L466.202 95.76L459.973 86.767H459.868L460.003 87.963V91.503L460.047 93.892C460.047 94.252 460.077 94.34 460.407 94.461L461.676 94.893C461.676 95.028 461.66 95.417 461.601 95.581H457.404C457.359 95.357 457.328 95.118 457.344 94.923L458.21 94.655C458.673 94.52 458.912 94.102 458.927 93.4L458.957 91.503V86.708C458.957 86.378 458.792 86.05 458.524 85.946L457.613 85.631C457.613 85.608 457.612 85.5796 457.612 85.5474L457.612 85.5469C457.609 85.3931 457.605 85.1545 457.643 85.019H460.66L466.292 93.13H466.397L466.247 91.562V86.902C466.247 86.289 466.008 86.065 465.695 85.946L464.753 85.631C464.753 85.498 464.753 85.183 464.813 85.019H468.727C468.732 85.0605 468.738 85.1 468.743 85.1379C468.766 85.3055 468.786 85.4438 468.786 85.602L467.906 85.856ZM475.228 84.855C471.777 84.855 469.835 87.245 469.835 90.382C469.835 94.072 471.807 95.7 475.287 95.7C476.243 95.7 477.902 95.566 478.768 95.237L478.753 91.159H477.394V94.356C477.05 94.445 476.049 94.55 475.556 94.55C473.121 94.55 471.299 93.296 471.299 90.233C471.299 87.14 472.957 85.871 475.168 85.871C476.856 85.871 477.707 86.722 478.08 87.783H478.768V85.527C478.201 85.213 477.065 84.855 475.228 84.855Z" fill="#B2B4B3"/>
<defs>
<filter id="filter0_d" x="0" y="-116" width="671" height="544" filterUnits="userSpaceOnUse" color-interpolation-filters="sRGB">
<feFlood flood-opacity="0" result="BackgroundImageFix"/>
<feColorMatrix in="SourceAlpha" type="matrix" values="0 0 0 0 0 0 0 0 0 0 0 0 0 0 0 0 0 0 127 0"/>
<feOffset dy="8"/>
<feGaussianBlur stdDeviation="82"/>
<feColorMatrix type="matrix" values="0 0 0 0 0.2 0 0 0 0 0.2 0 0 0 0 0.2 0 0 0 0.08 0"/>
<feBlend mode="normal" in2="BackgroundImageFix" result="effect1_dropShadow"/>
<feBlend mode="normal" in="SourceGraphic" in2="effect1_dropShadow" result="shape"/>
</filter>
<filter id="filter1_ddi" x="417" y="195.001" width="67.9994" height="25.9993" filterUnits="userSpaceOnUse" color-interpolation-filters="sRGB">
<feFlood flood-opacity="0" result="BackgroundImageFix"/>
<feColorMatrix in="SourceAlpha" type="matrix" values="0 0 0 0 0 0 0 0 0 0 0 0 0 0 0 0 0 0 127 0"/>
<feOffset dy="1"/>
<feGaussianBlur stdDeviation="1"/>
<feColorMatrix type="matrix" values="0 0 0 0 0 0 0 0 0 0 0 0 0 0 0 0 0 0 0.8 0"/>
<feBlend mode="normal" in2="BackgroundImageFix" result="effect1_dropShadow"/>
<feColorMatrix in="SourceAlpha" type="matrix" values="0 0 0 0 0 0 0 0 0 0 0 0 0 0 0 0 0 0 127 0"/>
<feOffset/>
<feGaussianBlur stdDeviation="0.5"/>
<feColorMatrix type="matrix" values="0 0 0 0 0 0 0 0 0 0 0 0 0 0 0 0 0 0 0.89 0"/>
<feBlend mode="normal" in2="effect1_dropShadow" result="effect2_dropShadow"/>
<feBlend mode="normal" in="SourceGraphic" in2="effect2_dropShadow" result="shape"/>
<feColorMatrix in="SourceAlpha" type="matrix" values="0 0 0 0 0 0 0 0 0 0 0 0 0 0 0 0 0 0 127 0" result="hardAlpha"/>
<feOffset dy="1"/>
<feGaussianBlur stdDeviation="0.5"/>
<feComposite in2="hardAlpha" operator="arithmetic" k2="-1" k3="1"/>
<feColorMatrix type="matrix" values="0 0 0 0 1 0 0 0 0 1 0 0 0 0 1 0 0 0 1 0"/>
<feBlend mode="normal" in2="shape" result="effect3_innerShadow"/>
</filter>
<linearGradient id="paint0_linear" x1="485.723" y1="209.75" x2="452.792" y2="164.467" gradientUnits="userSpaceOnUse">
<stop stop-color="#C8C8C8"/>
<stop offset="0.204062" stop-color="#C8C8C8"/>
<stop offset="0.27559" stop-color="white"/>
<stop offset="0.433654" stop-color="white"/>
<stop offset="0.52559" stop-color="#C8C8C8"/>
<stop offset="0.693957" stop-color="#C8C8C8"/>
<stop offset="0.790896" stop-color="white"/>
<stop offset="1" stop-color="white"/>
</linearGradient>
<linearGradient id="paint1_linear" x1="237" y1="84" x2="189.825" y2="51.2479" gradientUnits="userSpaceOnUse">
<stop stop-color="#C8C8C8"/>
<stop offset="0.204062" stop-color="#C8C8C8"/>
<stop offset="0.27559" stop-color="white"/>
<stop offset="0.433654" stop-color="white"/>
<stop offset="0.52559" stop-color="#C8C8C8"/>
<stop offset="0.693957" stop-color="#C8C8C8"/>
<stop offset="0.790896" stop-color="white"/>
<stop offset="1" stop-color="white"/>
</linearGradient>
<radialGradient id="paint2_radial" cx="0" cy="0" r="1" gradientUnits="userSpaceOnUse" gradientTransform="translate(434.5 109.5) rotate(90) scale(128.353)">
<stop stop-color="white"/>
<stop offset="1" stop-color="white" stop-opacity="0.01"/>
</radialGradient>
</defs>
</svg>
