<svg width="671" height="377" viewBox="0 0 671 377" fill="none" xmlns="http://www.w3.org/2000/svg">
<g filter="url(#filter0_d)">
<rect x="164" y="40" width="343" height="216" rx="12" fill="url(#paint0_linear)"/>
</g>
<path d="M456.252 224.25V232H458.911C461.215 232 462.568 230.566 462.568 228.122C462.568 225.684 461.209 224.25 458.911 224.25H456.252ZM457.219 225.12H458.846C460.565 225.12 461.58 226.237 461.58 228.133C461.58 230.023 460.576 231.13 458.846 231.13H457.219V225.12ZM466.436 226.924C467.354 226.924 467.966 227.601 467.988 228.627H464.797C464.867 227.601 465.512 226.924 466.436 226.924ZM467.961 230.501C467.719 231.012 467.214 231.286 466.468 231.286C465.485 231.286 464.846 230.561 464.797 229.417V229.374H468.96V229.019C468.96 227.22 468.009 226.108 466.446 226.108C464.856 226.108 463.836 227.29 463.836 229.11C463.836 230.942 464.84 232.102 466.446 232.102C467.714 232.102 468.605 231.495 468.885 230.501H467.961ZM473.289 232.102C474.755 232.102 475.717 230.915 475.717 229.105C475.717 227.284 474.761 226.108 473.289 226.108C472.494 226.108 471.791 226.5 471.474 227.123H471.388V223.911H470.464V232H471.345V231.076H471.431C471.796 231.721 472.483 232.102 473.289 232.102ZM473.074 226.94C474.132 226.94 474.761 227.751 474.761 229.105C474.761 230.458 474.132 231.27 473.074 231.27C472.021 231.27 471.366 230.442 471.366 229.105C471.366 227.768 472.021 226.94 473.074 226.94ZM477.188 232H478.112V226.21H477.188V232ZM477.65 225.034C478.005 225.034 478.295 224.744 478.295 224.389C478.295 224.035 478.005 223.745 477.65 223.745C477.296 223.745 477.006 224.035 477.006 224.389C477.006 224.744 477.296 225.034 477.65 225.034ZM480.261 224.711V226.21H479.326V226.983H480.261V230.496C480.261 231.603 480.739 232.043 481.931 232.043C482.114 232.043 482.291 232.021 482.474 231.989V231.21C482.302 231.227 482.21 231.232 482.044 231.232C481.442 231.232 481.185 230.942 481.185 230.26V226.983H482.474V226.21H481.185V224.711H480.261Z" fill="white"/>
<path fill-rule="evenodd" clip-rule="evenodd" d="M452.099 203.034C452.062 206.098 454.665 207.809 456.624 208.825C458.639 209.868 459.316 210.538 459.308 211.47C459.293 212.899 457.701 213.529 456.212 213.553C453.614 213.596 452.103 212.807 450.902 212.208L449.966 216.871C451.171 217.462 453.402 217.978 455.716 218C461.147 218 464.701 215.147 464.72 210.721C464.74 205.106 457.423 204.795 457.473 202.285C457.49 201.524 458.172 200.712 459.667 200.505C460.407 200.401 462.45 200.321 464.765 201.457L465.674 196.945C464.43 196.462 462.829 196.001 460.836 196.001C455.724 196.001 452.128 198.893 452.099 203.034ZM474.41 196.389C473.418 196.389 472.582 197.004 472.209 197.95L464.451 217.669H469.878L470.957 214.492H477.59L478.217 217.669H482.999L478.826 196.389H474.41ZM475.169 202.138L476.735 210.128H472.445L475.169 202.138ZM445.519 196.389L441.241 217.669H446.413L450.689 196.389H445.519ZM437.868 196.389L432.485 210.873L430.307 198.558C430.052 197.183 429.043 196.389 427.923 196.389H419.122L419 197.007C420.806 197.424 422.858 198.098 424.102 198.817C424.863 199.258 425.081 199.641 425.33 200.688L429.454 217.669H434.92L443.299 196.389H437.868Z" fill="white"/>
<path d="M195.754 218.377L196.389 217.225L193.908 215.975L196.389 214.705L195.764 213.572L193.381 215.057L193.479 212.264H192.209L192.307 215.047L189.914 213.572L189.309 214.705L191.76 215.965L189.299 217.215L189.904 218.387L192.307 216.883L192.199 219.686H193.479L193.381 216.883L195.754 218.377ZM205.402 218.377L206.037 217.225L203.557 215.975L206.037 214.705L205.412 213.572L203.029 215.057L203.127 212.264H201.857L201.955 215.047L199.562 213.572L198.957 214.705L201.408 215.965L198.947 217.215L199.553 218.387L201.955 216.883L201.848 219.686H203.127L203.029 216.883L205.402 218.377ZM215.051 218.377L215.686 217.225L213.205 215.975L215.686 214.705L215.061 213.572L212.678 215.057L212.775 212.264H211.506L211.604 215.047L209.211 213.572L208.605 214.705L211.057 215.965L208.596 217.215L209.201 218.387L211.604 216.883L211.496 219.686H212.775L212.678 216.883L215.051 218.377ZM224.699 218.377L225.334 217.225L222.854 215.975L225.334 214.705L224.709 213.572L222.326 215.057L222.424 212.264H221.154L221.252 215.047L218.859 213.572L218.254 214.705L220.705 215.965L218.244 217.215L218.85 218.387L221.252 216.883L221.145 219.686H222.424L222.326 216.883L224.699 218.377ZM235.432 227H237.131V212.908H235.412L231.662 215.604V217.459L235.393 214.773H235.432V227ZM243.576 220.496H245.344C247.355 220.496 248.605 221.521 248.605 223.182C248.605 224.656 247.268 225.711 245.402 225.711C243.508 225.711 242.307 224.715 242.15 223.27H240.461C240.588 225.604 242.473 227.234 245.422 227.234C248.186 227.234 250.393 225.545 250.393 223.123C250.393 221.141 249.025 219.822 246.896 219.695V219.656C248.654 219.344 249.787 218.074 249.787 216.307C249.787 214.188 247.883 212.674 245.363 212.674C242.717 212.674 240.939 214.207 240.744 216.6H242.434C242.59 215.125 243.664 214.197 245.285 214.197C247.072 214.197 248.02 215.145 248.02 216.541C248.02 217.967 246.887 219.012 245.266 219.012H243.576V220.496ZM257.385 227.234C260.324 227.234 262.404 225.252 262.404 222.42C262.404 219.686 260.451 217.703 257.746 217.703C256.398 217.703 255.227 218.211 254.592 219.061H254.553L254.982 214.471H261.604V212.908H253.537L252.766 220.799H254.416C254.992 219.812 256.115 219.217 257.434 219.217C259.309 219.217 260.646 220.574 260.646 222.469C260.646 224.363 259.318 225.691 257.404 225.691C255.715 225.691 254.436 224.656 254.279 223.152H252.551C252.697 225.555 254.689 227.234 257.385 227.234ZM269.084 227.234C272.072 227.234 274.201 225.555 274.201 223.191C274.201 221.443 272.99 219.998 271.164 219.568V219.529C272.697 219.041 273.625 217.85 273.625 216.385C273.625 214.236 271.721 212.674 269.084 212.674C266.467 212.674 264.533 214.246 264.533 216.375C264.533 217.859 265.48 219.061 267.004 219.529V219.568C265.188 219.988 263.977 221.434 263.977 223.191C263.977 225.545 266.105 227.234 269.084 227.234ZM269.084 225.701C267.15 225.701 265.764 224.598 265.764 223.064C265.764 221.521 267.15 220.418 269.084 220.418C271.027 220.418 272.404 221.512 272.404 223.064C272.404 224.598 271.027 225.701 269.084 225.701ZM269.084 218.875C267.434 218.875 266.281 217.908 266.281 216.541C266.281 215.164 267.434 214.188 269.084 214.188C270.734 214.188 271.887 215.154 271.887 216.541C271.887 217.908 270.725 218.875 269.084 218.875Z" fill="white"/>
<path opacity="0.5" d="M189.863 202V200.301L190.422 199.641L192.059 202H193.473L191.273 198.836L193.328 196.363H192.016L189.934 198.875H189.863V196.363H188.684V202H189.863ZM196.453 196.219C194.797 196.219 193.738 197.352 193.738 199.18C193.738 201.008 194.781 202.145 196.453 202.145C198.121 202.145 199.16 201.008 199.16 199.18C199.16 197.355 198.117 196.219 196.453 196.219ZM196.453 197.254C197.371 197.254 197.957 198 197.957 199.18C197.957 200.355 197.371 201.109 196.453 201.109C195.527 201.109 194.945 200.355 194.945 199.18C194.945 198 195.539 197.254 196.453 197.254ZM201.457 197.316H202.48C203.066 197.316 203.434 197.652 203.434 198.188C203.434 198.73 203.086 199.051 202.492 199.051H201.457V197.316ZM201.457 199.957H202.422L203.473 202H204.809L203.621 199.773C204.27 199.516 204.645 198.891 204.645 198.172C204.645 197.051 203.883 196.363 202.645 196.363H200.277V202H201.457V199.957ZM208.379 202V197.371H210.07V196.363H205.508V197.371H207.199V202H208.379ZM212.242 202V198.473H212.312L214.914 202H215.891V196.363H214.762V199.875H214.691L212.098 196.363H211.113V202H212.242ZM218.453 196.363H217.273V200.055C217.273 201.305 218.191 202.145 219.633 202.145C221.078 202.145 221.996 201.305 221.996 200.055V196.363H220.816V199.934C220.816 200.645 220.391 201.098 219.633 201.098C218.879 201.098 218.453 200.645 218.453 199.934V196.363ZM229.34 202V196.363H227.953L226.391 200.152H226.32L224.762 196.363H223.371V202H224.465V198.23H224.527L225.965 201.676H226.75L228.184 198.23H228.246V202H229.34ZM236.676 202V196.363H235.289L233.727 200.152H233.656L232.098 196.363H230.707V202H231.801V198.23H231.863L233.301 201.676H234.086L235.52 198.23H235.582V202H236.676ZM241.777 200.992H239.223V199.621H241.633V198.688H239.223V197.371H241.777V196.363H238.043V202H241.777V200.992ZM244.199 197.316H245.223C245.809 197.316 246.176 197.652 246.176 198.188C246.176 198.73 245.828 199.051 245.234 199.051H244.199V197.316ZM244.199 199.957H245.164L246.215 202H247.551L246.363 199.773C247.012 199.516 247.387 198.891 247.387 198.172C247.387 197.051 246.625 196.363 245.387 196.363H243.02V202H244.199V199.957Z" fill="white"/>
<path fill-rule="evenodd" clip-rule="evenodd" d="M196.743 71.7511C195.759 71.3673 194.677 71.1724 193.526 71.1724H188.554C188.249 71.1724 188 71.4113 188 71.707V88.2927C188 88.5873 188.249 88.8276 188.554 88.8276H193.526C194.677 88.8276 195.759 88.6325 196.743 88.2486C197.888 87.8032 198.86 87.1134 199.632 86.1982C201.387 84.1201 201.649 81.4882 201.65 80.1052C201.65 78.9284 201.453 75.9578 199.632 73.8015C198.86 72.8866 197.888 72.1968 196.743 71.7511ZM193.526 87.1724H189.706V72.8276H193.526C194.93 72.8276 196.897 73.1699 198.309 74.8411C199.826 76.6374 199.944 79.3247 199.944 80.1052C199.944 81.2692 199.731 83.4746 198.309 85.1586C196.897 86.8301 194.93 87.1724 193.526 87.1724ZM223.832 80.3252V87.1924H228.606C233.31 87.1924 233.31 84.465 233.31 83.5682C233.31 81.7102 231.647 80.3252 229.27 80.3252H223.832ZM223.832 72.811H227.869C229.294 72.811 230.36 73.0452 231.034 73.5076C231.476 73.8097 232.061 74.381 232.061 75.8505C232.061 78.4825 229.925 78.6866 229.27 78.6866H223.832V72.811ZM232.338 79.3669L232.247 79.3219L232.324 79.2566C232.975 78.7004 233.752 77.6568 233.752 75.8505C233.752 74.1992 233.165 72.9603 232.009 72.1686C231.03 71.4982 229.676 71.1724 227.869 71.1724H222.675C222.372 71.1724 222.127 71.4105 222.126 71.7034V88.3C222.126 88.593 222.371 88.8276 222.673 88.8276H228.606C230.475 88.8276 231.972 88.444 233.055 87.6785C233.684 87.2349 234.169 86.6664 234.495 85.9886C234.83 85.2931 235 84.4802 235 83.5682C235 82.18 234.391 80.8452 233.285 79.9658C233.001 79.7401 232.682 79.5385 232.338 79.3669ZM218.144 64V88.3296C218.144 88.5476 218.001 88.7361 217.788 88.808C217.616 88.866 217.43 88.7567 217.332 88.6278L206.2 75.0135V96H204.494V71.7147C204.494 71.4968 204.637 71.305 204.85 71.2361C204.903 71.2201 204.959 71.2113 205.013 71.2113C205.179 71.2113 205.334 71.2874 205.433 71.4179L216.438 84.9655V64H218.144Z" fill="#C6B27F"/>
<path opacity="0.16" fill-rule="evenodd" clip-rule="evenodd" d="M434.5 232C502.155 232 557 177.155 557 109.5C557 41.8451 502.155 -13 434.5 -13C366.845 -13 312 41.8451 312 109.5C312 177.155 366.845 232 434.5 232Z" fill="url(#paint1_radial)"/>
<path fill-rule="evenodd" clip-rule="evenodd" d="M421.95 100.45H421.169V93H421.95V100.45ZM408 97.002C408 98.102 408.326 98.971 408.978 99.61C409.63 100.249 410.529 100.568 411.675 100.568C412.374 100.568 413.055 100.453 413.72 100.223V97.011H412.911V99.699C412.587 99.797 412.212 99.847 411.784 99.847C410.927 99.847 410.224 99.604 409.674 99.116C409.125 98.628 408.849 97.891 408.849 96.902C408.849 95.947 409.108 95.238 409.625 94.774C410.142 94.309 410.799 94.077 411.596 94.077C412.163 94.077 412.752 94.186 413.365 94.403L413.592 93.741C413.039 93.49 412.367 93.365 411.577 93.365C410.45 93.365 409.572 93.693 408.943 94.348C408.314 95.004 408 95.888 408 97.002ZM414.956 97.812C414.956 98.688 415.168 99.366 415.593 99.847C416.018 100.328 416.606 100.568 417.357 100.568C418.093 100.568 418.688 100.328 419.139 99.847C419.59 99.366 419.816 98.658 419.816 97.723C419.816 96.827 419.614 96.135 419.208 95.648C418.803 95.16 418.222 94.917 417.465 94.917C416.702 94.917 416.092 95.17 415.637 95.677C415.183 96.185 414.956 96.896 414.956 97.812ZM417.406 99.926C418.486 99.926 419.026 99.208 419.026 97.772C419.026 97.489 419.002 97.227 418.957 96.986C418.911 96.746 418.832 96.514 418.719 96.29C418.607 96.066 418.439 95.888 418.215 95.756C417.992 95.625 417.722 95.559 417.406 95.559C417.09 95.559 416.818 95.625 416.591 95.756C416.364 95.888 416.193 96.066 416.078 96.29C415.962 96.514 415.878 96.746 415.826 96.986C415.773 97.227 415.747 97.489 415.747 97.772C415.747 98.398 415.876 98.913 416.136 99.318C416.397 99.724 416.82 99.926 417.406 99.926ZM424.761 100.435C424.534 100.359 424.304 100.233 424.074 100.055C423.843 99.877 423.658 99.6 423.516 99.225C423.374 98.849 423.303 98.398 423.303 97.871C423.303 96.883 423.545 96.144 424.03 95.653C424.514 95.162 425.165 94.917 425.981 94.917C426.284 94.917 426.6 94.963 426.93 95.055V93H427.71V100.45H426.93V99.936C426.706 100.14 426.483 100.294 426.263 100.396C426.041 100.498 425.777 100.548 425.467 100.548C425.223 100.548 424.988 100.511 424.761 100.435ZM426.93 99.284C426.475 99.686 426.021 99.887 425.566 99.887C425.131 99.887 424.777 99.713 424.504 99.368C424.231 99.022 424.094 98.507 424.094 97.821C424.094 97.163 424.237 96.621 424.524 96.196C424.81 95.771 425.28 95.559 425.932 95.559C426.321 95.559 426.653 95.615 426.93 95.727V99.284Z" fill="#C6B27F"/>
<path fill-rule="evenodd" clip-rule="evenodd" d="M428.374 86.206H434.176C434.24 85.971 434.262 85.464 434.262 85.273C433.584 84.807 432.885 83.96 432.652 83.345L428.162 71L426.362 71.232L421.11 83.58C420.835 84.236 420.39 84.765 419.691 85.273C419.691 85.549 419.712 85.888 419.776 86.206H424.838C424.901 85.971 424.922 85.464 424.922 85.273L423.757 84.936C423.058 84.723 422.698 84.278 422.698 83.791C422.698 83.686 422.719 83.558 422.762 83.451L424.074 80.147H429.327L430.343 83.24C430.386 83.41 430.428 83.58 430.428 83.77C430.428 84.258 430.195 84.723 429.793 84.829L428.29 85.273C428.29 85.569 428.31 85.888 428.374 86.206ZM408 85.528C409.356 86.121 411.071 86.438 412.553 86.438C415.349 86.438 418.25 85.21 418.25 82.16C418.25 79.2845 415.783 78.2888 413.583 77.4011L413.57 77.396C411.812 76.696 410.456 75.996 410.456 74.579C410.456 73.159 411.643 72.397 413.548 72.397C415.116 72.397 416.556 73.498 416.874 75.066H417.763V71.739C416.768 71.232 415.159 71.02 413.506 71.02C410.965 71.02 408.571 72.651 408.571 75.257C408.571 77.712 410.563 78.751 412.469 79.492C412.606 79.5453 412.743 79.5978 412.879 79.6499L412.879 79.6499C414.628 80.3209 416.196 80.9225 416.196 82.436C416.196 84.299 414.904 85.103 413.189 85.103C410.923 85.103 409.546 83.982 409.292 81.99H408.17L408 85.528ZM427.484 74.388L427.04 72.736H426.892L426.362 74.344L424.626 78.772H428.882L427.484 74.388ZM443.411 71C438.519 71 435.766 74.388 435.766 78.836C435.766 84.067 438.561 86.375 443.496 86.375C444.851 86.375 447.203 86.184 448.431 85.719L448.409 79.936H446.483V84.469C445.995 84.595 444.576 84.745 443.877 84.745C440.425 84.745 437.841 82.964 437.841 78.624C437.841 74.239 440.193 72.439 443.326 72.439C445.72 72.439 446.927 73.646 447.457 75.15H448.431V71.952C447.626 71.507 446.016 71 443.411 71ZM464.738 86.206H458.935C458.871 85.888 458.85 85.569 458.85 85.273L460.354 84.829C460.756 84.723 460.99 84.258 460.99 83.77C460.99 83.58 460.947 83.41 460.904 83.24L459.888 80.147H454.636L453.323 83.451C453.28 83.558 453.26 83.686 453.26 83.791C453.26 84.278 453.619 84.723 454.318 84.936L455.483 85.273C455.483 85.464 455.462 85.971 455.399 86.206H450.336C450.273 85.888 450.252 85.549 450.252 85.273C450.951 84.765 451.395 84.236 451.671 83.58L456.923 71.232L458.723 71L463.213 83.345C463.446 83.96 464.145 84.807 464.823 85.273C464.823 85.464 464.801 85.971 464.738 86.206ZM457.601 72.736L458.046 74.388L459.443 78.772H455.187L456.923 74.344L457.452 72.736H457.601Z" fill="#C6B27F"/>
<defs>
<filter id="filter0_d" x="0" y="-116" width="671" height="544" filterUnits="userSpaceOnUse" color-interpolation-filters="sRGB">
<feFlood flood-opacity="0" result="BackgroundImageFix"/>
<feColorMatrix in="SourceAlpha" type="matrix" values="0 0 0 0 0 0 0 0 0 0 0 0 0 0 0 0 0 0 127 0"/>
<feOffset dy="8"/>
<feGaussianBlur stdDeviation="82"/>
<feColorMatrix type="matrix" values="0 0 0 0 0.2 0 0 0 0 0.2 0 0 0 0 0.2 0 0 0 0.08 0"/>
<feBlend mode="normal" in2="BackgroundImageFix" result="effect1_dropShadow"/>
<feBlend mode="normal" in="SourceGraphic" in2="effect1_dropShadow" result="shape"/>
</filter>
<linearGradient id="paint0_linear" x1="214.476" y1="32.0779" x2="199.304" y2="222.81" gradientUnits="userSpaceOnUse">
<stop stop-color="#241E23"/>
<stop offset="1" stop-color="#251D23"/>
</linearGradient>
<radialGradient id="paint1_radial" cx="0" cy="0" r="1" gradientUnits="userSpaceOnUse" gradientTransform="translate(434.5 109.5) rotate(90) scale(128.353)">
<stop stop-color="white"/>
<stop offset="1" stop-color="white" stop-opacity="0.01"/>
</radialGradient>
</defs>
</svg>
