<svg width="32" height="32" viewBox="0 0 32 32" fill="none" xmlns="http://www.w3.org/2000/svg">
<mask id="path-1-inside-1" fill="white">
<path d="M16 32C24.8366 32 32 24.8366 32 16C32 7.16344 24.8366 0 16 0C7.16344 0 0 7.16344 0 16C0 24.8366 7.16344 32 16 32Z"/>
</mask>
<path d="M16 32C24.8366 32 32 24.8366 32 16C32 7.16344 24.8366 0 16 0C7.16344 0 0 7.16344 0 16C0 24.8366 7.16344 32 16 32Z" fill="white" stroke="#F8F8F8" mask="url(#path-1-inside-1)"/>
<mask id="mask0" mask-type="alpha" maskUnits="userSpaceOnUse" x="0" y="0" width="32" height="32">
<mask id="path-2-inside-2" mask-type="luminance" fill="white">
<path d="M16 32C24.8366 32 32 24.8366 32 16C32 7.16344 24.8366 0 16 0C7.16344 0 0 7.16344 0 16C0 24.8366 7.16344 32 16 32Z"/>
</mask>
<path d="M16 32C24.8366 32 32 24.8366 32 16C32 7.16344 24.8366 0 16 0C7.16344 0 0 7.16344 0 16C0 24.8366 7.16344 32 16 32Z" fill="white" stroke="white" mask="url(#path-2-inside-2)"/>
</mask>
<g mask="url(#mask0)">
<path fill-rule="evenodd" clip-rule="evenodd" d="M0 0H32V32H0V0ZM5.71909 26.1222L6.07831 24.0278L4.55662 22.5445L6.65954 22.2389L7.6 20.3333L8.54046 22.2389L10.6434 22.5445L9.12169 24.0278L9.48091 26.1222L7.6 25.1333L5.71909 26.1222ZM21.4915 27.1752L23 26.7333L24.5085 27.1752L24.0667 25.6667L24.5085 24.1582L23 24.6L21.4915 24.1582L21.9333 25.6667L21.4915 27.1752ZM24 7.46667L22.4915 7.90849L22.9333 6.4L22.4915 4.89151L24 5.33333L25.5085 4.89151L25.0667 6.4L25.5085 7.90849L24 7.46667ZM19.0915 16.4418L20.6 16L22.1085 16.4418L21.6667 14.9333L22.1085 13.4248L20.6 13.8667L19.0915 13.4248L19.5333 14.9333L19.0915 16.4418ZM26.2 19.6667L25.4458 19.8876L25.6667 19.1333L25.4458 18.3791L26.2 18.6L26.9542 18.3791L26.7333 19.1333L26.9542 19.8876L26.2 19.6667ZM27.0915 14.4418L28.6 14L30.1085 14.4418L29.6667 12.9333L30.1085 11.4248L28.6 11.8667L27.0915 11.4248L27.5333 12.9333L27.0915 14.4418Z" fill="#012169"/>
<mask id="path-4-outside-3" maskUnits="userSpaceOnUse" x="-5" y="-2" width="22" height="19" fill="black">
<rect fill="white" x="-5" y="-2" width="22" height="19"/>
<path fill-rule="evenodd" clip-rule="evenodd" d="M4.46667 6.4L-3 0H-1.93333L5.53333 5.33333H7.66667L16.2 0V0.895127C16.2 1.00278 16.148 1.1038 16.0604 1.16637L8.73333 6.4V8.53333L15.5158 14.3469C15.7508 14.5483 15.6084 14.9333 15.2989 14.9333H15.2402C15.1707 14.9333 15.1029 14.9116 15.0464 14.8712L7.66667 9.6H5.53333L-3 14.9333V13.8667L4.46667 8.53333V6.4Z"/>
</mask>
<path fill-rule="evenodd" clip-rule="evenodd" d="M4.46667 6.4L-3 0H-1.93333L5.53333 5.33333H7.66667L16.2 0V0.895127C16.2 1.00278 16.148 1.1038 16.0604 1.16637L8.73333 6.4V8.53333L15.5158 14.3469C15.7508 14.5483 15.6084 14.9333 15.2989 14.9333H15.2402C15.1707 14.9333 15.1029 14.9116 15.0464 14.8712L7.66667 9.6H5.53333L-3 14.9333V13.8667L4.46667 8.53333V6.4Z" fill="#E4002B"/>
<path fill-rule="evenodd" clip-rule="evenodd" d="M4.46667 6.4L-3 0H-1.93333L5.53333 5.33333H7.66667L16.2 0V0.895127C16.2 1.00278 16.148 1.1038 16.0604 1.16637L8.73333 6.4V8.53333L15.5158 14.3469C15.7508 14.5483 15.6084 14.9333 15.2989 14.9333H15.2402C15.1707 14.9333 15.1029 14.9116 15.0464 14.8712L7.66667 9.6H5.53333L-3 14.9333V13.8667L4.46667 8.53333V6.4Z" stroke="white" stroke-width="1.33333" mask="url(#path-4-outside-3)"/>
<path fill-rule="evenodd" clip-rule="evenodd" d="M-3 5.33333V9.6H4.46667V15.3333C4.46667 15.7015 4.76514 16 5.13333 16H8.06667C8.43486 16 8.73333 15.7015 8.73333 15.3333V9.6H16.6C16.9682 9.6 17.2667 9.30152 17.2667 8.93333V6C17.2667 5.63181 16.9682 5.33333 16.6 5.33333H8.73333V0H4.46667V5.33333H-3Z" fill="white"/>
<path fill-rule="evenodd" clip-rule="evenodd" d="M-3 6.4H5.53333V5.33333V0H7.66667V5.33333V6.4H16.2V8.53333H7.66667V9.6V14.9333H5.53333V9.6V8.53333H-3V6.4Z" fill="#E4002B"/>
</g>
</svg>
