<svg width="32" height="32" viewBox="0 0 32 32" fill="none" xmlns="http://www.w3.org/2000/svg">
<mask id="path-1-inside-1" fill="white">
<path d="M16 32C24.8366 32 32 24.8366 32 16C32 7.16344 24.8366 0 16 0C7.16344 0 0 7.16344 0 16C0 24.8366 7.16344 32 16 32Z"/>
</mask>
<path d="M16 32C24.8366 32 32 24.8366 32 16C32 7.16344 24.8366 0 16 0C7.16344 0 0 7.16344 0 16C0 24.8366 7.16344 32 16 32Z" fill="white" stroke="#F8F8F8" mask="url(#path-1-inside-1)"/>
<path fill-rule="evenodd" clip-rule="evenodd" d="M32 16C32 24.8366 24.8365 32 16 32C13.6654 32 11.4477 31.5 9.44798 30.6013L12.4 28.6333L9.19995 26.5L12.4 24.3667L9.19995 22.2333L12.4 20.1L9.19995 17.9667L12.4 15.8333L9.19995 13.7L12.4 11.5667L9.19995 9.43333L12.4 7.3L9.19995 5.16667L12.4 3.03333L9.75 1.2667C11.6701 0.451158 13.7823 0 16 0C24.8365 0 32 7.16344 32 16Z" fill="#CE1126"/>
<mask id="mask0" mask-type="alpha" maskUnits="userSpaceOnUse" x="9" y="0" width="23" height="32">
<path fill-rule="evenodd" clip-rule="evenodd" d="M32 16C32 24.8366 24.8365 32 16 32C13.6654 32 11.4477 31.5 9.44798 30.6013L12.4 28.6333L9.19995 26.5L12.4 24.3667L9.19995 22.2333L12.4 20.1L9.19995 17.9667L12.4 15.8333L9.19995 13.7L12.4 11.5667L9.19995 9.43333L12.4 7.3L9.19995 5.16667L12.4 3.03333L9.75 1.2667C11.6701 0.451158 13.7823 0 16 0C24.8365 0 32 7.16344 32 16Z" fill="white"/>
</mask>
<g mask="url(#mask0)">
</g>
</svg>
