<svg width="32" height="32" viewBox="0 0 32 32" fill="none" xmlns="http://www.w3.org/2000/svg">
    <path d="M16 32C24.8366 32 32 24.8366 32 16C32 7.16344 24.8366 0 16 0C7.16344 0 0 7.16344 0 16C0 24.8366 7.16344 32 16 32Z" fill="#79C2D4"/>
    <mask id="mask0" mask-type="alpha" maskUnits="userSpaceOnUse" x="0" y="0" width="32" height="32">
        <path d="M16 32C24.8366 32 32 24.8366 32 16C32 7.16344 24.8366 0 16 0C7.16344 0 0 7.16344 0 16C0 24.8366 7.16344 32 16 32Z" fill="white"/>
    </mask>
    <g mask="url(#mask0)">
        <path fill-rule="evenodd" clip-rule="evenodd" d="M0 20H32V12H0V20Z" fill="#FCE569"/>
        <path fill-rule="evenodd" clip-rule="evenodd" d="M0 2L16 16L0 30V2Z" fill="black"/>
    </g>
    <defs>
        <linearGradient id="paint0_linear" x1="0" y1="12" x2="0" y2="20" gradientUnits="userSpaceOnUse">
            <stop stop-color="#FCE569"/>
            <stop offset="1" stop-color="#FADF52"/>
        </linearGradient>
    </defs>
</svg>
