<svg width="32" height="32" viewBox="0 0 32 32" fill="none" xmlns="http://www.w3.org/2000/svg">
<mask id="path-1-inside-1" fill="white">
<path d="M16 32C24.8366 32 32 24.8366 32 16C32 7.16344 24.8366 0 16 0C7.16344 0 0 7.16344 0 16C0 24.8366 7.16344 32 16 32Z"/>
</mask>
<path d="M16 32C24.8366 32 32 24.8366 32 16C32 7.16344 24.8366 0 16 0C7.16344 0 0 7.16344 0 16C0 24.8366 7.16344 32 16 32Z" fill="white" stroke="#F8F8F8" mask="url(#path-1-inside-1)"/>
<path fill-rule="evenodd" clip-rule="evenodd" d="M31.2032 21C29.1037 27.3879 23.0904 32 16 32C8.90956 32 2.89634 27.3879 0.796753 21H31.2032ZM31.2032 11C29.1037 4.61214 23.0904 0 16 0C8.90956 0 2.89634 4.61214 0.796753 11H31.2032Z" fill="#75AADB"/>
<path fill-rule="evenodd" clip-rule="evenodd" d="M0.280792 19H31.7192C31.9035 18.0282 32 17.0254 32 16C32 14.9746 31.9035 13.9718 31.7192 13H0.280792C0.0964567 13.9718 0 14.9746 0 16C0 17.0254 0.0964567 18.0282 0.280792 19Z" fill="black"/>
</svg>
