<svg width="32" height="32" viewBox="0 0 32 32" fill="none" xmlns="http://www.w3.org/2000/svg">
<mask id="path-1-inside-1" fill="white">
<path d="M16 32C24.8366 32 32 24.8366 32 16C32 7.16344 24.8366 0 16 0C7.16344 0 0 7.16344 0 16C0 24.8366 7.16344 32 16 32Z"/>
</mask>
<path d="M16 32C24.8366 32 32 24.8366 32 16C32 7.16344 24.8366 0 16 0C7.16344 0 0 7.16344 0 16C0 24.8366 7.16344 32 16 32Z" fill="white" stroke="#F8F8F8" mask="url(#path-1-inside-1)"/>
<mask id="mask0" mask-type="alpha" maskUnits="userSpaceOnUse" x="0" y="0" width="32" height="32">
<mask id="path-2-inside-2" mask-type="luminance" fill="white">
<path d="M16 32C24.8366 32 32 24.8366 32 16C32 7.16344 24.8366 0 16 0C7.16344 0 0 7.16344 0 16C0 24.8366 7.16344 32 16 32Z"/>
</mask>
<path d="M16 32C24.8366 32 32 24.8366 32 16C32 7.16344 24.8366 0 16 0C7.16344 0 0 7.16344 0 16C0 24.8366 7.16344 32 16 32Z" fill="white" stroke="white" mask="url(#path-2-inside-2)"/>
</mask>
<g mask="url(#mask0)">
<rect x="24" width="8" height="32" fill="#D62612"/>
<path fill-rule="evenodd" clip-rule="evenodd" d="M0 32H8V0H0V32Z" fill="#D62612"/>
<path fill-rule="evenodd" clip-rule="evenodd" d="M18.4928 15.2215C18.2596 15.4547 17.8655 15.2439 17.9302 14.9205L18.5714 11.7143L16.8571 12.5714L16 10L15.1429 12.5714L13.4286 11.7143L14.0698 14.9205C14.1345 15.2439 13.7404 15.4547 13.5072 15.2215L12.8071 14.5214C12.677 14.3912 12.4659 14.3912 12.3357 14.5214L11.7143 15.1429L10 14.2857L10.8571 16L10.2357 16.6214C10.1055 16.7516 10.1055 16.9627 10.2357 17.0928L12.5714 19.4286H15.1429L15.5714 22H16.4286L16.8571 19.4286H19.4286L21.7643 17.0928C21.8945 16.9627 21.8945 16.7516 21.7643 16.6214L21.1429 16L22 14.2857L20.2857 15.1429L19.6643 14.5214C19.5341 14.3912 19.323 14.3912 19.1929 14.5214L18.4928 15.2215Z" fill="#D62612"/>
</g>
</svg>
