<svg width="32" height="32" viewBox="0 0 32 32" fill="none" xmlns="http://www.w3.org/2000/svg">
<mask id="path-1-inside-1" fill="white">
<path d="M16 32C24.8366 32 32 24.8366 32 16C32 7.16344 24.8366 0 16 0C7.16344 0 0 7.16344 0 16C0 24.8366 7.16344 32 16 32Z"/>
</mask>
<path d="M16 32C24.8366 32 32 24.8366 32 16C32 7.16344 24.8366 0 16 0C7.16344 0 0 7.16344 0 16C0 24.8366 7.16344 32 16 32Z" fill="white" stroke="#F8F8F8" mask="url(#path-1-inside-1)"/>
<mask id="mask0" mask-type="alpha" maskUnits="userSpaceOnUse" x="0" y="0" width="32" height="32">
<path d="M16 32C24.8366 32 32 24.8366 32 16C32 7.16344 24.8366 0 16 0C7.16344 0 0 7.16344 0 16C0 24.8366 7.16344 32 16 32Z" fill="white"/>
</mask>
<g mask="url(#mask0)">
<path d="M16 31.75C24.6985 31.75 31.75 24.6985 31.75 16C31.75 7.30152 24.6985 0.25 16 0.25C7.30152 0.25 0.25 7.30152 0.25 16C0.25 24.6985 7.30152 31.75 16 31.75Z" stroke="#F8F8F8" stroke-width="0.5"/>
<path d="M24.5021 10.1767L44.8571 -3.21429" stroke="#CF142B" stroke-width="0.666667" stroke-linecap="round"/>
<path d="M24.6633 22.0139L42.9106 34.313" stroke="#CF142B" stroke-width="0.666667" stroke-linecap="round"/>
<path d="M7.36606 10.1418L-11.6674 -2.6855" stroke="#CF142B" stroke-width="0.666667" stroke-linecap="round"/>
<path d="M7.43045 21.865L-13.6674 35.8561" stroke="#CF142B" stroke-width="0.666667" stroke-linecap="round"/>
<path fill-rule="evenodd" clip-rule="evenodd" d="M0 19.2857H12.7857V32.1429H19.2143V19.2857H32V12.8571H19.2143V0H12.7857V12.8571H0V19.2857Z" fill="#CF142B"/>
</g>
<mask id="mask1" mask-type="alpha" maskUnits="userSpaceOnUse" x="0" y="0" width="32" height="32">
<path d="M10.6428 31.0811C8.10276 30.1788 5.85807 28.6529 4.09288 26.6876L10.6428 22.2696V31.0811ZM1.68026 23.1455C1.40293 22.5908 1.15688 22.0177 0.944426 21.4286H4.22565L1.68026 23.1455ZM0.893677 10.7143C1.1041 10.1129 1.34942 9.52784 1.62722 8.96163L4.22565 10.7143H0.893677ZM4.01335 5.40159C5.79043 3.39325 8.06446 1.83482 10.6428 0.918869V9.87324L4.01335 5.40159ZM21.3571 0.918869C23.9355 1.83482 26.2096 3.39325 27.9866 5.40159L21.3571 9.87324V0.918869ZM30.3728 8.96163C30.6506 9.52784 30.8959 10.1129 31.1063 10.7143H27.7743L30.3728 8.96163ZM31.0556 21.4286C30.8431 22.0177 30.5971 22.5908 30.3197 23.1455L27.7743 21.4286H31.0556ZM27.9071 26.6876C26.1419 28.6529 23.8972 30.1788 21.3571 31.0811V22.2696L27.9071 26.6876Z" fill="white"/>
</mask>
<g mask="url(#mask1)">
<path d="M10.6428 31.0811C8.10276 30.1788 5.85807 28.6529 4.09288 26.6876L10.6428 22.2696V31.0811ZM1.68026 23.1455C1.40293 22.5908 1.15688 22.0177 0.944426 21.4286H4.22565L1.68026 23.1455ZM0.893677 10.7143C1.1041 10.1129 1.34942 9.52784 1.62722 8.96163L4.22565 10.7143H0.893677ZM4.01335 5.40159C5.79043 3.39325 8.06446 1.83482 10.6428 0.918869V9.87324L4.01335 5.40159ZM21.3571 0.918869C23.9355 1.83482 26.2096 3.39325 27.9866 5.40159L21.3571 9.87324V0.918869ZM30.3728 8.96163C30.6506 9.52784 30.8959 10.1129 31.1063 10.7143H27.7743L30.3728 8.96163ZM31.0556 21.4286C30.8431 22.0177 30.5971 22.5908 30.3197 23.1455L27.7743 21.4286H31.0556ZM27.9071 26.6876C26.1419 28.6529 23.8972 30.1788 21.3571 31.0811V22.2696L27.9071 26.6876Z" fill="#00247D"/>
</g>
</svg>
