<svg width="32" height="32" viewBox="0 0 32 32" fill="none" xmlns="http://www.w3.org/2000/svg">
<path d="M16 32C24.8366 32 32 24.8366 32 16C32 7.16344 24.8366 0 16 0C7.16344 0 0 7.16344 0 16C0 24.8366 7.16344 32 16 32Z" fill="#DE2408"/>
<mask id="mask0" mask-type="alpha" maskUnits="userSpaceOnUse" x="0" y="0" width="32" height="32">
<path d="M16 32C24.8366 32 32 24.8366 32 16C32 7.16344 24.8366 0 16 0C7.16344 0 0 7.16344 0 16C0 24.8366 7.16344 32 16 32Z" fill="white"/>
</mask>
<g mask="url(#mask0)">
<path fill-rule="evenodd" clip-rule="evenodd" d="M15.6211 13.0782C17.1221 11.8154 17.2134 11.533 17.5731 10.4205C17.6931 10.0492 17.6084 9.74418 17.5085 9.384C17.3643 8.86464 17.1882 8.23052 17.5481 7.11724C15.9104 6.5824 14.0076 7.92803 13.2981 10.1228C12.5886 12.3175 13.341 14.5303 14.9788 15.0651C15.2719 15.1609 15.2391 15.0917 15.1501 14.9042C14.9939 14.5753 14.665 13.8825 15.6211 13.0782ZM12.5126 15.3845C11.7816 13.5595 11.5426 13.3849 10.601 12.6974C10.2868 12.4679 9.97201 12.4546 9.60029 12.4388C9.06429 12.4162 8.40986 12.3885 7.46764 11.7005C6.45547 13.1007 7.14075 15.3354 8.99827 16.6918C10.8558 18.0483 13.1821 18.0128 14.1943 16.6125C14.3755 16.3619 14.2999 16.3719 14.095 16.399C13.7355 16.4467 12.9783 16.547 12.5126 15.3845ZM21.882 16.3814C20.7182 16.3814 20.4227 16.3814 18.764 15.3368C17.7075 14.6714 17.1536 15.2 16.8906 15.4508C16.7407 15.5938 16.6854 15.6466 16.6854 15.3368C16.6854 13.606 18.5467 12.203 20.8427 12.203C23.1387 12.203 25 13.606 25 15.3368C23.8354 15.3368 23.2897 15.701 22.8428 15.9994C22.5329 16.2062 22.2705 16.3814 21.882 16.3814ZM21.882 14.4168C21.882 14.7052 21.6494 14.9391 21.3624 14.9391C21.0753 14.9391 20.8427 14.7052 20.8427 14.4168C20.8427 14.1283 21.0753 13.8944 21.3624 13.8944C21.6494 13.8944 21.882 14.1283 21.882 14.4168ZM17.598 19.0391C17.1221 20.9474 17.2134 21.2298 17.5731 22.3423C17.6931 22.7137 17.94 22.9104 18.2315 23.1427C18.6519 23.4777 19.1651 23.8867 19.525 25C21.1628 24.4652 21.9152 22.2524 21.2057 20.0576C20.4962 17.8629 18.5934 16.5173 16.9557 17.0521C16.6625 17.1479 16.7296 17.1844 16.9112 17.2835C17.2299 17.4573 17.9011 17.8235 17.598 19.0391ZM19.4321 21.7352C19.1592 21.8244 18.866 21.6742 18.7773 21.3999C18.6886 21.1255 18.838 20.8309 19.111 20.7417C19.3839 20.6526 19.6771 20.8027 19.7658 21.0771C19.8545 21.3514 19.7051 21.6461 19.4321 21.7352ZM13.7344 19.0686C11.7816 19.2034 11.5426 19.3779 10.601 20.0655C10.2868 20.295 10.1769 20.5917 10.0472 20.9422C9.86008 21.4476 9.63166 22.0646 8.68944 22.7526C9.70162 24.1528 12.028 24.1883 13.8855 22.8319C15.743 21.4755 16.4283 19.2408 15.4161 17.8405C15.2349 17.5899 15.221 17.6653 15.1834 17.8695C15.1174 18.2279 14.9783 18.9827 13.7344 19.0686ZM11.75 21.6549C11.5813 21.4216 11.6328 21.0949 11.865 20.9254C12.0972 20.7558 12.4221 20.8075 12.5908 21.0409C12.7595 21.2743 12.7081 21.6009 12.4759 21.7705C12.2437 21.94 11.9187 21.8883 11.75 21.6549ZM9.45209 14.2868C9.62078 14.0535 9.94576 14.0017 10.178 14.1713C10.4101 14.3408 10.4616 14.6675 10.2929 14.9008C10.1242 15.1342 9.79924 15.1859 9.56705 15.0164C9.33486 14.8468 9.28339 14.5202 9.45209 14.2868ZM15.714 9.81339C15.987 9.90253 16.1363 10.1972 16.0477 10.4715C15.959 10.7459 15.6658 10.896 15.3928 10.8069C15.1199 10.7177 14.9705 10.4231 15.0592 10.1487C15.1479 9.87439 15.4411 9.72425 15.714 9.81339Z" fill="white"/>
</g>
</svg>
