<svg fill="none" height="32" viewBox="0 0 32 32" width="32" xmlns="http://www.w3.org/2000/svg" xmlns:xlink="http://www.w3.org/1999/xlink">
    <filter id="a" color-interpolation-filters="sRGB" filterUnits="userSpaceOnUse" height="24.4667" width="2.13333" x="15.3333" y="4.26667">
        <feFlood flood-opacity="0" result="BackgroundImageFix"/>
        <feColorMatrix in="SourceAlpha" type="matrix" values="0 0 0 0 0 0 0 0 0 0 0 0 0 0 0 0 0 0 127 0"/>
        <feOffset dy="1"/>
        <feColorMatrix type="matrix" values="0 0 0 0 0 0 0 0 0 0 0 0 0 0 0 0 0 0 0.06 0"/>
        <feBlend in2="BackgroundImageFix" mode="normal" result="effect1_dropShadow"/>
        <feBlend in="SourceGraphic" in2="effect1_dropShadow" mode="normal" result="shape"/>
    </filter>
    <mask id="b" height="32" maskUnits="userSpaceOnUse" width="32" x="0" y="0">
        <path d="m31.75 16c0 8.6985-7.0515 15.75-15.75 15.75-8.69849 0-15.75-7.0515-15.75-15.75 0-8.69849 7.05151-15.75 15.75-15.75 8.6985 0 15.75 7.05151 15.75 15.75z" fill="#fff" stroke="#fff" stroke-width=".5"/>
    </mask>
    <mask id="c" height="22" maskUnits="userSpaceOnUse" width="11" x="11" y="5">
        <path clip-rule="evenodd" d="m16.4 26.6667c2.1333 0 5.3333-4.1866 5.3333-10.6667 0-6.48014-3.2-10.66667-5.3333-10.66667s-5.3333 4.18653-5.3333 10.66667c0 6.4801 3.2 10.6667 5.3333 10.6667z" fill="#fff" fill-rule="evenodd"/>
    </mask>
    <path d="m31.75 16c0 8.6985-7.0515 15.75-15.75 15.75-8.69849 0-15.75-7.0515-15.75-15.75 0-8.69849 7.05151-15.75 15.75-15.75 8.6985 0 15.75 7.05151 15.75 15.75z" fill="#fff" stroke="#f8f8f8" stroke-width=".5"/>
    <g clip-rule="evenodd" fill-rule="evenodd" mask="url(#b)">
        <path d="m0 32h32v-10h-32z" fill="#060"/>
        <path d="m0 21h32v-10h-32z" fill="#b00"/>
        <path d="m0 10h32v-10h-32z" fill="#000"/>
    </g>
    <path clip-rule="evenodd" d="m16.4 26.6667c2.1333 0 5.3333-4.1866 5.3333-10.6667 0-6.48014-3.2-10.66667-5.3333-10.66667s-5.3333 4.18653-5.3333 10.66667c0 6.4801 3.2 10.6667 5.3333 10.6667z" fill="#b00" fill-rule="evenodd"/>
    <g mask="url(#c)">
        <path clip-rule="evenodd" d="m7.86667 27.7333c2.94553 0 5.33333-5.2532 5.33333-11.7333 0-6.48014-2.3878-11.73333-5.33333-11.73333-2.94552 0-5.33334 5.25319-5.33334 11.73333 0 6.4801 2.38782 11.7333 5.33334 11.7333z" fill="#000" fill-rule="evenodd"/>
        <path clip-rule="evenodd" d="m24.9333 27.7333c2.9456 0 5.3334-5.2532 5.3334-11.7333 0-6.48014-2.3878-11.73333-5.3334-11.73333-2.9455 0-5.3333 5.25319-5.3333 11.73333 0 6.4801 2.3878 11.7333 5.3333 11.7333z" fill="#000" fill-rule="evenodd"/>
        <g filter="url(#a)">
            <path clip-rule="evenodd" d="m17.4667 8.53333c0 2.35637-.4776 4.26667-1.0667 4.26667s-1.0667-1.9103-1.0667-4.26667c0-2.35641.4776-4.26666 1.0667-4.26666s1.0667 1.91025 1.0667 4.26666zm-1.0667 4.26667c-.5891 0-1.0667 1.4327-1.0667 3.2 0 1.7668.4773 3.1991 1.0662 3.2-.5889.0012-1.0662 1.911-1.0662 4.2667 0 2.3564.4776 4.2666 1.0667 4.2666s1.0667-1.9102 1.0667-4.2666-.4776-4.2667-1.0667-4.2667c.5891 0 1.0667-1.4327 1.0667-3.2s-.4776-3.2-1.0667-3.2z" fill="#fff" fill-rule="evenodd"/>
        </g>
    </g>
</svg>
