<svg viewBox="0 0 32 32" xmlns="http://www.w3.org/2000/svg" xmlns:xlink="http://www.w3.org/1999/xlink">
    <linearGradient id="a" gradientTransform="matrix(1 0 0 -1 0 34)" gradientUnits="userSpaceOnUse" x1="16.4" x2="16.4" y1="29.73" y2="6.27">
        <stop offset="0" stop-color="#fff"/>
        <stop offset="1" stop-color="#f0f0f0"/>
    </linearGradient>
    <clipPath id="b">
        <path clip-rule="evenodd" d="m16.4 26.67c2.13 0 5.33-4.19 5.33-10.67s-3.2-10.67-5.33-10.67-5.33 4.19-5.33 10.67 3.2 10.67 5.33 10.67z"/>
    </clipPath>
    <mask id="c" height="32" maskUnits="userSpaceOnUse" width="32" x="0" y="0">
        <path d="m31.75 16a15.75 15.75 0 1 1 -15.75-15.75 15.75 15.75 0 0 1 15.75 15.75z" fill="#fff" stroke="#fff" stroke-width=".5"/>
    </mask>
    <path d="m31.75 16a15.75 15.75 0 1 1 -15.75-15.75 15.75 15.75 0 0 1 15.75 15.75z" fill="#fff" stroke="#f8f8f8" stroke-width=".5"/>
    <g fill-rule="evenodd" mask="url(#c)">
        <path d="m0 32h32v-10h-32z" fill="#060"/>
        <path d="m0 21h32v-10h-32z" fill="#b00"/>
        <path d="m0 10h32v-10h-32z"/>
    </g>
    <path d="m16.4 26.67c2.13 0 5.33-4.19 5.33-10.67s-3.2-10.67-5.33-10.67-5.33 4.19-5.33 10.67 3.2 10.67 5.33 10.67z" fill="#b00" fill-rule="evenodd"/>
    <g clip-path="url(#b)">
        <path d="m17.47 8.53c0 2.36-.48 4.27-1.07 4.27s-1.07-1.91-1.07-4.27.48-4.26 1.07-4.26 1.07 1.91 1.07 4.26zm-1.07 4.27c-.59 0-1.07 1.43-1.07 3.2s.48 3.2 1.07 3.2c-.59 0-1.07 1.91-1.07 4.27s.48 4.26 1.07 4.26 1.07-1.91 1.07-4.26-.47-4.27-1.07-4.27c.59 0 1.07-1.43 1.07-3.2s-.47-3.2-1.07-3.2z" fill="url(#a)" fill-rule="evenodd"/>
    </g>
    <g clip-path="url(#b)" fill-rule="evenodd">
        <path d="m7.87 27.73c2.94 0 5.33-5.25 5.33-11.73s-2.39-11.73-5.33-11.73-5.34 5.25-5.34 11.73 2.39 11.73 5.34 11.73z"/>
        <path d="m24.93 27.73c2.95 0 5.34-5.25 5.34-11.73s-2.39-11.73-5.34-11.73-5.33 5.25-5.33 11.73 2.4 11.73 5.33 11.73z"/>
    </g>
</svg>
