<svg width="32" height="32" viewBox="0 0 32 32" fill="none" xmlns="http://www.w3.org/2000/svg">
<mask id="path-1-inside-1" fill="white">
<path d="M16 32C24.8366 32 32 24.8366 32 16C32 7.16344 24.8366 0 16 0C7.16344 0 0 7.16344 0 16C0 24.8366 7.16344 32 16 32Z"/>
</mask>
<path d="M16 32C24.8366 32 32 24.8366 32 16C32 7.16344 24.8366 0 16 0C7.16344 0 0 7.16344 0 16C0 24.8366 7.16344 32 16 32Z" fill="white" stroke="#F8F8F8" mask="url(#path-1-inside-1)"/>
<mask id="mask0" mask-type="alpha" maskUnits="userSpaceOnUse" x="0" y="0" width="32" height="32">
<mask id="path-2-inside-2" mask-type="luminance" fill="white">
<path d="M16 32C24.8366 32 32 24.8366 32 16C32 7.16344 24.8366 0 16 0C7.16344 0 0 7.16344 0 16C0 24.8366 7.16344 32 16 32Z"/>
</mask>
<path d="M16 32C24.8366 32 32 24.8366 32 16C32 7.16344 24.8366 0 16 0C7.16344 0 0 7.16344 0 16C0 24.8366 7.16344 32 16 32Z" fill="white" stroke="white" mask="url(#path-2-inside-2)"/>
</mask>
<g mask="url(#mask0)">
<path opacity="0.75" fill-rule="evenodd" clip-rule="evenodd" d="M7.16931 8.50687C7.26136 8.34744 7.46522 8.29282 7.62465 8.38486L8.36109 8.81005C8.52052 8.9021 8.57515 9.10596 8.4831 9.26539L6.54088 12.6294C6.44883 12.7888 6.24497 12.8435 6.08554 12.7514L5.3491 12.3262C5.18966 12.2342 5.13504 12.0303 5.22709 11.8709L7.16931 8.50687ZM23.7422 8.81005C23.5828 8.9021 23.5281 9.10596 23.6202 9.26539L25.5624 12.6294C25.6545 12.7888 25.8583 12.8435 26.0177 12.7514L26.7542 12.3262C26.9136 12.2342 26.9682 12.0303 26.8762 11.8709L24.934 8.50687C24.8419 8.34744 24.6381 8.29282 24.4786 8.38486L23.7422 8.81005ZM21.7715 9.94783C21.6121 10.0399 21.5574 10.2437 21.6495 10.4032L23.5917 13.7672C23.6838 13.9266 23.8876 13.9813 24.0471 13.8892L24.7835 13.464C24.9429 13.372 24.9976 13.1681 24.9055 13.0087L22.9633 9.64465C22.8712 9.48522 22.6674 9.43059 22.5079 9.52264L21.7715 9.94783ZM5.22709 19.8846C5.13504 19.7252 5.18966 19.5214 5.3491 19.4293L6.08554 19.0041C6.24497 18.9121 6.44883 18.9667 6.54088 19.1261L8.4831 22.4902C8.57515 22.6496 8.52052 22.8535 8.36109 22.9455L7.62465 23.3707C7.46522 23.4627 7.26136 23.4081 7.16931 23.2487L5.22709 19.8846ZM7.31978 18.2915C7.16035 18.3836 7.10573 18.5874 7.19778 18.7469L9.14 22.1109C9.23205 22.2703 9.43591 22.325 9.59534 22.2329L10.3318 21.8077C10.4912 21.7157 10.5458 21.5118 10.4538 21.3524L8.51157 17.9884C8.41952 17.8289 8.21566 17.7743 8.05623 17.8663L7.31978 18.2915ZM23.5917 17.9884C23.6838 17.8289 23.8876 17.7743 24.0471 17.8663L24.7835 18.2915C24.9429 18.3836 24.9976 18.5874 24.9055 18.7469L22.9633 22.1109C22.8712 22.2703 22.6674 22.325 22.5079 22.2329L21.7715 21.8077C21.6121 21.7157 21.5574 21.5118 21.6495 21.3524L23.5917 17.9884ZM26.0177 19.0041C25.8583 18.9121 25.6545 18.9667 25.5624 19.1261L23.6202 22.4902C23.5281 22.6496 23.5828 22.8535 23.7422 22.9455L24.4786 23.3707C24.6381 23.4627 24.8419 23.4081 24.934 23.2487L26.8762 19.8846C26.9682 19.7252 26.9136 19.5214 26.7542 19.4293L26.0177 19.0041ZM9.59534 9.52264C9.43591 9.43059 9.23205 9.48522 9.14 9.64465L7.19778 13.0087C7.10573 13.1681 7.16035 13.372 7.31978 13.464L8.05623 13.8892C8.21566 13.9813 8.41952 13.9266 8.51157 13.7672L10.4538 10.4032C10.5458 10.2437 10.4912 10.0399 10.3318 9.94783L9.59534 9.52264Z" fill="black"/>
</g>
<path fill-rule="evenodd" clip-rule="evenodd" d="M16.3096 21.1193C19.2421 21.1193 21.6193 18.7421 21.6193 15.8096C21.6193 12.8772 19.2421 10.5 16.3096 10.5C13.3772 10.5 11 12.8772 11 15.8096C11 18.7421 13.3772 21.1193 16.3096 21.1193Z" fill="#CD2E3A"/>
<mask id="mask1" mask-type="alpha" maskUnits="userSpaceOnUse" x="11" y="10" width="11" height="12">
<path fill-rule="evenodd" clip-rule="evenodd" d="M16.3096 21.1193C19.2421 21.1193 21.6193 18.7421 21.6193 15.8096C21.6193 12.8772 19.2421 10.5 16.3096 10.5C13.3772 10.5 11 12.8772 11 15.8096C11 18.7421 13.3772 21.1193 16.3096 21.1193Z" fill="white"/>
</mask>
<g mask="url(#mask1)">
<path fill-rule="evenodd" clip-rule="evenodd" d="M10.6192 16.6363C12.1363 18.0585 14.4118 18.9118 15.9289 16.6363C17.4459 14.3607 20.48 14.3607 21.2385 16.6363C21.997 18.9118 21.2385 21.1874 21.2385 21.1874H10.6192C10.6192 21.1874 9.10221 15.2141 10.6192 16.6363Z" fill="#0047A0"/>
</g>
</svg>
