<svg width="32" height="32" viewBox="0 0 32 32" fill="none" xmlns="http://www.w3.org/2000/svg">
<path d="M16 32C24.8366 32 32 24.8366 32 16C32 7.16344 24.8366 0 16 0C7.16344 0 0 7.16344 0 16C0 24.8366 7.16344 32 16 32Z" fill="#FFE600"/>
<mask id="mask0" mask-type="alpha" maskUnits="userSpaceOnUse" x="0" y="0" width="32" height="32">
<path d="M16 32C24.8366 32 32 24.8366 32 16C32 7.16344 24.8366 0 16 0C7.16344 0 0 7.16344 0 16C0 24.8366 7.16344 32 16 32Z" fill="white"/>
</mask>
<g mask="url(#mask0)">
<path d="M16 32C24.8366 32 32 24.8366 32 16C32 7.16344 24.8366 0 16 0C7.16344 0 0 7.16344 0 16C0 24.8366 7.16344 32 16 32Z" fill="#FFE600"/>
<path d="M12.9037 31.7006C10.0555 31.1422 7.47818 29.828 5.38904 27.9755L11.0806 21.5784C10.6693 21.2123 10.2988 20.8013 9.97671 20.3532L3.01405 25.349C1.53605 23.2996 0.531226 20.8863 0.159668 18.2692L8.65123 17.0561C8.60238 16.7111 8.57712 16.3585 8.57712 16C8.57712 15.6415 8.60238 15.2889 8.65123 14.9439L0.159668 13.7308C0.531226 11.1137 1.53605 8.70042 3.01405 6.65104L9.97671 11.6468C10.2988 11.1987 10.6693 10.7877 11.0806 10.4216L5.38904 4.02447C7.47818 2.17201 10.0555 0.857849 12.9037 0.299374L14.5792 8.67692C15.0528 8.58273 15.5425 8.53333 16.0438 8.53333C16.5451 8.53333 17.0348 8.58273 17.5084 8.67692L19.1806 0.316125C22.0175 0.888313 24.5826 2.21094 26.6598 4.06798L21.007 10.4216C21.4183 10.7877 21.7888 11.1987 22.1109 11.6468L29.0157 6.69249C30.4797 8.73614 31.4744 11.1389 31.8421 13.7431L23.4363 14.9439C23.4852 15.2889 23.5105 15.6415 23.5105 16C23.5105 16.3585 23.4852 16.7111 23.4363 17.0561L31.8421 18.2569C31.4744 20.8611 30.4797 23.2639 29.0157 25.3075L22.1109 20.3532C21.7888 20.8013 21.4183 21.2123 21.007 21.5784L26.6598 27.932C24.5826 29.7891 22.0175 31.1117 19.1806 31.6839L17.5084 23.3231C17.0348 23.4173 16.5451 23.4667 16.0438 23.4667C15.5425 23.4667 15.0528 23.4173 14.5792 23.3231L12.9037 31.7006ZM16 21C18.7614 21 21 18.7614 21 16C21 13.2386 18.7614 11 16 11C13.2386 11 11 13.2386 11 16C11 18.7614 13.2386 21 16 21Z" fill="#D20000"/>
</g>
</svg>
