<svg width="32" height="32" viewBox="0 0 32 32" fill="none" xmlns="http://www.w3.org/2000/svg">
<mask id="path-1-inside-1" fill="white">
<path d="M16 32C24.8366 32 32 24.8366 32 16C32 7.16344 24.8366 0 16 0C7.16344 0 0 7.16344 0 16C0 24.8366 7.16344 32 16 32Z"/>
</mask>
<path d="M16 32C24.8366 32 32 24.8366 32 16C32 7.16344 24.8366 0 16 0C7.16344 0 0 7.16344 0 16C0 24.8366 7.16344 32 16 32Z" fill="white" stroke="#F8F8F8" mask="url(#path-1-inside-1)"/>
<mask id="mask0" mask-type="alpha" maskUnits="userSpaceOnUse" x="0" y="0" width="32" height="32">
<mask id="path-2-inside-2" mask-type="luminance" fill="white">
<path d="M16 32C24.8366 32 32 24.8366 32 16C32 7.16344 24.8366 0 16 0C7.16344 0 0 7.16344 0 16C0 24.8366 7.16344 32 16 32Z"/>
</mask>
<path d="M16 32C24.8366 32 32 24.8366 32 16C32 7.16344 24.8366 0 16 0C7.16344 0 0 7.16344 0 16C0 24.8366 7.16344 32 16 32Z" fill="white" stroke="white" mask="url(#path-2-inside-2)"/>
</mask>
<g mask="url(#mask0)">
<path fill-rule="evenodd" clip-rule="evenodd" d="M32 32V0H21.5L21.5 32H32Z" fill="#CE1126"/>
<path fill-rule="evenodd" clip-rule="evenodd" d="M21.5 32V0H10.5L10.5 32H21.5Z" fill="#FCD116"/>
<path fill-rule="evenodd" clip-rule="evenodd" d="M10.5 32L10.5 0H0L0 32H10.5Z" fill="#002B7F"/>
</g>
</svg>
