<svg width="32" height="32" viewBox="0 0 32 32" fill="none" xmlns="http://www.w3.org/2000/svg">
<path d="M16 32C24.8366 32 32 24.8366 32 16C32 7.16344 24.8366 0 16 0C7.16344 0 0 7.16344 0 16C0 24.8366 7.16344 32 16 32Z" fill="#006C35"/>
<mask id="mask0" mask-type="alpha" maskUnits="userSpaceOnUse" x="0" y="0" width="32" height="32">
<path d="M16 32C24.8366 32 32 24.8366 32 16C32 7.16344 24.8366 0 16 0C7.16344 0 0 7.16344 0 16C0 24.8366 7.16344 32 16 32Z" fill="white"/>
</mask>
<g mask="url(#mask0)">
<path fill-rule="evenodd" clip-rule="evenodd" d="M6 19.3899H20.5455V17.5339C20.5455 17.142 20.9573 16.8867 21.3083 17.0609L22.3636 17.5848V19.3899H25.4719C25.7636 19.3899 26 19.6263 26 19.9179V21.9439C26 22.5272 25.5272 23 24.9439 23H21.0735C20.7819 23 20.5455 22.7636 20.5455 22.4719V21.1949H8.03579C7.89641 21.1949 7.76267 21.1398 7.66375 21.0416L6 19.3899Z" fill="white"/>
<path fill-rule="evenodd" clip-rule="evenodd" d="M6 13.4427C6 13.3727 6.02782 13.3055 6.07733 13.256L6.64664 12.6867C6.74975 12.5836 6.74975 12.4164 6.64664 12.3133L6.07733 11.744C6.02782 11.6945 6 11.6273 6 11.5573V10.264C6 10.1182 6.11821 10 6.26403 10H7.40264C7.54846 10 7.66667 10.1182 7.66667 10.264V10.5482C7.66667 10.8268 8.04225 10.9155 8.16685 10.6663L8.42702 10.146C8.47175 10.0565 8.56317 10 8.66318 10H10.736C10.8818 10 11 10.1182 11 10.264V10.5693C11 10.7151 10.8818 10.8333 10.736 10.8333H9.59736C9.45154 10.8333 9.33333 10.9515 9.33333 11.0974V11.4026C9.33333 11.5485 9.45154 11.6667 9.59736 11.6667H10.736C10.8818 11.6667 11 11.7849 11 11.9307V14.736C11 14.8818 10.8818 15 10.736 15H9.59736C9.45154 15 9.33333 14.8818 9.33333 14.736V13.5974C9.33333 13.4515 9.45154 13.3333 9.59736 13.3333H9.90264C10.0485 13.3333 10.1667 13.2151 10.1667 13.0693V12.764C10.1667 12.6182 10.0485 12.5 9.90264 12.5H8.76403C8.61821 12.5 8.5 12.6182 8.5 12.764V14.736C8.5 14.8818 8.38179 15 8.23597 15H7.9307C7.78488 15 7.66667 14.8818 7.66667 14.736V13.5974C7.66667 13.4515 7.54846 13.3333 7.40264 13.3333H7.09736C6.95154 13.3333 6.83333 13.4515 6.83333 13.5974V14.736C6.83333 14.8818 6.71512 15 6.5693 15H6.26403C6.11821 15 6 14.8818 6 14.736V13.4427Z" fill="white"/>
<path fill-rule="evenodd" clip-rule="evenodd" d="M18 11.2461C18 11.4784 17.8698 11.7969 17.6991 11.9675L17.4675 12.1991C17.3014 12.3653 17.2969 12.6302 17.4675 12.8009L17.6991 13.0325C17.8653 13.1986 18 13.5117 18 13.7539V14.5794C18 14.8117 17.8216 15 17.5794 15H16.7539C16.5216 15 16.3333 14.8216 16.3333 14.5794V13.7539C16.3333 13.5216 16.2564 13.4871 16.1401 13.7199L15.6933 14.6134C15.5865 14.8269 15.3038 15 15.0872 15H13.4128C13.1848 15 13 14.8067 13 14.5833C13 14.3532 13.1784 14.1667 13.4206 14.1667H14.2461C14.4784 14.1667 14.6667 13.9734 14.6667 13.75C14.6667 13.5199 14.4883 13.3333 14.2461 13.3333H13.4206C13.1883 13.3333 13 13.1541 13 12.9246V10.4087C13 10.183 13.1784 10 13.4206 10H14.2461C14.4784 10 14.6667 10.1784 14.6667 10.4206V11.2461C14.6667 11.4784 14.4734 11.6667 14.25 11.6667C14.0199 11.6667 13.8333 11.8599 13.8333 12.0833C13.8333 12.3135 14.0117 12.5 14.2539 12.5H15.0794C15.3117 12.5 15.5 12.3038 15.5 12.0872V10.4128C15.5 10.1848 15.6933 10 15.9167 10C16.1468 10 16.3333 10.1784 16.3333 10.4206V11.2461C16.3333 11.4784 16.5266 11.6667 16.75 11.6667C16.9801 11.6667 17.1667 11.4883 17.1667 11.2461V10.4206C17.1667 10.1883 17.3599 10 17.5833 10C17.8135 10 18 10.1784 18 10.4206V11.2461Z" fill="white"/>
<path fill-rule="evenodd" clip-rule="evenodd" d="M20 13.4427C20 13.3727 20.0278 13.3055 20.0773 13.256L20.6466 12.6867C20.7497 12.5836 20.7497 12.4164 20.6466 12.3133L20.0773 11.744C20.0278 11.6945 20 11.6273 20 11.5573V10.264C20 10.1182 20.1182 10 20.264 10H21.4026C21.5485 10 21.6667 10.1182 21.6667 10.264V10.5482C21.6667 10.8268 22.0423 10.9155 22.1669 10.6663L22.427 10.146C22.4717 10.0565 22.5632 10 22.6632 10H24.736C24.8818 10 25 10.1182 25 10.264V10.5693C25 10.7151 24.8818 10.8333 24.736 10.8333H23.5974C23.4515 10.8333 23.3333 10.9515 23.3333 11.0974V11.4026C23.3333 11.5485 23.4515 11.6667 23.5974 11.6667H24.736C24.8818 11.6667 25 11.7849 25 11.9307V14.736C25 14.8818 24.8818 15 24.736 15H23.5974C23.4515 15 23.3333 14.8818 23.3333 14.736V13.5974C23.3333 13.4515 23.4515 13.3333 23.5974 13.3333H23.9026C24.0485 13.3333 24.1667 13.2151 24.1667 13.0693V12.764C24.1667 12.6182 24.0485 12.5 23.9026 12.5H22.764C22.6182 12.5 22.5 12.6182 22.5 12.764V14.736C22.5 14.8818 22.3818 15 22.236 15H21.9307C21.7849 15 21.6667 14.8818 21.6667 14.736V13.5974C21.6667 13.4515 21.5485 13.3333 21.4026 13.3333H21.0974C20.9515 13.3333 20.8333 13.4515 20.8333 13.5974V14.736C20.8333 14.8818 20.7151 15 20.5693 15H20.264C20.1182 15 20 14.8818 20 14.736V13.4427Z" fill="white"/>
</g>
</svg>
