<svg width="32" height="32" viewBox="0 0 32 32" fill="none" xmlns="http://www.w3.org/2000/svg">
<mask id="path-1-inside-1" fill="white">
<path d="M16 32C24.8366 32 32 24.8366 32 16C32 7.16344 24.8366 0 16 0C7.16344 0 0 7.16344 0 16C0 24.8366 7.16344 32 16 32Z"/>
</mask>
<path d="M16 32C24.8366 32 32 24.8366 32 16C32 7.16344 24.8366 0 16 0C7.16344 0 0 7.16344 0 16C0 24.8366 7.16344 32 16 32Z" fill="white" stroke="#F8F8F8" mask="url(#path-1-inside-1)"/>
<mask id="mask0" mask-type="alpha" maskUnits="userSpaceOnUse" x="0" y="0" width="32" height="32">
<path d="M16 32C24.8366 32 32 24.8366 32 16C32 7.16344 24.8366 0 16 0C7.16344 0 0 7.16344 0 16C0 24.8366 7.16344 32 16 32Z" fill="white"/>
</mask>
<g mask="url(#mask0)">
<path d="M16 31.75C24.6985 31.75 31.75 24.6985 31.75 16C31.75 7.30152 24.6985 0.25 16 0.25C7.30152 0.25 0.25 7.30152 0.25 16C0.25 24.6985 7.30152 31.75 16 31.75Z" stroke="#F8F8F8" stroke-width="0.5"/>
<path fill-rule="evenodd" clip-rule="evenodd" d="M0 16V0H32V16H0ZM12.9197 5.09482C12.0854 4.40972 11.0269 4 9.875 4C7.18261 4 5 6.23858 5 9C5 11.7614 7.18261 14 9.875 14C11.0269 14 12.0854 13.5903 12.9197 12.9052C12.4777 13.0742 11.9994 13.1667 11.5 13.1667C9.25634 13.1667 7.4375 11.3012 7.4375 9C7.4375 6.69881 9.25634 4.83333 11.5 4.83333C11.9994 4.83333 12.4777 4.92575 12.9197 5.09482ZM10.6875 9C11.1362 9 11.5 8.6269 11.5 8.16667C11.5 7.70643 11.1362 7.33333 10.6875 7.33333C10.2388 7.33333 9.875 7.70643 9.875 8.16667C9.875 8.6269 10.2388 9 10.6875 9ZM12.3125 12.3333C12.7612 12.3333 13.125 11.9602 13.125 11.5C13.125 11.0398 12.7612 10.6667 12.3125 10.6667C11.8638 10.6667 11.5 11.0398 11.5 11.5C11.5 11.9602 11.8638 12.3333 12.3125 12.3333ZM15.5625 12.3333C16.0112 12.3333 16.375 11.9602 16.375 11.5C16.375 11.0398 16.0112 10.6667 15.5625 10.6667C15.1138 10.6667 14.75 11.0398 14.75 11.5C14.75 11.9602 15.1138 12.3333 15.5625 12.3333ZM17.1875 9C17.6362 9 18 8.6269 18 8.16667C18 7.70643 17.6362 7.33333 17.1875 7.33333C16.7388 7.33333 16.375 7.70643 16.375 8.16667C16.375 8.6269 16.7388 9 17.1875 9ZM13.9375 6.5C14.3862 6.5 14.75 6.1269 14.75 5.66667C14.75 5.20643 14.3862 4.83333 13.9375 4.83333C13.4888 4.83333 13.125 5.20643 13.125 5.66667C13.125 6.1269 13.4888 6.5 13.9375 6.5Z" fill="#CE1126"/>
</g>
</svg>
