<svg width="32" height="32" viewBox="0 0 32 32" fill="none" xmlns="http://www.w3.org/2000/svg">
<mask id="path-1-inside-1" fill="white">
<path d="M16 32C24.8366 32 32 24.8366 32 16C32 7.16344 24.8366 0 16 0C7.16344 0 0 7.16344 0 16C0 24.8366 7.16344 32 16 32Z"/>
</mask>
<path d="M16 32C24.8366 32 32 24.8366 32 16C32 7.16344 24.8366 0 16 0C7.16344 0 0 7.16344 0 16C0 24.8366 7.16344 32 16 32Z" fill="white" stroke="#F8F8F8" mask="url(#path-1-inside-1)"/>
<path fill-rule="evenodd" clip-rule="evenodd" d="M31.6623 19.2857C30.1469 26.5461 23.7104 32 16 32C15.7607 32 15.5225 31.9947 15.2857 31.9843V19.2857H31.6623ZM31.6915 12.8571C30.2312 5.52552 23.7609 0 16 0C15.7607 0 15.5225 0.00525601 15.2857 0.0156589V12.8571H31.6915ZM8.85717 1.67897C4.50702 3.85289 1.28588 7.95056 0.308594 12.8571H8.85717V1.67897ZM0.337729 19.2857C1.34861 24.1289 4.54931 28.1682 8.85717 30.321V19.2857H0.337729Z" fill="#CF142B"/>
<mask id="mask0" mask-type="alpha" maskUnits="userSpaceOnUse" x="0" y="0" width="32" height="32">
<path fill-rule="evenodd" clip-rule="evenodd" d="M31.6623 19.2857C30.1469 26.5461 23.7104 32 16 32C15.7607 32 15.5225 31.9947 15.2857 31.9843V19.2857H31.6623ZM31.6915 12.8571C30.2312 5.52552 23.7609 0 16 0C15.7607 0 15.5225 0.00525601 15.2857 0.0156589V12.8571H31.6915ZM8.85717 1.67897C4.50702 3.85289 1.28588 7.95056 0.308594 12.8571H8.85717V1.67897ZM0.337729 19.2857C1.34861 24.1289 4.54931 28.1682 8.85717 30.321V19.2857H0.337729Z" fill="white"/>
</mask>
<g mask="url(#mask0)">
</g>
</svg>
