<svg width="32" height="32" viewBox="0 0 32 32" fill="none" xmlns="http://www.w3.org/2000/svg">
<path d="M16 32C24.8366 32 32 24.8366 32 16C32 7.16344 24.8366 0 16 0C7.16344 0 0 7.16344 0 16C0 24.8366 7.16344 32 16 32Z" fill="#003399"/>
<mask id="mask0" mask-type="alpha" maskUnits="userSpaceOnUse" x="0" y="0" width="32" height="32">
<path d="M16 32C24.8366 32 32 24.8366 32 16C32 7.16344 24.8366 0 16 0C7.16344 0 0 7.16344 0 16C0 24.8366 7.16344 32 16 32Z" fill="white"/>
</mask>
<g mask="url(#mask0)">
<path fill-rule="evenodd" clip-rule="evenodd" d="M14.4848 6.84183L16 6.4L17.5153 6.84183L17.0715 5.33334L17.5153 3.82484L16 4.26667L14.4848 3.82484L14.9286 5.33334L14.4848 6.84183ZM14.4848 28.1752L16 27.7333L17.5153 28.1752L17.0715 26.6667L17.5153 25.1582L16 25.6L14.4848 25.1582L14.9286 26.6667L14.4848 28.1752ZM26.7143 17.0667L25.1991 17.5085L25.6429 16L25.1991 14.4915L26.7143 14.9333L28.2295 14.4915L27.7857 16L28.2295 17.5085L26.7143 17.0667ZM3.77051 17.5085L5.28574 17.0667L6.80097 17.5085L6.35717 16L6.80097 14.4915L5.28574 14.9333L3.77051 14.4915L4.21431 16L3.77051 17.5085ZM25.2789 11.7333L23.7636 12.1752L24.2074 10.6667L23.7636 9.15817L25.2789 9.6L26.7941 9.15817L26.3503 10.6667L26.7941 12.1752L25.2789 11.7333ZM5.20595 22.8418L6.72118 22.4L8.23641 22.8418L7.79261 21.3333L8.23641 19.8248L6.72118 20.2667L5.20595 19.8248L5.64975 21.3333L5.20595 22.8418ZM21.3572 7.82906L19.8419 8.27089L20.2857 6.7624L19.8419 5.2539L21.3572 5.69573L22.8724 5.2539L22.4286 6.7624L22.8724 8.27089L21.3572 7.82906ZM9.12765 26.7461L10.6429 26.3043L12.1581 26.7461L11.7143 25.2376L12.1581 23.7291L10.6429 24.1709L9.12765 23.7291L9.57145 25.2376L9.12765 26.7461ZM25.2789 22.4L23.7636 22.8418L24.2074 21.3333L23.7636 19.8248L25.2789 20.2667L26.7941 19.8248L26.3503 21.3333L26.7941 22.8418L25.2789 22.4ZM5.20595 12.1752L6.72118 11.7333L8.23641 12.1752L7.79261 10.6667L8.23641 9.15817L6.72118 9.6L5.20595 9.15817L5.64975 10.6667L5.20595 12.1752ZM21.3572 26.3043L19.8419 26.7461L20.2857 25.2376L19.8419 23.7291L21.3572 24.1709L22.8724 23.7291L22.4286 25.2376L22.8724 26.7461L21.3572 26.3043ZM9.12765 8.27089L10.6429 7.82906L12.1581 8.27089L11.7143 6.7624L12.1581 5.2539L10.6429 5.69573L9.12765 5.2539L9.57145 6.7624L9.12765 8.27089Z" fill="#FFCC00"/>
</g>
</svg>
