<svg width="32" height="32" viewBox="0 0 32 32" fill="none" xmlns="http://www.w3.org/2000/svg">
<mask id="path-1-inside-1" fill="white">
<path d="M16 32C24.8366 32 32 24.8366 32 16C32 7.16344 24.8366 0 16 0C7.16344 0 0 7.16344 0 16C0 24.8366 7.16344 32 16 32Z"/>
</mask>
<path d="M16 32C24.8366 32 32 24.8366 32 16C32 7.16344 24.8366 0 16 0C7.16344 0 0 7.16344 0 16C0 24.8366 7.16344 32 16 32Z" fill="white" stroke="#F8F8F8" mask="url(#path-1-inside-1)"/>
<mask id="mask0" mask-type="alpha" maskUnits="userSpaceOnUse" x="0" y="0" width="32" height="32">
<mask id="path-2-inside-2" mask-type="luminance" fill="white">
<path d="M16 32C24.8366 32 32 24.8366 32 16C32 7.16344 24.8366 0 16 0C7.16344 0 0 7.16344 0 16C0 24.8366 7.16344 32 16 32Z"/>
</mask>
<path d="M16 32C24.8366 32 32 24.8366 32 16C32 7.16344 24.8366 0 16 0C7.16344 0 0 7.16344 0 16C0 24.8366 7.16344 32 16 32Z" fill="white" stroke="white" mask="url(#path-2-inside-2)"/>
</mask>
<g mask="url(#mask0)">
<path fill-rule="evenodd" clip-rule="evenodd" d="M0 32H32V21H0V32Z" fill="#171796"/>
<path fill-rule="evenodd" clip-rule="evenodd" d="M0 11H32V0H0V11Z" fill="#E30303"/>
<path fill-rule="evenodd" clip-rule="evenodd" d="M13 11H11V13H13V15H11V17H13V19H11V21H13V23H15V21H17V23H19V21H21V19H19V17H21V15H19V13H21V11H19V13H17V11H15V13H13V11ZM15 15V13H17V15H15ZM15 17V15H13V17H15ZM17 17H15V19H13V21H15V19H17V21H19V19H17V17ZM17 17H19V15H17V17Z" fill="#E30303"/>
<path opacity="0.5" fill-rule="evenodd" clip-rule="evenodd" d="M11 9L12 8L13 9V11H11V9ZM15 9L16 8L17 9V11H15V9ZM20 8L19 9V11H21V9L20 8Z" fill="#0093DD"/>
<path opacity="0.5" fill-rule="evenodd" clip-rule="evenodd" d="M14 8L13 9V11H15V9L14 8ZM18 8L17 9V11H19V9L18 8Z" fill="#171796"/>
</g>
</svg>
