<svg width="32" height="32" viewBox="0 0 32 32" fill="none" xmlns="http://www.w3.org/2000/svg">
<mask id="path-1-inside-1" fill="white">
<path d="M16 32C24.8366 32 32 24.8366 32 16C32 7.16344 24.8366 0 16 0C7.16344 0 0 7.16344 0 16C0 24.8366 7.16344 32 16 32Z"/>
</mask>
<path d="M16 32C24.8366 32 32 24.8366 32 16C32 7.16344 24.8366 0 16 0C7.16344 0 0 7.16344 0 16C0 24.8366 7.16344 32 16 32Z" fill="white" stroke="#F8F8F8" mask="url(#path-1-inside-1)"/>
<mask id="mask0" mask-type="alpha" maskUnits="userSpaceOnUse" x="0" y="0" width="32" height="32">
<mask id="path-2-inside-2" mask-type="luminance" fill="white">
<path d="M16 32C24.8366 32 32 24.8366 32 16C32 7.16344 24.8366 0 16 0C7.16344 0 0 7.16344 0 16C0 24.8366 7.16344 32 16 32Z"/>
</mask>
<path d="M16 32C24.8366 32 32 24.8366 32 16C32 7.16344 24.8366 0 16 0C7.16344 0 0 7.16344 0 16C0 24.8366 7.16344 32 16 32Z" fill="white" stroke="white" mask="url(#path-2-inside-2)"/>
</mask>
<g mask="url(#mask0)">
<path fill-rule="evenodd" clip-rule="evenodd" d="M0 32H32V21H0V32Z" fill="#007A3D"/>
<path fill-rule="evenodd" clip-rule="evenodd" d="M0 11H32V0H0V11Z" fill="black"/>
<path fill-rule="evenodd" clip-rule="evenodd" d="M0 2L16 16L0 30V2Z" fill="#D62612"/>
<path fill-rule="evenodd" clip-rule="evenodd" d="M6.2 17.8L4.81157 19.0831L4.94907 17.1976L3.08023 16.9121L4.64012 15.844L3.69814 14.2048L5.50579 14.7584L6.2 13L6.89421 14.7584L8.70186 14.2048L7.75988 15.844L9.31977 16.9121L7.45093 17.1976L7.58843 19.0831L6.2 17.8Z" fill="white"/>
</g>
</svg>
