<svg width="32" height="32" viewBox="0 0 32 32" fill="none" xmlns="http://www.w3.org/2000/svg">
<mask id="path-1-inside-1" fill="white">
<path d="M16 32C24.8366 32 32 24.8366 32 16C32 7.16344 24.8366 0 16 0C7.16344 0 0 7.16344 0 16C0 24.8366 7.16344 32 16 32Z"/>
</mask>
<path d="M16 32C24.8366 32 32 24.8366 32 16C32 7.16344 24.8366 0 16 0C7.16344 0 0 7.16344 0 16C0 24.8366 7.16344 32 16 32Z" fill="white" stroke="#F8F8F8" mask="url(#path-1-inside-1)"/>
<mask id="mask0" mask-type="alpha" maskUnits="userSpaceOnUse" x="0" y="0" width="32" height="32">
<mask id="path-2-inside-2" mask-type="luminance" fill="white">
<path d="M16 32C24.8366 32 32 24.8366 32 16C32 7.16344 24.8366 0 16 0C7.16344 0 0 7.16344 0 16C0 24.8366 7.16344 32 16 32Z"/>
</mask>
<path d="M16 32C24.8366 32 32 24.8366 32 16C32 7.16344 24.8366 0 16 0C7.16344 0 0 7.16344 0 16C0 24.8366 7.16344 32 16 32Z" fill="white" stroke="white" mask="url(#path-2-inside-2)"/>
</mask>
<g mask="url(#mask0)">
<path fill-rule="evenodd" clip-rule="evenodd" d="M16 0H32V2.25H16V0ZM16 4.25H32V6.5H16V4.25ZM32 8.5H16V10.75H32V8.5ZM16 12.75H32V15H16V12.75ZM32 19.25V17H0V19.25H32ZM32 21.25V23.5H0V21.25H32ZM32 27.75V25.5H0V27.75H32ZM32 32V32.25H0V32V30V29.75H32V30V32Z" fill="#CC0001"/>
<rect width="16.6" height="17" fill="#010066"/>
<path fill-rule="evenodd" clip-rule="evenodd" d="M9.28311 15C10.5314 15 11.6786 14.5903 12.5827 13.9052C12.1037 14.0742 11.5853 14.1667 11.0442 14.1667C8.61267 14.1667 6.64156 12.3012 6.64156 10C6.64156 7.69881 8.61267 5.83333 11.0442 5.83333C11.5853 5.83333 12.1037 5.92575 12.5827 6.09482C11.6786 5.40972 10.5314 5 9.28311 5C6.36533 5 4 7.23858 4 10C4 12.7614 6.36533 15 9.28311 15ZM11.7108 12.3861L13.0221 10.995L14.3333 12.3861L13.9908 10.5576L15.9684 10.4638L14.2301 9.57484L15.3848 8.06678L13.5597 8.78671L13.0221 7L12.4845 8.78671L10.6593 8.06678L11.8141 9.57484L10.0758 10.4638L12.0533 10.5576L11.7108 12.3861Z" fill="#FFD34F"/>
</g>
</svg>
