<svg width="32" height="32" viewBox="0 0 32 32" fill="none" xmlns="http://www.w3.org/2000/svg">
<mask id="path-1-inside-1" fill="white">
<path d="M16 32C24.8366 32 32 24.8366 32 16C32 7.16344 24.8366 0 16 0C7.16344 0 0 7.16344 0 16C0 24.8366 7.16344 32 16 32Z"/>
</mask>
<path d="M16 32C24.8366 32 32 24.8366 32 16C32 7.16344 24.8366 0 16 0C7.16344 0 0 7.16344 0 16C0 24.8366 7.16344 32 16 32Z" fill="white" stroke="#F8F8F8" mask="url(#path-1-inside-1)"/>
<mask id="mask0" mask-type="alpha" maskUnits="userSpaceOnUse" x="0" y="0" width="32" height="32">
<mask id="path-2-inside-2" mask-type="luminance" fill="white">
<path d="M16 32C24.8366 32 32 24.8366 32 16C32 7.16344 24.8366 0 16 0C7.16344 0 0 7.16344 0 16C0 24.8366 7.16344 32 16 32Z"/>
</mask>
<path d="M16 32C24.8366 32 32 24.8366 32 16C32 7.16344 24.8366 0 16 0C7.16344 0 0 7.16344 0 16C0 24.8366 7.16344 32 16 32Z" fill="white" stroke="white" mask="url(#path-2-inside-2)"/>
</mask>
<g mask="url(#mask0)">
<path fill-rule="evenodd" clip-rule="evenodd" d="M0 32H32V16H16L0 32Z" fill="#CE1126"/>
<path fill-rule="evenodd" clip-rule="evenodd" d="M32 16H16L0 0H32V16Z" fill="#0038A8"/>
<path fill-rule="evenodd" clip-rule="evenodd" d="M6.82128 17.6093C6.75489 17.616 6.68754 17.6194 6.6194 17.6194C6.55125 17.6194 6.4839 17.616 6.41751 17.6093L4.70598 20.2388L5.35508 17.1692C5.25063 17.0838 5.15496 16.9882 5.06964 16.8837L2 17.5328L4.62946 15.8213C4.62281 15.7549 4.6194 15.6875 4.6194 15.6194C4.6194 15.5513 4.62281 15.4839 4.62946 15.4175L2 13.706L5.06964 14.3551C5.15496 14.2506 5.25063 14.155 5.35508 14.0696L4.70598 11L6.41751 13.6295C6.4839 13.6228 6.55125 13.6194 6.6194 13.6194C6.68754 13.6194 6.75489 13.6228 6.82128 13.6295L8.53281 11L7.88372 14.0696C7.98817 14.155 8.08384 14.2506 8.16915 14.3551L11.2388 13.706L8.60933 15.4175C8.61599 15.4839 8.6194 15.5513 8.6194 15.6194C8.6194 15.6875 8.61599 15.7549 8.60933 15.8213L11.2388 17.5328L8.16915 16.8837C8.08384 16.9882 7.98817 17.0838 7.88372 17.1692L8.53281 20.2388L6.82128 17.6093Z" fill="#FDD64D"/>
</g>
</svg>
