<svg width="32" height="32" viewBox="0 0 32 32" fill="none" xmlns="http://www.w3.org/2000/svg">
<path d="M16 32C24.8366 32 32 24.8366 32 16C32 7.16344 24.8366 0 16 0C7.16344 0 0 7.16344 0 16C0 24.8366 7.16344 32 16 32Z" fill="#E70013"/>
<mask id="mask0" mask-type="alpha" maskUnits="userSpaceOnUse" x="0" y="0" width="32" height="32">
<path d="M16 32C24.8366 32 32 24.8366 32 16C32 7.16344 24.8366 0 16 0C7.16344 0 0 7.16344 0 16C0 24.8366 7.16344 32 16 32Z" fill="white"/>
</mask>
<g mask="url(#mask0)">
<path fill-rule="evenodd" clip-rule="evenodd" d="M24 16C24 20.4183 20.4183 24 16 24C11.5817 24 8 20.4183 8 16C8 11.5817 11.5817 8 16 8C20.4183 8 24 11.5817 24 16ZM13.3333 16C13.3333 18.9553 15.5522 21.3924 18.4149 21.7363C17.6723 22.0492 16.8564 22.2222 16 22.2222C12.5636 22.2222 9.77778 19.4364 9.77778 16C9.77778 12.5636 12.5636 9.77778 16 9.77778C16.8564 9.77778 17.6723 9.95078 18.4149 10.2637C15.5522 10.6076 13.3333 13.0447 13.3333 16ZM17.5058 19.5401L19.1389 17.5601L21.5432 18.4583L20.1648 16.2933L21.762 14.2842L19.277 14.9262L17.8598 12.7863L17.7024 15.3481L15.2293 16.0346L17.6171 16.976L17.5058 19.5401Z" fill="white"/>
</g>
</svg>
