<svg width="32" height="32" viewBox="0 0 32 32" fill="none" xmlns="http://www.w3.org/2000/svg">
<path d="M16 32C24.8366 32 32 24.8366 32 16C32 7.16344 24.8366 0 16 0C7.16344 0 0 7.16344 0 16C0 24.8366 7.16344 32 16 32Z" fill="#E30A17"/>
<mask id="mask0" mask-type="alpha" maskUnits="userSpaceOnUse" x="0" y="0" width="32" height="32">
<path d="M16 32C24.8366 32 32 24.8366 32 16C32 7.16344 24.8366 0 16 0C7.16344 0 0 7.16344 0 16C0 24.8366 7.16344 32 16 32Z" fill="white"/>
</mask>
<g mask="url(#mask0)">
<path fill-rule="evenodd" clip-rule="evenodd" d="M18.0191 16.8125L16.4517 17.9298L17.03 16.0938L15.483 14.9484L17.4078 14.9311L18.0191 13.1058L18.6304 14.9311L20.5553 14.9484L19.0082 16.0938L19.5865 17.9298L18.0191 16.8125Z" fill="white"/>
<path fill-rule="evenodd" clip-rule="evenodd" d="M16.7361 19.6841C15.6382 21.0935 13.925 22 12 22C8.68629 22 6 19.3137 6 16C6 12.6863 8.68629 10 12 10C13.925 10 15.6382 10.9065 16.7361 12.3159C15.8889 11.7001 14.8237 11.3333 13.6667 11.3333C10.9052 11.3333 8.66667 13.4227 8.66667 16C8.66667 18.5773 10.9052 20.6667 13.6667 20.6667C14.8237 20.6667 15.8889 20.2999 16.7361 19.6841Z" fill="white"/>
</g>
</svg>
