<svg width="409" height="280" viewBox="0 0 409 280" fill="none" xmlns="http://www.w3.org/2000/svg">
    <g filter="url(#filter0_d)">
        <rect x="16" y="40" width="343" height="216" rx="12" fill="url(#paint0_linear)"/>
        <rect x="16.25" y="40.25" width="342.5" height="215.5" rx="11.75" stroke="#EBEBEB" stroke-width="0.5"/>
    </g>
    <path d="M308.252 224.25V232H310.911C313.215 232 314.568 230.566 314.568 228.122C314.568 225.684 313.209 224.25 310.911 224.25H308.252ZM309.219 225.12H310.846C312.565 225.12 313.58 226.237 313.58 228.133C313.58 230.023 312.576 231.13 310.846 231.13H309.219V225.12ZM318.436 226.924C319.354 226.924 319.966 227.601 319.988 228.627H316.797C316.867 227.601 317.512 226.924 318.436 226.924ZM319.961 230.501C319.719 231.012 319.214 231.286 318.468 231.286C317.485 231.286 316.846 230.561 316.797 229.417V229.374H320.96V229.019C320.96 227.22 320.009 226.108 318.446 226.108C316.856 226.108 315.836 227.29 315.836 229.11C315.836 230.942 316.84 232.102 318.446 232.102C319.714 232.102 320.605 231.495 320.885 230.501H319.961ZM325.289 232.102C326.755 232.102 327.717 230.915 327.717 229.105C327.717 227.284 326.761 226.108 325.289 226.108C324.494 226.108 323.791 226.5 323.474 227.123H323.388V223.911H322.464V232H323.345V231.076H323.431C323.796 231.721 324.483 232.102 325.289 232.102ZM325.074 226.94C326.132 226.94 326.761 227.751 326.761 229.105C326.761 230.458 326.132 231.27 325.074 231.27C324.021 231.27 323.366 230.442 323.366 229.105C323.366 227.768 324.021 226.94 325.074 226.94ZM329.188 232H330.112V226.21H329.188V232ZM329.65 225.034C330.005 225.034 330.295 224.744 330.295 224.389C330.295 224.035 330.005 223.745 329.65 223.745C329.296 223.745 329.006 224.035 329.006 224.389C329.006 224.744 329.296 225.034 329.65 225.034ZM332.261 224.711V226.21H331.326V226.983H332.261V230.496C332.261 231.603 332.739 232.043 333.931 232.043C334.114 232.043 334.291 232.021 334.474 231.989V231.21C334.302 231.227 334.21 231.232 334.044 231.232C333.442 231.232 333.185 230.942 333.185 230.26V226.983H334.474V226.21H333.185V224.711H332.261Z" fill="#333333"/>
    <path fill-rule="evenodd" clip-rule="evenodd" d="M304.099 203.034C304.062 206.098 306.665 207.809 308.624 208.825C310.639 209.868 311.316 210.538 311.308 211.47C311.293 212.899 309.701 213.529 308.212 213.553C305.614 213.596 304.103 212.807 302.902 212.208L301.966 216.871C303.171 217.462 305.402 217.978 307.716 218C313.147 218 316.701 215.147 316.72 210.721C316.74 205.106 309.423 204.795 309.473 202.285C309.49 201.524 310.172 200.712 311.667 200.505C312.407 200.401 314.45 200.321 316.765 201.457L317.674 196.945C316.43 196.462 314.829 196.001 312.836 196.001C307.724 196.001 304.128 198.893 304.099 203.034ZM326.41 196.389C325.418 196.389 324.582 197.004 324.209 197.95L316.451 217.669H321.878L322.957 214.492H329.59L330.217 217.669H334.999L330.826 196.389H326.41ZM327.169 202.138L328.735 210.128H324.445L327.169 202.138ZM297.519 196.389L293.241 217.669H298.413L302.689 196.389H297.519ZM289.868 196.389L284.485 210.873L282.307 198.558C282.052 197.183 281.043 196.389 279.923 196.389H271.122L271 197.007C272.806 197.424 274.858 198.098 276.102 198.817C276.863 199.258 277.081 199.641 277.33 200.688L281.454 217.669H286.92L295.299 196.389H289.868Z" fill="#1A1F71"/>
    <path d="M47.7539 218.377L48.3887 217.225L45.9082 215.975L48.3887 214.705L47.7637 213.572L45.3809 215.057L45.4785 212.264H44.209L44.3066 215.047L41.9141 213.572L41.3086 214.705L43.7598 215.965L41.2988 217.215L41.9043 218.387L44.3066 216.883L44.1992 219.686H45.4785L45.3809 216.883L47.7539 218.377ZM57.4023 218.377L58.0371 217.225L55.5566 215.975L58.0371 214.705L57.4121 213.572L55.0293 215.057L55.127 212.264H53.8574L53.9551 215.047L51.5625 213.572L50.957 214.705L53.4082 215.965L50.9473 217.215L51.5527 218.387L53.9551 216.883L53.8477 219.686H55.127L55.0293 216.883L57.4023 218.377ZM67.0508 218.377L67.6855 217.225L65.2051 215.975L67.6855 214.705L67.0605 213.572L64.6777 215.057L64.7754 212.264H63.5059L63.6035 215.047L61.2109 213.572L60.6055 214.705L63.0566 215.965L60.5957 217.215L61.2012 218.387L63.6035 216.883L63.4961 219.686H64.7754L64.6777 216.883L67.0508 218.377ZM76.6992 218.377L77.334 217.225L74.8535 215.975L77.334 214.705L76.709 213.572L74.3262 215.057L74.4238 212.264H73.1543L73.252 215.047L70.8594 213.572L70.2539 214.705L72.7051 215.965L70.2441 217.215L70.8496 218.387L73.252 216.883L73.1445 219.686H74.4238L74.3262 216.883L76.6992 218.377ZM87.4316 227H89.1309V212.908H87.4121L83.6621 215.604V217.459L87.3926 214.773H87.4316V227ZM95.5762 220.496H97.3438C99.3555 220.496 100.605 221.521 100.605 223.182C100.605 224.656 99.2676 225.711 97.4023 225.711C95.5078 225.711 94.3066 224.715 94.1504 223.27H92.4609C92.5879 225.604 94.4727 227.234 97.4219 227.234C100.186 227.234 102.393 225.545 102.393 223.123C102.393 221.141 101.025 219.822 98.8965 219.695V219.656C100.654 219.344 101.787 218.074 101.787 216.307C101.787 214.188 99.8828 212.674 97.3633 212.674C94.7168 212.674 92.9395 214.207 92.7441 216.6H94.4336C94.5898 215.125 95.6641 214.197 97.2852 214.197C99.0723 214.197 100.02 215.145 100.02 216.541C100.02 217.967 98.8867 219.012 97.2656 219.012H95.5762V220.496ZM109.385 227.234C112.324 227.234 114.404 225.252 114.404 222.42C114.404 219.686 112.451 217.703 109.746 217.703C108.398 217.703 107.227 218.211 106.592 219.061H106.553L106.982 214.471H113.604V212.908H105.537L104.766 220.799H106.416C106.992 219.812 108.115 219.217 109.434 219.217C111.309 219.217 112.646 220.574 112.646 222.469C112.646 224.363 111.318 225.691 109.404 225.691C107.715 225.691 106.436 224.656 106.279 223.152H104.551C104.697 225.555 106.689 227.234 109.385 227.234ZM121.084 227.234C124.072 227.234 126.201 225.555 126.201 223.191C126.201 221.443 124.99 219.998 123.164 219.568V219.529C124.697 219.041 125.625 217.85 125.625 216.385C125.625 214.236 123.721 212.674 121.084 212.674C118.467 212.674 116.533 214.246 116.533 216.375C116.533 217.859 117.48 219.061 119.004 219.529V219.568C117.188 219.988 115.977 221.434 115.977 223.191C115.977 225.545 118.105 227.234 121.084 227.234ZM121.084 225.701C119.15 225.701 117.764 224.598 117.764 223.064C117.764 221.521 119.15 220.418 121.084 220.418C123.027 220.418 124.404 221.512 124.404 223.064C124.404 224.598 123.027 225.701 121.084 225.701ZM121.084 218.875C119.434 218.875 118.281 217.908 118.281 216.541C118.281 215.164 119.434 214.188 121.084 214.188C122.734 214.188 123.887 215.154 123.887 216.541C123.887 217.908 122.725 218.875 121.084 218.875Z" fill="#333333"/>
    <path opacity="0.5" d="M41.8633 202V200.301L42.4219 199.641L44.0586 202H45.4727L43.2734 198.836L45.3281 196.363H44.0156L41.9336 198.875H41.8633V196.363H40.6836V202H41.8633ZM48.4531 196.219C46.7969 196.219 45.7383 197.352 45.7383 199.18C45.7383 201.008 46.7812 202.145 48.4531 202.145C50.1211 202.145 51.1602 201.008 51.1602 199.18C51.1602 197.355 50.1172 196.219 48.4531 196.219ZM48.4531 197.254C49.3711 197.254 49.957 198 49.957 199.18C49.957 200.355 49.3711 201.109 48.4531 201.109C47.5273 201.109 46.9453 200.355 46.9453 199.18C46.9453 198 47.5391 197.254 48.4531 197.254ZM53.457 197.316H54.4805C55.0664 197.316 55.4336 197.652 55.4336 198.188C55.4336 198.73 55.0859 199.051 54.4922 199.051H53.457V197.316ZM53.457 199.957H54.4219L55.4727 202H56.8086L55.6211 199.773C56.2695 199.516 56.6445 198.891 56.6445 198.172C56.6445 197.051 55.8828 196.363 54.6445 196.363H52.2773V202H53.457V199.957ZM60.3789 202V197.371H62.0703V196.363H57.5078V197.371H59.1992V202H60.3789ZM64.2422 202V198.473H64.3125L66.9141 202H67.8906V196.363H66.7617V199.875H66.6914L64.0977 196.363H63.1133V202H64.2422ZM70.4531 196.363H69.2734V200.055C69.2734 201.305 70.1914 202.145 71.6328 202.145C73.0781 202.145 73.9961 201.305 73.9961 200.055V196.363H72.8164V199.934C72.8164 200.645 72.3906 201.098 71.6328 201.098C70.8789 201.098 70.4531 200.645 70.4531 199.934V196.363ZM81.3398 202V196.363H79.9531L78.3906 200.152H78.3203L76.7617 196.363H75.3711V202H76.4648V198.23H76.5273L77.9648 201.676H78.75L80.1836 198.23H80.2461V202H81.3398ZM88.6758 202V196.363H87.2891L85.7266 200.152H85.6562L84.0977 196.363H82.707V202H83.8008V198.23H83.8633L85.3008 201.676H86.0859L87.5195 198.23H87.582V202H88.6758ZM93.7773 200.992H91.2227V199.621H93.6328V198.688H91.2227V197.371H93.7773V196.363H90.043V202H93.7773V200.992ZM96.1992 197.316H97.2227C97.8086 197.316 98.1758 197.652 98.1758 198.188C98.1758 198.73 97.8281 199.051 97.2344 199.051H96.1992V197.316ZM96.1992 199.957H97.1641L98.2148 202H99.5508L98.3633 199.773C99.0117 199.516 99.3867 198.891 99.3867 198.172C99.3867 197.051 98.625 196.363 97.3867 196.363H95.0195V202H96.1992V199.957Z" fill="#333333"/>
    <path fill-rule="evenodd" clip-rule="evenodd" d="M48.7433 71.7511C47.759 71.3673 46.6771 71.1724 45.526 71.1724H40.554C40.2489 71.1724 40 71.4113 40 71.707V88.2927C40 88.5873 40.2489 88.8276 40.554 88.8276H45.526C46.6771 88.8276 47.759 88.6325 48.7433 88.2486C49.8878 87.8032 50.8603 87.1134 51.6319 86.1982C53.387 84.1201 53.6488 81.4882 53.6502 80.1052C53.6502 78.9284 53.4533 75.9578 51.6319 73.8015C50.8603 72.8866 49.8878 72.1968 48.7433 71.7511ZM45.526 87.1724H41.7062V72.8276H45.526C46.93 72.8276 48.8972 73.1699 50.3089 74.8411C51.8263 76.6374 51.9437 79.3247 51.9437 80.1052C51.9437 81.2692 51.7313 83.4746 50.3089 85.1586C48.8972 86.8301 46.93 87.1724 45.526 87.1724ZM75.8319 80.3252V87.1924H80.6063C85.3097 87.1924 85.3097 84.465 85.3097 83.5682C85.3097 81.7102 83.6475 80.3252 81.27 80.3252H75.8319ZM75.8319 72.811H79.8686C81.2945 72.811 82.3601 73.0452 83.034 73.5076C83.476 73.8097 84.0607 74.381 84.0607 75.8505C84.0607 78.4825 81.925 78.6866 81.27 78.6866H75.8319V72.811ZM84.3385 79.3669L84.2469 79.3219L84.3243 79.2566C84.9752 78.7004 85.7516 77.6568 85.7516 75.8505C85.7516 74.1992 85.1652 72.9603 84.0092 72.1686C83.0298 71.4982 81.6756 71.1724 79.8686 71.1724H74.6747C74.3721 71.1724 74.127 71.4105 74.1256 71.7034V88.3C74.1256 88.593 74.371 88.8276 74.6733 88.8276H80.6063C82.475 88.8276 83.9716 88.444 85.0554 87.6785C85.6842 87.2349 86.1688 86.6664 86.4952 85.9886C86.8299 85.2931 87 84.4802 87 83.5682C87 82.18 86.3909 80.8452 85.2852 79.9658C85.0011 79.7401 84.682 79.5385 84.3385 79.3669ZM70.1443 64V88.3296C70.1443 88.5476 70.0007 88.7361 69.7877 88.808C69.6156 88.866 69.4305 88.7567 69.3324 88.6278L58.2003 75.0135V96H56.4941V71.7147C56.4941 71.4968 56.6374 71.305 56.8504 71.2361C56.9033 71.2201 56.959 71.2113 57.013 71.2113C57.1786 71.2113 57.3335 71.2874 57.4328 71.4179L68.438 84.9655V64H70.1443Z" fill="#28B482"/>
    <path fill-rule="evenodd" clip-rule="evenodd" d="M306.428 75.3567L307.775 77.6631L309.396 77.6811L307.651 75.1413L309.144 73.0825L307.761 73.0861L306.428 75.1104H306.411L306.4 71L305.025 71.0036L305.043 77.6696L306.417 77.6667L306.411 75.3567H306.428ZM290.603 77.4535C290.923 77.6473 291.508 77.7909 292.333 77.7887C293.901 77.7844 294.777 76.8821 294.773 75.277C294.769 73.9274 293.986 73.0624 292.86 73.0653C292.443 73.066 292.197 73.1349 291.975 73.2383L291.97 71.0388L290.586 71.0424L290.603 77.4535ZM291.977 73.926C292.109 73.8571 292.252 73.8226 292.473 73.8219C293.208 73.8204 293.405 74.4737 293.408 75.366C293.41 76.3925 293.111 76.9876 292.41 76.9898C292.242 76.9898 292.092 76.9654 291.985 76.923L291.977 73.926ZM297.349 77.7751C295.967 77.7794 295.257 77.2884 295.254 76.3372C295.251 75.1564 296.481 74.8046 297.918 74.674L297.917 74.4622C297.916 73.9863 297.577 73.8513 297.073 73.8528C296.612 73.8542 296.142 73.9992 295.833 74.1363L295.529 73.3811C295.867 73.2447 296.485 73.0315 297.328 73.0287C298.409 73.0258 299.208 73.4558 299.212 74.6969L299.219 77.4305C298.82 77.6351 298.174 77.7729 297.349 77.7751ZM296.547 76.2827C296.545 75.5526 297.086 75.3653 297.919 75.2856L297.923 76.9503C297.799 77.0099 297.622 77.0436 297.418 77.0443C296.868 77.0458 296.548 76.8182 296.547 76.2827ZM302.764 77.676L302.755 74.4751C302.755 74.1521 302.603 73.8384 302.046 73.8398C301.771 73.8405 301.621 73.8836 301.461 73.9339L301.471 77.6796L300.088 77.6832L300.076 73.3603C300.555 73.155 301.228 73.0186 302.078 73.0157C303.594 73.0121 304.137 73.6302 304.139 74.4629L304.148 77.6724L302.764 77.676ZM290.49 82.4677L292.28 79.7033C292.855 79.6343 293.444 79.592 294.048 79.5906C296 79.5848 297.098 79.9918 297.65 80.8906C297.956 81.4017 297.998 81.6673 298.002 82.9953L298.012 86.9435C298.015 88.273 298.098 88.6815 298.506 89.3771L295.111 89.3864L295.109 88.7719L294.459 89.3455C293.851 89.5931 293.606 89.634 293.017 89.6355C291.166 89.6405 290.004 88.642 290 87.0268C289.999 86.3728 290.221 85.716 290.626 85.2451C291.032 84.7742 291.6 84.4447 292.697 84.0326L295.095 83.1676C295.091 81.7972 294.783 81.4096 293.686 81.4125C292.92 81.4146 291.854 81.7606 290.49 82.4677ZM293.433 85.0261L295.141 85.0211L295.147 87.2099C294.803 87.5171 294.518 87.6197 294.111 87.6205C293.318 87.6233 292.809 87.1129 292.807 86.3154C292.805 85.7634 292.967 85.4152 293.433 85.0261ZM308.893 89.3627C308.322 88.9334 307.996 88.5465 307.485 87.6887L305.519 84.4662L308.52 79.831L305.25 79.8404C305.31 80.045 305.33 80.1261 305.331 80.2086C305.331 80.3924 305.23 80.6178 305.048 80.925L304.198 82.3184L303.36 80.8884C303.115 80.5008 303.034 80.2754 303.033 80.0708C303.033 80.0098 303.033 79.948 303.073 79.8461L299.067 79.8562C299.699 80.3457 299.821 80.5094 300.455 81.5101L302.384 84.5732L300.481 87.5437C299.852 88.5063 299.61 88.8143 299.001 89.3885L302.339 89.3799L303.837 87.0641H303.838L304.579 88.2888C304.824 88.7181 304.926 88.9629 304.927 89.1265L304.927 89.1348C304.927 89.2132 304.927 89.2735 304.908 89.3727L308.893 89.3627ZM308.334 84.8431C308.342 87.8688 310.136 89.6032 313.185 89.5953C314.044 89.5931 314.727 89.5084 315.372 89.316L317.166 86.5451C315.834 87.1976 314.964 87.4432 314.034 87.4453C312.549 87.4496 311.714 86.7153 311.445 85.1618L317.24 85.1467C317.258 84.7249 317.258 84.4109 317.258 84.187V84.1869L317.258 84.1432C317.25 81.1167 315.883 79.5453 313.281 79.5525C310.353 79.5597 308.326 81.7341 308.334 84.8431ZM311.419 83.1368L314.327 83.1289C314.324 82.0047 313.794 81.3507 312.94 81.3529C312.085 81.355 311.559 81.9911 311.419 83.1368ZM318.569 82.2028L318.602 95L321.499 90.5278L321.495 89.334C321.805 89.3335 321.959 89.333 322.112 89.3325L322.114 89.3325L322.33 89.3318C325.359 89.3239 327.387 87.1704 327.378 83.9386C327.372 81.3608 325.862 79.5238 323.747 79.5295C323.259 79.531 322.995 79.5927 322.427 79.8605L321.472 80.6817L321.47 79.8016L318.095 79.8109C318.483 80.5051 318.565 80.8935 318.569 82.2028ZM321.49 87.3498C321.876 87.492 322.121 87.5523 322.467 87.5516C323.728 87.548 324.396 86.5236 324.39 84.5394C324.386 82.678 323.794 81.6982 322.655 81.701C322.268 81.7018 321.923 81.826 321.477 82.093L321.49 87.3498ZM334.209 79.7528L332.992 81.6321L331.916 81.635L331.928 86.1761C331.909 87.0763 332.318 87.5049 333.131 87.5027C333.681 87.5013 334.127 87.3362 335 86.8021L334.991 86.8208L333.427 89.2364C332.95 89.4072 332.47 89.4883 331.876 89.4905C330.899 89.4926 330.126 89.2292 329.636 88.657C329.147 88.1273 329.003 87.5752 329 86.3075L328.988 81.6637L327.846 81.6666L331.879 75.4371L331.891 79.7535L334.209 79.747L334.209 79.7528Z" fill="#1A1919"/>
    <path opacity="0.16" fill-rule="evenodd" clip-rule="evenodd" d="M286.5 232C354.155 232 409 177.155 409 109.5C409 41.8451 354.155 -13 286.5 -13C218.845 -13 164 41.8451 164 109.5C164 177.155 218.845 232 286.5 232Z" fill="url(#paint1_radial)"/>
    <defs>
        <radialGradient id="paint1_radial" cx="0" cy="0" r="1" gradientUnits="userSpaceOnUse" gradientTransform="translate(286.5 109.5) rotate(90) scale(128.353)">
            <stop stop-color="white"/>
            <stop offset="1" stop-color="white" stop-opacity="0.01"/>
        </radialGradient>
        <linearGradient id="paint0_linear" x1="51.101" y1="26.7809" x2="34.2925" y2="238.086" gradientUnits="userSpaceOnUse">
            <stop stop-color="#FAFAFA"/>
            <stop offset="1" stop-color="white"/>
        </linearGradient>
    </defs>
</svg>
