<svg fill="none" height="70" viewBox="0 0 70 70" width="70" xmlns="http://www.w3.org/2000/svg" xmlns:xlink="http://www.w3.org/1999/xlink">
    <linearGradient id="a" gradientUnits="userSpaceOnUse" x1="0" x2="0" y1="10" y2="79">
        <stop offset="0" stop-color="#00bdff"/>
        <stop offset="1" stop-color="#1475f2"/>
    </linearGradient>
    <clipPath id="b">
        <path d="m10 22h40v35.4023h-40z"/>
    </clipPath>
    <path clip-rule="evenodd" d="m39.0815 10c6.0235 0 9.0345 0 12.277 1.025 3.54 1.2885 6.328 4.0765 7.6165 7.6165 1.025 3.242 1.025 6.254 1.025 12.277v18.163c0 6.0235 0 9.0345-1.025 12.277-1.2885 3.54-4.0765 6.328-7.6165 7.616-3.2425 1.0255-6.2535 1.0255-12.277 1.0255h-18.163c-6.0235 0-9.035 0-12.277-1.0255-3.54-1.288-6.328-4.076-7.6165-7.616-1.025-3.2425-1.025-6.2535-1.025-12.277v-18.163c0-6.023 0-9.035 1.025-12.277 1.2885-3.54 4.0765-6.328 7.6165-7.6165 3.242-1.025 6.2535-1.025 12.277-1.025z" fill="url(#a)" fill-rule="evenodd"/>
    <g clip-path="url(#b)">
        <path clip-rule="evenodd" d="m17.4408 50.1156c.8821.0179 2.0185.5595 3.4091 1.6248l-2.5591 4.1324c-.7587 1.2252-2.3534 1.6262-3.6014.9056-.0275-.0159-.0547-.0323-.0816-.0492-1.1458-.7224-1.4891-2.2368-.7668-3.3826.5464-.8667 1.1118-1.7932 1.6962-2.7796 0 0 .5805-.4783 1.9036-.4514zm16.2672-18.6484 7.2005 12.5584 6.3472.0002c1.4284 0 2.5863 1.1579 2.5863 2.5862 0 1.4284-1.1579 2.5862-2.5863 2.5862l-3.3817-.0002 2.3184 4.0437c.711 1.2402.2847 2.822-.9534 3.5367-1.2378.7147-2.8204.2925-3.5378-.9437-3.2323-5.5696-6.4646-11.1393-9.6969-16.7089-.0013-.0028-.5725-1.0217-.3892-3.3563.0942-1.1996.7918-2.6338 2.0929-4.3023zm-4.7099-8.0465 1.0506 1.8201.9894-1.7123c.7141-1.237 2.2958-1.6608 3.5328-.9466 1.237.7141 1.6608 2.2958.9466 3.5328l-10.3415 17.9109 7.9104.0002c.2896.0901 2.5726 1.5444 2.5936 3.6548.0061.6406-.1127 1.124-.3564 1.4502l-.0542.0674h-22.6042c-1.4283 0-2.5862-1.1578-2.5862-2.5862 0-1.3943 1.1034-2.5309 2.4847-2.5842l.1015-.002 6.5384-.0002 7.8589-13.6124-2.5438-4.4063c-.7142-1.2369-.2904-2.8186.9466-3.5328 1.237-.7141 2.8187-.2903 3.5328.9466z" fill="#fff" fill-rule="evenodd"/>
    </g>
    <path d="m58 24c6.6274 0 12-5.3726 12-12 0-6.62742-5.3726-12-12-12s-12 5.37258-12 12c0 6.6274 5.3726 12 12 12z" fill="#fe0000"/>
    <path d="m57.7324 18h1.4942v-11.97803h-1.4859l-3.1875 2.29102v1.57715l3.0464-2.20801h.1328z" fill="#fff"/>
</svg>
