<svg width="75" height="36" viewBox="0 0 75 36" fill="none" xmlns="http://www.w3.org/2000/svg">
<path fill-rule="evenodd" clip-rule="evenodd" d="M2.55 35.87L0 28.8H0.9L3.14 35.22L5.66 28.8H6.49L3.69 35.87H2.55ZM7.56 35.87V28.8H8.38V35.87H7.56ZM11.9 35.99C11.02 35.99 10.34 35.75 9.93 35.5L10.19 34.82C10.71 35.08 11.24 35.27 11.91 35.27C12.69 35.27 13.57 34.97 13.57 34.06C13.57 32.29 10.1 32.77 10.1 30.45C10.1 29.31 11.08 28.7 12.21 28.7C13.01 28.7 13.52 28.86 13.95 29.09L13.7 29.73C13.24 29.52 12.79 29.39 12.23 29.39C11.5 29.39 10.89 29.71 10.89 30.43C10.89 32.02 14.4 31.76 14.4 34C14.4 35.35 13.26 35.99 11.9 35.99ZM14.86 35.87L17.76 28.8H18.83L21.4 35.87H20.51L19.57 33.23H16.78L15.73 35.87H14.86ZM17.03 32.57H19.35L18.25 29.38L17.03 32.57ZM25.24 35.87V28.8H27.54C28.95 28.8 29.83 29.58 29.83 31.01C29.83 32.27 28.96 33.32 27.02 33.32H26.69V32.63H27.08C28.19 32.63 28.96 32.18 28.96 31.06C28.96 29.98 28.43 29.47 27.32 29.47H26.06V35.87H25.24ZM31.27 35.87V28.8H32.09V35.16H35.16V35.87H31.27ZM35.24 35.87L38.14 28.8H39.21L41.78 35.87H40.89L39.95 33.23H37.16L36.11 35.87H35.24ZM37.41 32.57H39.73L38.63 29.38L37.41 32.57ZM44.46 35.87V29.5H42.04V28.8H47.7V29.5H45.28V35.87H44.46ZM48.85 35.87V28.8H49.67V35.87H48.85ZM51.79 35.87V28.8H52.84L56.56 34.94H56.58L56.54 34.05V28.8H57.37V35.87H56.27L52.6 29.82H52.57L52.61 30.55V35.87H51.79ZM62.22 35.99C60.85 35.99 59.39 35.46 59.39 33.41V28.8H60.22V33.34C60.22 34.89 61.22 35.28 62.22 35.28C63.32 35.28 64.24 34.79 64.24 33.11V28.8H65.05V33.14C65.05 35.41 63.49 35.99 62.22 35.99ZM67.07 35.87V28.8H68.18L70.6 35.38L73.32 28.8H74.37V35.87H73.54V31.12L73.58 30.03H73.55L71.17 35.87H69.98L67.87 30.01H67.84L67.89 30.99V35.87H67.07Z" fill="#B2B4B3"/>
<path fill-rule="evenodd" clip-rule="evenodd" d="M41.3178 10.7637H45.4253C45.4704 10.5992 45.4845 10.2399 45.4845 10.1044C45.0049 9.77419 44.5113 9.17503 44.3457 8.74047L41.1683 0L39.8942 0.164593L36.178 8.90506C35.9834 9.36973 35.6683 9.74508 35.1737 10.1044C35.1737 10.2991 35.1888 10.5399 35.2329 10.7637H38.8156C38.8608 10.5992 38.8748 10.2399 38.8748 10.1044L38.0511 9.86451C37.5565 9.71397 37.3017 9.39984 37.3017 9.0546C37.3017 8.98033 37.3167 8.89 37.3468 8.81473L38.2759 6.47631H41.993L42.7124 8.66419C42.7425 8.78463 42.7716 8.90506 42.7716 9.03954C42.7716 9.38478 42.607 9.71397 42.3221 9.78924L41.2576 10.1044C41.2576 10.3141 41.2737 10.5399 41.3178 10.7637ZM3.99061 6.71618H4.27555C7.16802 6.71618 8.47229 5.27599 8.47229 3.38719C8.47229 1.16921 7.15297 0.164593 5.0541 0.164593H0.199201C0.123955 0.359293 0.108905 0.629265 0.123955 0.749699L1.24763 1.1381C1.50247 1.22842 1.60781 1.4994 1.60781 1.73826V6.67102L1.56266 8.90506C1.54762 9.45905 1.32288 9.73003 0.978753 9.8344L0.108905 10.1044C0.093856 10.2991 0.123955 10.5399 0.169102 10.7638H4.79926C4.85946 10.5992 4.87551 10.1646 4.87551 10.0291L3.3455 9.62365C3.07662 9.56443 3.00238 9.33962 3.00238 8.98033L2.97128 6.67102V1.1381L4.66582 1.16921C6.34432 1.19932 6.98843 2.06845 6.98843 3.46246C6.98843 5.15656 6.01324 5.71156 4.36584 5.77077L3.99061 5.78583V6.71618ZM19.5421 10.9229L19.5422 10.9229C19.6691 10.9342 19.7843 10.9444 19.8796 10.9444L20.0442 10.1345C19.2054 9.89462 18.6506 9.56443 17.6614 8.57587C16.942 7.84023 16.1023 6.49037 15.7431 5.90626C17.0163 5.51686 17.6915 4.30249 17.6915 3.08812C17.6915 0.914291 16.1775 0.164593 14.0646 0.164593H9.53778C9.46353 0.359293 9.44748 0.629265 9.46353 0.749699L10.5872 1.1381C10.7818 1.21337 10.9323 1.39301 10.9323 1.57367V6.67102L10.8872 8.89C10.8721 9.38479 10.7227 9.66881 10.2872 9.8344L9.56787 10.1044C9.55282 10.2991 9.58292 10.5399 9.61302 10.7638H13.7496C13.8098 10.5992 13.8098 10.1194 13.8098 9.98495L12.5958 9.69992C12.4152 9.66881 12.341 9.54938 12.341 9.29446L12.2808 6.26656H13.4054C13.6001 6.26656 14.0345 6.25151 14.184 6.2214C14.2198 6.28576 14.2604 6.35955 14.3053 6.44122L14.3055 6.44164L14.3056 6.44183C14.7314 7.21601 15.5457 8.69677 16.3732 9.56443C17.2711 10.5239 18.6055 10.8089 19.4442 10.9143L19.5421 10.9229ZM13.6894 1.16921L12.2808 1.1381V5.27599H13.6743C15.3237 5.27599 16.1474 4.55741 16.1474 3.16238C16.1474 1.7232 15.1431 1.16921 13.6894 1.16921ZM20.6923 10.7638H24.9342C24.9934 10.5992 25.0084 10.1495 25.0084 10.0141L23.8546 9.75913C23.5396 9.69992 23.4353 9.59454 23.4353 9.21919L23.3901 6.67102V2.12866C23.3901 1.4994 23.5697 1.07888 24.0493 0.973505L24.6633 0.83902C24.6793 0.64432 24.6633 0.389402 24.6181 0.164593H20.6923C20.6471 0.329185 20.6471 0.64432 20.6772 0.778804L21.2762 1.00361C21.8912 1.21337 22.0257 1.6931 22.0257 2.17383V6.67102L21.9956 8.75452C21.9805 9.32557 21.816 9.6397 21.4267 9.78924L20.6321 10.1044C20.617 10.2991 20.6471 10.5399 20.6923 10.7638ZM26.9438 2.0835C26.9367 2.06252 26.9291 2.0388 26.9207 2.01291C26.8393 1.76132 26.6915 1.30479 26.4341 1.16921L25.5943 0.718587C25.5943 0.584103 25.6094 0.329185 25.6545 0.164593H29.5663C29.6115 0.389402 29.6406 0.673424 29.6265 0.869129L28.862 1.03372C28.5922 1.07888 28.3975 1.18326 28.3975 1.45424C28.3975 1.5285 28.4126 1.61883 28.4427 1.7232L30.7352 8.98033L33.3277 2.36853C33.3792 2.25442 33.3759 2.05559 33.3736 1.91475V1.91469L33.3736 1.91409C33.3732 1.88795 33.3728 1.86383 33.3728 1.84263C33.3437 1.5285 33.2233 1.18326 32.9986 1.07888L32.2943 0.749699C32.2943 0.614211 32.3083 0.329185 32.3535 0.164593H35.9813C36.0265 0.389402 36.0265 0.553994 36.0115 0.749699L35.4115 1.01867C35.0523 1.18326 34.7814 1.6931 34.6028 2.15877L31.0653 10.7788L30.061 10.9444L26.9438 2.0835ZM40.6888 2.39763L40.3747 1.22842H40.2694L39.8942 2.36853L38.6651 5.50181H41.678L40.6888 2.39763ZM54.1057 2.68266C54.3605 2.69771 54.5853 2.69771 54.7799 2.6375V0.164593H45.4283V2.6375C45.6229 2.69771 45.952 2.71377 46.1175 2.68266C46.2821 1.81353 46.6272 1.18326 47.3606 1.18326H49.4143V6.67102L49.3692 8.70935C49.3551 9.11481 49.1003 9.65476 48.7552 9.74508L47.6465 10.0291C47.6315 10.2238 47.6606 10.5399 47.7057 10.7638H52.5325C52.5777 10.5992 52.5917 10.1646 52.5917 10.0291L51.1681 9.75913C50.8831 9.69992 50.853 9.56443 50.853 9.21919L50.7788 6.67102V1.18326H52.6971C53.5208 1.18326 53.9251 1.75432 54.1057 2.68266ZM63.8506 10.7638H55.7119C55.6678 10.5399 55.6367 10.2238 55.6517 10.0291L56.6711 9.75913C57.0463 9.65476 57.256 9.30951 57.256 8.89L57.3012 6.65596V1.73826C57.3012 1.4994 57.1958 1.22842 56.941 1.1381L55.8173 0.749699C55.8173 0.731412 55.8159 0.710617 55.8143 0.687662C55.8106 0.633772 55.806 0.567979 55.8173 0.494781L55.8211 0.467467L55.8212 0.46741C55.835 0.368902 55.8503 0.260034 55.8915 0.164593H63.5055V2.56323C63.2942 2.5868 63.0374 2.58269 62.8564 2.57979C62.8062 2.57899 62.7619 2.57828 62.7259 2.57828C62.5614 1.67804 62.2915 1.24348 61.542 1.22842L58.6646 1.1381V4.94681L62.7259 4.87154V6.01164L58.6646 5.93637V6.67102L58.7389 9.77419L61.542 9.73003C62.6517 9.71397 63.2356 8.8599 63.4603 8.18547L64.1345 8.28984L63.8506 10.7638ZM0.0487082 24.6698H4.9949C7.79808 24.6698 8.87661 23.4103 8.87661 21.656C8.87661 19.7069 7.31751 19.167 6.47876 19.0476V19.0024C7.468 18.6431 8.11211 17.8483 8.11211 16.679C8.11211 14.9548 6.92823 14.0697 4.53038 14.0697H0.243345C0.169102 14.2644 0.154053 14.5343 0.169102 14.6548L1.29278 15.0442C1.53357 15.1345 1.65296 15.4045 1.65296 15.6443V20.5771L1.60781 22.7951C1.59276 23.2146 1.36803 23.5899 1.0229 23.6792L0.00356034 23.9502C-0.0104856 24.1449 0.0196129 24.445 0.0487082 24.6698ZM4.1401 19.6919H3.00238V20.6072L3.06157 23.6792H4.70997C6.22292 23.6792 7.33256 23.3501 7.33256 21.7011C7.33256 19.992 6.17878 19.6919 4.1401 19.6919ZM3.00238 15H4.15616C5.41428 15 6.55401 15.1485 6.55401 16.8577C6.55401 18.0881 6.05838 18.7324 4.33574 18.7324H3.00238V15ZM19.8054 24.6698H15.6979C15.6538 24.445 15.6377 24.2192 15.6377 24.0094L16.7022 23.6953C16.9872 23.62 17.1517 23.2908 17.1517 22.9456C17.1517 22.8101 17.1226 22.6907 17.0915 22.5703L16.3732 20.3814H12.656L11.7269 22.7198C11.6968 22.7951 11.6818 22.8854 11.6818 22.9607C11.6818 23.3049 11.9366 23.62 12.4312 23.7696L13.2549 24.0094C13.2549 24.1449 13.2409 24.5052 13.1958 24.6698H9.61302C9.56787 24.445 9.55383 24.2051 9.55383 24.0094C10.0474 23.6501 10.3625 23.2748 10.5581 22.8101L14.2743 14.0697L15.5475 13.9051L18.7249 22.6455C18.8904 23.0811 19.385 23.6792 19.8646 24.0094C19.8646 24.1449 19.8495 24.5052 19.8054 24.6698ZM14.7539 15.1345L15.0689 16.3037L16.0581 19.4079H13.0453L14.2743 16.2736L14.6495 15.1345H14.7539ZM31.1686 14.9097C30.7934 15.0151 30.5526 15.4195 30.5526 15.9434V24.6698L29.46 24.8495L23.2095 15.824H23.1052L23.2396 17.0243V20.5771L23.2838 22.9747C23.2838 23.336 23.3149 23.4243 23.645 23.5458L24.9181 23.9793C24.9181 24.1148 24.9031 24.5052 24.8429 24.6698H20.6321C20.587 24.445 20.5569 24.2051 20.5719 24.0094L21.4407 23.7405C21.9053 23.605 22.1461 23.1855 22.1601 22.4809L22.1902 20.5771V15.7648C22.1902 15.4336 22.0247 15.1044 21.7558 15L20.8418 14.6839C20.8418 14.6607 20.8413 14.632 20.8408 14.5995C20.8384 14.4451 20.8346 14.2056 20.8719 14.0697H23.8998L29.5493 22.21H29.6546L29.5051 20.6363V15.9595C29.5051 15.3442 29.2644 15.1194 28.9503 15L28.0052 14.6839C28.0052 14.5504 28.0052 14.2342 28.0654 14.0697H31.9923C31.9989 14.1213 32.0057 14.1698 32.0122 14.2162L32.0122 14.2166L32.0123 14.2169L32.0123 14.2169L32.0123 14.217C32.0341 14.3729 32.0525 14.5049 32.0525 14.6548L31.1686 14.9097ZM36.4017 19.5574L40.6135 24.0245C41.1824 24.6387 42.1867 24.9548 43.2512 25L43.4157 24.1449C42.8007 23.9342 41.992 23.2748 41.3921 22.6455L37.7501 18.8529L42.6512 14.729V14.0697H39.1447C39.0835 14.2342 39.0835 14.5945 39.0835 14.729L39.8039 14.9548C39.9544 15 40.0587 15.1345 40.0587 15.3141C40.0587 15.4647 39.9835 15.6594 39.7587 15.8531L36.4017 18.9121V19.5574ZM33.0588 24.0094L34.049 23.6652C34.4383 23.5297 34.6038 23.1102 34.6179 22.6606L34.647 20.5771V15.9293C34.647 15.569 34.5135 15.1194 34.1985 15L33.2996 14.6839C33.2685 14.5504 33.2685 14.2342 33.3136 14.0697H37.2405C37.2856 14.2955 37.3157 14.4601 37.3007 14.6548L36.5512 14.9388C36.177 15.0893 36.0114 15.4336 36.0114 16.0036V20.4566L36.0415 23.05C36.0415 23.4243 36.1469 23.5297 36.3566 23.5899L37.3308 23.9051C37.3308 24.0405 37.3157 24.5052 37.2555 24.6698H33.119C33.0738 24.445 33.0447 24.2051 33.0588 24.0094ZM44.124 24.6698H48.3649C48.4251 24.5052 48.4401 24.0546 48.4401 23.9201L47.2854 23.6652C46.9713 23.605 46.866 23.5006 46.866 23.1253L46.8208 20.5771V16.0337C46.8208 15.4045 47.0014 14.9839 47.481 14.8796L48.095 14.7441C48.1101 14.5504 48.095 14.2955 48.0499 14.0697H44.124C44.0789 14.2342 44.0789 14.5504 44.108 14.6839L44.7079 14.9097C45.3219 15.1194 45.4574 15.5982 45.4574 16.0789V20.5771L45.4273 22.6606C45.4122 23.2306 45.2477 23.5458 44.8574 23.6953L44.0628 24.0094C44.0488 24.2051 44.0789 24.445 44.124 24.6698ZM60.1023 14.9097C59.7271 15.0151 59.4863 15.4195 59.4863 15.9434V24.6698L58.3927 24.8495L52.1433 15.824H52.0379L52.1734 17.0243V20.5771L52.2175 22.9747C52.2175 23.336 52.2476 23.4243 52.5787 23.5458L53.8519 23.9793C53.8519 24.1148 53.8358 24.5052 53.7766 24.6698H49.5658C49.5207 24.445 49.4896 24.2051 49.5056 24.0094L50.3745 23.7405C50.839 23.605 51.0788 23.1855 51.0938 22.4809L51.1239 20.5771V15.7648C51.1239 15.4336 50.9584 15.1044 50.6895 15L49.7755 14.6839C49.7755 14.6607 49.7751 14.6319 49.7745 14.5995C49.7721 14.4451 49.7683 14.2056 49.8056 14.0697H52.8325L58.483 22.21H58.5884L58.4379 20.6363V15.9595C58.4379 15.3442 58.1981 15.1194 57.8841 15L56.939 14.6839C56.939 14.5504 56.939 14.2342 56.9992 14.0697H60.926C60.9315 14.1109 60.937 14.1501 60.9422 14.1878L60.9424 14.189C60.9659 14.3573 60.9852 14.496 60.9852 14.6548L60.1023 14.9097ZM67.4484 13.9051C63.986 13.9051 62.0377 16.3037 62.0377 19.452C62.0377 23.1554 64.0161 24.7892 67.5076 24.7892C68.4667 24.7892 70.1312 24.6548 71 24.3246L70.985 20.2318H69.6215V23.4404C69.2764 23.5297 68.2721 23.6351 67.7775 23.6351C65.3344 23.6351 63.5065 22.3766 63.5065 19.3025C63.5065 16.1983 65.1699 14.9247 67.3882 14.9247C69.0817 14.9247 69.9355 15.7788 70.3097 16.8436H71V14.5795C70.4311 14.2644 69.2914 13.9051 67.4484 13.9051Z" fill="#B2B4B3"/>
</svg>
