<svg width="75" height="36" viewBox="0 0 75 36" fill="none" xmlns="http://www.w3.org/2000/svg">
<path fill-rule="evenodd" clip-rule="evenodd" d="M0 22V28.986H0.811V26.466H1.759C2.675 26.466 3.367 26.252 3.834 25.824C4.302 25.396 4.537 24.849 4.537 24.184C4.537 23.486 4.335 22.947 3.933 22.568C3.532 22.189 2.978 22 2.274 22H0ZM0.811 25.785V22.662H2.056C2.603 22.662 3.009 22.791 3.277 23.047C3.543 23.304 3.676 23.7 3.676 24.233C3.676 24.766 3.512 25.159 3.182 25.409C2.853 25.659 2.399 25.785 1.819 25.785H0.811ZM6.453 28.986V22H7.263V28.284H10.296V28.986H6.453ZM13.982 22L11.117 28.986H11.976L13.014 26.377H15.771L16.7 28.986H17.579L15.04 22H13.982ZM13.261 25.725H15.553L14.466 22.573L13.261 25.725ZM20.277 22.692V28.986H21.086V22.692H23.478V22H17.885V22.692H20.277ZM25.107 28.986H25.917V22H25.107V28.986ZM28.506 22V28.986H29.317V23.729L29.278 23.008H29.307L32.933 28.986H34.02V22H33.201V27.187L33.24 28.067H33.22L29.544 22H28.506ZM39.306 29.104C39.016 29.104 38.745 29.081 38.491 29.035C38.237 28.989 37.987 28.907 37.74 28.788C37.493 28.669 37.281 28.516 37.102 28.328C36.924 28.141 36.782 27.895 36.672 27.593C36.564 27.289 36.509 26.944 36.509 26.555V22H37.33V26.486C37.33 27.764 37.989 28.403 39.306 28.403C40.636 28.403 41.302 27.688 41.302 26.259V22H42.102V26.289C42.102 26.822 42.018 27.281 41.85 27.667C41.682 28.052 41.455 28.344 41.168 28.541C40.881 28.739 40.585 28.882 40.279 28.971C39.973 29.06 39.648 29.104 39.306 29.104ZM44.592 22V28.986H45.403V24.164L45.354 23.196H45.383L47.468 28.986H48.644L50.996 23.215H51.025L50.986 24.292V28.986H51.806V22H50.768L48.081 28.501L45.69 22H44.592Z" fill="#B2B4B3"/>
<path fill-rule="evenodd" clip-rule="evenodd" d="M20.374 15.206H26.176C26.24 14.971 26.262 14.464 26.262 14.273C25.584 13.807 24.885 12.96 24.652 12.345L20.162 0L18.362 0.232L13.11 12.58C12.835 13.236 12.39 13.765 11.691 14.273C11.691 14.549 11.712 14.888 11.776 15.206H16.838C16.901 14.971 16.922 14.464 16.922 14.273L15.757 13.936C15.058 13.723 14.698 13.278 14.698 12.791C14.698 12.686 14.719 12.558 14.762 12.451L16.074 9.147H21.327L22.343 12.24C22.386 12.41 22.428 12.58 22.428 12.77C22.428 13.258 22.195 13.723 21.793 13.829L20.29 14.273C20.29 14.569 20.31 14.888 20.374 15.206ZM0 14.528C1.356 15.121 3.071 15.438 4.553 15.438C7.349 15.438 10.25 14.21 10.25 11.16C10.25 8.28455 7.78253 7.28883 5.58273 6.40114L5.57 6.396C3.812 5.696 2.456 4.996 2.456 3.579C2.456 2.159 3.643 1.397 5.548 1.397C7.116 1.397 8.556 2.498 8.874 4.066H9.763V0.739C8.768 0.232 7.159 0.02 5.506 0.02C2.965 0.02 0.571 1.651 0.571 4.257C0.571 6.712 2.563 7.751 4.469 8.492C4.60621 8.54534 4.74297 8.59781 4.87865 8.64986L4.8788 8.64992C6.62783 9.32088 8.196 9.92245 8.196 11.436C8.196 13.299 6.904 14.103 5.189 14.103C2.923 14.103 1.546 12.982 1.292 10.99H0.17L0 14.528ZM19.484 3.388L19.04 1.736H18.892L18.362 3.344L16.626 7.772H20.882L19.484 3.388ZM35.411 0C30.519 0 27.766 3.388 27.766 7.836C27.766 13.067 30.561 15.375 35.496 15.375C36.851 15.375 39.203 15.184 40.431 14.719L40.409 8.936H38.483V13.469C37.995 13.595 36.576 13.745 35.877 13.745C32.425 13.745 29.841 11.964 29.841 7.624C29.841 3.239 32.193 1.439 35.326 1.439C37.72 1.439 38.927 2.646 39.457 4.15H40.431V0.952C39.626 0.507 38.016 0 35.411 0ZM56.738 15.206H50.935C50.871 14.888 50.85 14.569 50.85 14.273L52.354 13.829C52.756 13.723 52.99 13.258 52.99 12.77C52.99 12.58 52.947 12.41 52.904 12.24L51.888 9.147H46.636L45.323 12.451C45.28 12.558 45.26 12.686 45.26 12.791C45.26 13.278 45.619 13.723 46.318 13.936L47.483 14.273C47.483 14.464 47.462 14.971 47.399 15.206H42.336C42.273 14.888 42.252 14.549 42.252 14.273C42.951 13.765 43.395 13.236 43.671 12.58L48.923 0.232L50.723 0L55.213 12.345C55.446 12.96 56.145 13.807 56.823 14.273C56.823 14.464 56.801 14.971 56.738 15.206ZM49.601 1.736L50.046 3.388L51.443 7.772H47.187L48.923 3.344L49.452 1.736H49.601Z" fill="#B2B4B3"/>
</svg>
