<svg width="24" height="24" viewBox="0 0 24 24" fill="none" xmlns="http://www.w3.org/2000/svg">
    <path fill-rule="evenodd" clip-rule="evenodd" d="M1 6.5C1 6.77614 0.776142 7 0.5 7C0.223858 7 0 6.77614 0 6.5V4.5C0 2.01472 2.01472 0 4.5 0H6.5C6.77614 0 7 0.223858 7 0.5C7 0.776142 6.77614 1 6.5 1H4.5C2.567 1 1 2.567 1 4.5V6.5ZM7.5 8C7.22386 8 7 8.22386 7 8.5V10.5C7 10.7761 7.22386 11 7.5 11C7.77614 11 8 10.7761 8 10.5V8.5C8 8.22386 7.77614 8 7.5 8ZM7.24328 16.0709C7.00632 16.2127 6.92917 16.5198 7.07096 16.7567C7.97007 18.2593 9.63668 19 12 19C14.3634 19 16.03 18.2593 16.9291 16.7567C17.0709 16.5198 16.9937 16.2127 16.7568 16.0709C16.5198 15.9292 16.2128 16.0063 16.071 16.2433C15.3744 17.4074 14.041 18 12 18C9.95906 18 8.62566 17.4074 7.92907 16.2433C7.78727 16.0063 7.48023 15.9292 7.24328 16.0709ZM12 8.50269C12 8.22654 12.2239 8.00269 12.5 8.00269C12.7761 8.00269 13 8.22654 13 8.50269V13.5278L12.9551 13.735C12.5675 14.5862 11.7162 15 10.5 15C10.2239 15 10 14.7761 10 14.5C10 14.2239 10.2239 14 10.5 14C11.3021 14 11.7754 13.7963 12 13.408V8.50269ZM17.5 8C17.2239 8 17 8.22386 17 8.5V10.5C17 10.7761 17.2239 11 17.5 11C17.7761 11 18 10.7761 18 10.5V8.5C18 8.22386 17.7761 8 17.5 8ZM17 0.5C17 0.776142 17.2239 1 17.5 1H19.5C21.433 1 23 2.567 23 4.5V6.5C23 6.77614 23.2239 7 23.5 7C23.7761 7 24 6.77614 24 6.5V4.5C24 2.01472 21.9853 0 19.5 0H17.5C17.2239 0 17 0.223858 17 0.5ZM23 17.5C23 17.2239 23.2239 17 23.5 17C23.7761 17 24 17.2239 24 17.5V19.5C24 21.9853 21.9853 24 19.5 24H17.5C17.2239 24 17 23.7761 17 23.5C17 23.2239 17.2239 23 17.5 23H19.5C21.433 23 23 21.433 23 19.5V17.5ZM7 23.5C7 23.2239 6.77614 23 6.5 23H4.5C2.567 23 1 21.433 1 19.5V17.5C1 17.2239 0.776142 17 0.5 17C0.223858 17 0 17.2239 0 17.5V19.5C0 21.9853 2.01472 24 4.5 24H6.5C6.77614 24 7 23.7761 7 23.5Z" fill="#008484"/>
</svg>
