<svg fill="none" height="24" viewBox="0 0 24 24" width="24" xmlns="http://www.w3.org/2000/svg">
    <path d="m20.5 22.4578h-17c-1.10457 0-2-.8936-2-1.9959v-10.4492c0-.64462.31193-1.24951.83752-1.62417l8.49998-6.05895c.6954-.49569 1.6296-.49569 2.325 0l8.5 6.05896c.5256.37465.8375.97954.8375 1.62416v10.4492c0 1.1023-.8954 1.9959-2 1.9959z" fill="#383d3c"/>
    <path d="m8.5 19.464v-5.4887c0-.5512.44772-.998 1-.998h5c.5523 0 1 .4468 1 .998v5.4887m-12 2.9938h17c1.1046 0 2-.8936 2-1.9959v-10.4492c0-.64462-.3119-1.24951-.8375-1.62416l-8.5-6.05896c-.6954-.49569-1.6296-.49569-2.325 0l-8.49998 6.05895c-.52559.37466-.83752.97955-.83752 1.62417v10.4492c0 1.1023.89543 1.9959 2 1.9959z" stroke="#a5e1d2" stroke-linejoin="round" stroke-width="1.5"/>
</svg>
