<svg width="75" height="36" viewBox="0 0 75 36" fill="none" xmlns="http://www.w3.org/2000/svg">
<path fill-rule="evenodd" clip-rule="evenodd" d="M41.1825 10.725H45.2765C45.3215 10.561 45.3355 10.203 45.3355 10.068C44.8575 9.739 44.3655 9.142 44.2006 8.709L41.0335 0L39.7635 0.164L36.0595 8.873C35.8655 9.336 35.5515 9.71 35.0585 10.068C35.0585 10.262 35.0735 10.502 35.1175 10.725H38.6885C38.7335 10.561 38.7475 10.203 38.7475 10.068L37.9265 9.829C37.4335 9.679 37.1795 9.366 37.1795 9.022C37.1795 8.948 37.1945 8.858 37.2245 8.783L38.1505 6.453H41.8555L42.5725 8.633C42.6025 8.753 42.6315 8.873 42.6315 9.007C42.6315 9.351 42.4675 9.679 42.1835 9.754L41.1225 10.068C41.1225 10.277 41.1385 10.502 41.1825 10.725ZM3.97755 6.692H4.26155C7.14455 6.692 8.44455 5.257 8.44455 3.375C8.44455 1.165 7.12955 0.164 5.03755 0.164H0.198549C0.123549 0.358 0.108549 0.627 0.123549 0.747L1.24355 1.134C1.49755 1.224 1.60255 1.494 1.60255 1.732V6.647L1.55755 8.873C1.54255 9.425 1.31855 9.695 0.975549 9.799L0.108549 10.068C0.0935487 10.262 0.123549 10.502 0.168549 10.725H4.78355C4.84355 10.561 4.85955 10.128 4.85955 9.993L3.33455 9.589C3.06655 9.53 2.99255 9.306 2.99255 8.948L2.96155 6.647V1.134L4.65055 1.165C6.32355 1.195 6.96555 2.061 6.96555 3.45C6.96555 5.138 5.99355 5.691 4.35155 5.75L3.97755 5.765V6.692ZM19.4781 10.8835H19.4782C19.6046 10.8948 19.7195 10.905 19.8145 10.905L19.9785 10.098C19.1425 9.859 18.5895 9.53 17.6035 8.545C16.8865 7.812 16.0495 6.467 15.6915 5.885C16.9605 5.497 17.6335 4.287 17.6335 3.077C17.6335 0.911 16.1245 0.164 14.0185 0.164H9.50655C9.43255 0.358 9.41655 0.627 9.43255 0.747L10.5525 1.134C10.7465 1.209 10.8965 1.388 10.8965 1.568V6.647L10.8515 8.858C10.8365 9.351 10.6875 9.634 10.2535 9.799L9.53655 10.068C9.52155 10.262 9.55155 10.502 9.58155 10.725H13.7045C13.7645 10.561 13.7645 10.083 13.7645 9.949L12.5545 9.665C12.3745 9.634 12.3005 9.515 12.3005 9.261L12.2405 6.244H13.3615C13.5555 6.244 13.9885 6.229 14.1375 6.199C14.1733 6.26329 14.2139 6.33703 14.2588 6.41864C14.6831 7.19004 15.4948 8.66547 16.3195 9.53C17.2145 10.486 18.5445 10.77 19.3805 10.875L19.4781 10.8835ZM13.6445 1.165L12.2405 1.134V5.257H13.6295C15.2735 5.257 16.0945 4.541 16.0945 3.151C16.0945 1.717 15.0935 1.165 13.6445 1.165ZM20.6245 10.725H24.8525C24.9115 10.561 24.9265 10.113 24.9265 9.978L23.7765 9.724C23.4625 9.665 23.3585 9.56 23.3585 9.186L23.3135 6.647V2.121C23.3135 1.494 23.4925 1.075 23.9705 0.97L24.5825 0.836C24.5985 0.642 24.5825 0.388 24.5375 0.164H20.6245C20.5795 0.328 20.5795 0.642 20.6095 0.776L21.2065 1C21.8195 1.209 21.9535 1.687 21.9535 2.166V6.647L21.9235 8.723C21.9085 9.292 21.7445 9.605 21.3565 9.754L20.5645 10.068C20.5495 10.262 20.5795 10.502 20.6245 10.725ZM26.8555 2.076C26.8486 2.0551 26.8409 2.03146 26.8326 2.00567C26.7514 1.75499 26.6041 1.3001 26.3475 1.165L25.5105 0.716C25.5105 0.582 25.5255 0.328 25.5705 0.164H29.4695C29.5145 0.388 29.5436 0.671 29.5296 0.866L28.7675 1.03C28.4986 1.075 28.3046 1.179 28.3046 1.449C28.3046 1.523 28.3195 1.613 28.3496 1.717L30.6346 8.948L33.2186 2.36C33.2699 2.24629 33.2667 2.04815 33.2644 1.90781C33.2639 1.88153 33.2635 1.85729 33.2635 1.836C33.2346 1.523 33.1146 1.179 32.8906 1.075L32.1886 0.747C32.1886 0.612 32.2026 0.328 32.2476 0.164H35.8636C35.9086 0.388 35.9086 0.552 35.8936 0.747L35.2956 1.015C34.9375 1.179 34.6676 1.687 34.4896 2.151L30.9635 10.74L29.9625 10.905L26.8555 2.076ZM40.5555 2.389L40.2425 1.224H40.1375L39.7635 2.36L38.5385 5.482H41.5415L40.5555 2.389ZM53.9286 2.673C54.1825 2.688 54.4065 2.688 54.6005 2.628V0.164H45.2795V2.628C45.4735 2.688 45.8015 2.704 45.9665 2.673C46.1306 1.807 46.4745 1.179 47.2055 1.179H49.2525V6.647L49.2076 8.678C49.1936 9.082 48.9395 9.62 48.5956 9.71L47.4905 9.993C47.4755 10.187 47.5045 10.502 47.5495 10.725H52.3605C52.4055 10.561 52.4195 10.128 52.4195 9.993L51.0005 9.724C50.7165 9.665 50.6866 9.53 50.6866 9.186L50.6125 6.647V1.179H52.5245C53.3455 1.179 53.7486 1.748 53.9286 2.673ZM63.6415 10.725H55.5295C55.4855 10.502 55.4545 10.187 55.4695 9.993L56.4855 9.724C56.8595 9.62 57.0685 9.276 57.0685 8.858L57.1135 6.632V1.732C57.1135 1.494 57.0085 1.224 56.7545 1.134L55.6345 0.747C55.6345 0.728778 55.6331 0.708058 55.6315 0.685187C55.6278 0.63149 55.6233 0.565934 55.6345 0.493L55.6384 0.465788C55.6522 0.367619 55.6674 0.259118 55.7085 0.164H63.2975V2.554C63.087 2.57749 62.831 2.57339 62.6506 2.57051C62.6006 2.56971 62.5564 2.569 62.5205 2.569C62.3565 1.672 62.0875 1.239 61.3405 1.224L58.4725 1.134V4.929L62.5205 4.854V5.99L58.4725 5.915V6.647L58.5465 9.739L61.3405 9.695C62.4465 9.679 63.0285 8.828 63.2525 8.156L63.9245 8.26L63.6415 10.725ZM0.0485487 24.581H4.97855C7.77255 24.581 8.84755 23.326 8.84755 21.578C8.84755 19.636 7.29355 19.098 6.45755 18.979V18.934C7.44355 18.576 8.08555 17.784 8.08555 16.619C8.08555 14.901 6.90555 14.019 4.51555 14.019H0.242549C0.168549 14.213 0.153549 14.482 0.168549 14.602L1.28855 14.99C1.52855 15.08 1.64755 15.349 1.64755 15.588V20.503L1.60255 22.713C1.58755 23.131 1.36355 23.505 1.01955 23.594L0.00354868 23.864C-0.0104513 24.058 0.0195487 24.357 0.0485487 24.581ZM4.12655 19.621H2.99255V20.533L3.05155 23.594H4.69455C6.20255 23.594 7.30855 23.266 7.30855 21.623C7.30855 19.92 6.15855 19.621 4.12655 19.621ZM2.99255 14.946H4.14255C5.39655 14.946 6.53255 15.094 6.53255 16.797C6.53255 18.023 6.03855 18.665 4.32155 18.665H2.99255V14.946ZM19.7405 24.581H15.6465C15.6025 24.357 15.5865 24.132 15.5865 23.923L16.6475 23.61C16.9315 23.535 17.0955 23.207 17.0955 22.863C17.0955 22.728 17.0665 22.609 17.0355 22.489L16.3195 20.308H12.6145L11.6885 22.638C11.6585 22.713 11.6435 22.803 11.6435 22.878C11.6435 23.221 11.8975 23.535 12.3905 23.684L13.2115 23.923C13.2115 24.058 13.1975 24.417 13.1525 24.581H9.58155C9.53655 24.357 9.52255 24.118 9.52255 23.923C10.0145 23.565 10.3285 23.191 10.5235 22.728L14.2275 14.019L15.4965 13.855L18.6635 22.564C18.8285 22.998 19.3215 23.594 19.7995 23.923C19.7995 24.058 19.7845 24.417 19.7405 24.581ZM14.7055 15.08L15.0195 16.245L16.0055 19.338H13.0025L14.2275 16.215L14.6015 15.08H14.7055ZM31.0665 14.856C30.6925 14.961 30.4525 15.364 30.4525 15.886V24.581L29.3635 24.76L23.1335 15.767H23.0295L23.1635 16.963V20.503L23.2075 22.892C23.2075 23.252 23.2385 23.34 23.5675 23.461L24.8365 23.893C24.8365 24.028 24.8215 24.417 24.7615 24.581H20.5645C20.5195 24.357 20.4895 24.118 20.5045 23.923L21.3705 23.655C21.8335 23.52 22.0735 23.102 22.0875 22.4L22.1175 20.503V15.708C22.1175 15.378 21.9525 15.05 21.6845 14.946L20.7735 14.631C20.7735 14.6079 20.7731 14.5794 20.7726 14.5471V14.5471V14.547V14.5469C20.7701 14.3931 20.7664 14.1545 20.8035 14.019H23.8215L29.4525 22.13H29.5575L29.4085 20.562V15.902C29.4085 15.289 29.1685 15.065 28.8555 14.946L27.9135 14.631C27.9135 14.498 27.9135 14.183 27.9735 14.019H31.8875C31.8942 14.0708 31.901 14.1193 31.9075 14.1658C31.9292 14.3211 31.9475 14.4526 31.9475 14.602L31.0665 14.856ZM36.2825 19.487L40.4805 23.938C41.0475 24.55 42.0485 24.865 43.1095 24.91L43.2735 24.058C42.6605 23.848 41.8545 23.191 41.2565 22.564L37.6265 18.785L42.5115 14.676V14.019H39.0165C38.9555 14.183 38.9555 14.542 38.9555 14.676L39.6735 14.901C39.8235 14.946 39.9275 15.08 39.9275 15.259C39.9275 15.409 39.8525 15.603 39.6285 15.796L36.2825 18.844V19.487ZM32.9505 23.923L33.9375 23.58C34.3255 23.445 34.4905 23.027 34.5045 22.579L34.5335 20.503V15.872C34.5335 15.513 34.4005 15.065 34.0865 14.946L33.1905 14.631C33.1595 14.498 33.1595 14.183 33.2045 14.019H37.1185C37.1635 14.244 37.1935 14.408 37.1785 14.602L36.4315 14.885C36.0585 15.035 35.8935 15.378 35.8935 15.946V20.383L35.9235 22.967C35.9235 23.34 36.0285 23.445 36.2375 23.505L37.2085 23.819C37.2085 23.954 37.1935 24.417 37.1335 24.581H33.0105C32.9655 24.357 32.9365 24.118 32.9505 23.923ZM43.9795 24.581H48.2066C48.2665 24.417 48.2815 23.968 48.2815 23.834L47.1306 23.58C46.8176 23.52 46.7125 23.416 46.7125 23.042L46.6675 20.503V15.976C46.6675 15.349 46.8475 14.93 47.3256 14.826L47.9375 14.691C47.9525 14.498 47.9375 14.244 47.8925 14.019H43.9795C43.9345 14.183 43.9345 14.498 43.9636 14.631L44.5616 14.856C45.1735 15.065 45.3085 15.542 45.3085 16.021V20.503L45.2785 22.579C45.2635 23.147 45.0995 23.461 44.7105 23.61L43.9185 23.923C43.9045 24.118 43.9345 24.357 43.9795 24.581ZM59.9055 14.856C59.5315 14.961 59.2915 15.364 59.2915 15.886V24.581L58.2015 24.76L51.9725 15.767H51.8675L52.0025 16.963V20.503L52.0465 22.892C52.0465 23.252 52.0765 23.34 52.4065 23.461L53.6755 23.893C53.6755 24.028 53.6595 24.417 53.6005 24.581H49.4035C49.3585 24.357 49.3275 24.118 49.3435 23.923L50.2095 23.655C50.6725 23.52 50.9115 23.102 50.9265 22.4L50.9565 20.503V15.708C50.9565 15.378 50.7915 15.05 50.5235 14.946L49.6125 14.631C49.6125 14.608 49.6121 14.5796 49.6116 14.5474L49.6116 14.5469C49.6091 14.3931 49.6054 14.1545 49.6425 14.019H52.6595L58.2915 22.13H58.3965L58.2465 20.562V15.902C58.2465 15.289 58.0075 15.065 57.6945 14.946L56.7525 14.631C56.7525 14.498 56.7525 14.183 56.8125 14.019H60.7265C60.7321 14.0605 60.7376 14.1 60.7429 14.1379C60.7663 14.3055 60.7855 14.4438 60.7855 14.602L59.9055 14.856ZM67.2275 13.855C63.7766 13.855 61.8345 16.245 61.8345 19.382C61.8345 23.072 63.8065 24.7 67.2866 24.7C68.2425 24.7 69.9016 24.566 70.7675 24.237L70.7525 20.159H69.3935V23.356C69.0495 23.445 68.0485 23.55 67.5555 23.55C65.1206 23.55 63.2985 22.296 63.2985 19.233C63.2985 16.14 64.9566 14.871 67.1675 14.871C68.8556 14.871 69.7066 15.722 70.0796 16.783H70.7675V14.527C70.2005 14.213 69.0646 13.855 67.2275 13.855Z" fill="#B2B4B3"/>
</svg>
