<svg width="75" height="36" viewBox="0 0 75 36" fill="none" xmlns="http://www.w3.org/2000/svg">
<path fill-rule="evenodd" clip-rule="evenodd" d="M13.9503 29.45H13.1693V22H13.9503V29.45ZM0 26.002C0 27.102 0.325983 27.971 0.97795 28.61C1.62992 29.249 2.52887 29.568 3.67481 29.568C4.37378 29.568 5.05474 29.453 5.71971 29.223V26.011H4.91075V28.699C4.58677 28.797 4.21179 28.847 3.78381 28.847C2.92685 28.847 2.22389 28.604 1.67392 28.116C1.12494 27.628 0.848957 26.891 0.848957 25.902C0.848957 24.947 1.10794 24.238 1.62492 23.774C2.14189 23.309 2.79886 23.077 3.59582 23.077C4.16279 23.077 4.75176 23.186 5.36473 23.403L5.59172 22.741C5.03874 22.49 4.36678 22.365 3.57682 22.365C2.44988 22.365 1.57192 22.693 0.942952 23.348C0.313984 24.004 0 24.888 0 26.002ZM6.95565 26.812C6.95565 27.688 7.16764 28.366 7.59261 28.847C8.01759 29.328 8.60556 29.568 9.35653 29.568C10.0935 29.568 10.6885 29.328 11.1394 28.847C11.5904 28.366 11.8164 27.658 11.8164 26.723C11.8164 25.827 11.6144 25.135 11.2084 24.648C10.8035 24.16 10.2225 23.917 9.46452 23.917C8.70156 23.917 8.09159 24.17 7.63661 24.677C7.18264 25.185 6.95565 25.896 6.95565 26.812ZM9.40552 28.926C10.4865 28.926 11.0264 28.208 11.0264 26.772C11.0264 26.489 11.0024 26.227 10.9574 25.986C10.9114 25.746 10.8324 25.514 10.7195 25.29C10.6075 25.066 10.4395 24.888 10.2155 24.756C9.99249 24.625 9.72151 24.559 9.40552 24.559C9.08954 24.559 8.81755 24.625 8.59056 24.756C8.36358 24.888 8.19258 25.066 8.07759 25.29C7.9616 25.514 7.8776 25.746 7.8256 25.986C7.77261 26.227 7.74661 26.489 7.74661 26.772C7.74661 27.398 7.8756 27.913 8.13559 28.318C8.39657 28.724 8.81955 28.926 9.40552 28.926ZM16.7611 29.435C16.5342 29.359 16.3042 29.233 16.0742 29.055C15.8432 28.877 15.6582 28.6 15.5162 28.225C15.3742 27.849 15.3032 27.398 15.3032 26.871C15.3032 25.883 15.5452 25.144 16.0302 24.653C16.5142 24.162 17.1651 23.917 17.9811 23.917C18.2841 23.917 18.6001 23.963 18.93 24.055V22H19.71V29.45H18.93V28.936C18.706 29.14 18.4831 29.294 18.2631 29.396C18.0411 29.498 17.7771 29.548 17.4671 29.548C17.2231 29.548 16.9881 29.511 16.7611 29.435ZM18.93 28.284C18.4751 28.686 18.0211 28.887 17.5661 28.887C17.1311 28.887 16.7771 28.713 16.5042 28.368C16.2312 28.022 16.0942 27.507 16.0942 26.821C16.0942 26.163 16.2372 25.621 16.5242 25.196C16.8101 24.771 17.2801 24.559 17.9321 24.559C18.3211 24.559 18.6531 24.615 18.93 24.727V28.284Z" fill="#C6B27F"/>
<path fill-rule="evenodd" clip-rule="evenodd" d="M20.374 15.206H26.176C26.24 14.971 26.262 14.464 26.262 14.273C25.584 13.807 24.885 12.96 24.652 12.345L20.162 0L18.362 0.232L13.11 12.58C12.835 13.236 12.39 13.765 11.691 14.273C11.691 14.549 11.712 14.888 11.776 15.206H16.838C16.901 14.971 16.922 14.464 16.922 14.273L15.757 13.936C15.058 13.723 14.698 13.278 14.698 12.791C14.698 12.686 14.719 12.558 14.762 12.451L16.074 9.147H21.327L22.343 12.24C22.386 12.41 22.428 12.58 22.428 12.77C22.428 13.258 22.195 13.723 21.793 13.829L20.29 14.273C20.29 14.569 20.31 14.888 20.374 15.206ZM0 14.528C1.356 15.121 3.071 15.438 4.553 15.438C7.349 15.438 10.25 14.21 10.25 11.16C10.25 8.28455 7.78253 7.28883 5.58273 6.40114L5.57 6.396C3.812 5.696 2.456 4.996 2.456 3.579C2.456 2.159 3.643 1.397 5.548 1.397C7.116 1.397 8.556 2.498 8.874 4.066H9.763V0.739C8.768 0.232 7.159 0.02 5.506 0.02C2.965 0.02 0.571 1.651 0.571 4.257C0.571 6.712 2.563 7.751 4.469 8.492C4.60621 8.54534 4.74297 8.59781 4.87865 8.64986L4.8788 8.64992C6.62783 9.32088 8.196 9.92245 8.196 11.436C8.196 13.299 6.904 14.103 5.189 14.103C2.923 14.103 1.546 12.982 1.292 10.99H0.17L0 14.528ZM19.484 3.388L19.04 1.736H18.892L18.362 3.344L16.626 7.772H20.882L19.484 3.388ZM35.411 0C30.519 0 27.766 3.388 27.766 7.836C27.766 13.067 30.561 15.375 35.496 15.375C36.851 15.375 39.203 15.184 40.431 14.719L40.409 8.936H38.483V13.469C37.995 13.595 36.576 13.745 35.877 13.745C32.425 13.745 29.841 11.964 29.841 7.624C29.841 3.239 32.193 1.439 35.326 1.439C37.72 1.439 38.927 2.646 39.457 4.15H40.431V0.952C39.626 0.507 38.016 0 35.411 0ZM56.738 15.206H50.935C50.871 14.888 50.85 14.569 50.85 14.273L52.354 13.829C52.756 13.723 52.99 13.258 52.99 12.77C52.99 12.58 52.947 12.41 52.904 12.24L51.888 9.147H46.636L45.323 12.451C45.28 12.558 45.26 12.686 45.26 12.791C45.26 13.278 45.619 13.723 46.318 13.936L47.483 14.273C47.483 14.464 47.462 14.971 47.399 15.206H42.336C42.273 14.888 42.252 14.549 42.252 14.273C42.951 13.765 43.395 13.236 43.671 12.58L48.923 0.232L50.723 0L55.213 12.345C55.446 12.96 56.145 13.807 56.823 14.273C56.823 14.464 56.801 14.971 56.738 15.206ZM49.601 1.736L50.046 3.388L51.443 7.772H47.187L48.923 3.344L49.452 1.736H49.601Z" fill="#C6B27F"/>
</svg>
